{"glyphs":{"0":{"ha":667,"x_min":58,"x_max":642,"o":"m 278 -17 q 184 6 225 -17 q 115 69 143 29 q 73 165 88 110 q 58 285 58 219 q 88 521 58 408 q 168 718 118 633 q 285 853 218 803 q 425 903 351 903 q 517 879 476 903 q 585 815 558 856 q 627 719 613 775 q 642 599 642 663 q 613 363 642 474 q 533 167 583 251 q 417 33 483 82 q 278 -17 351 -17 m 418 817 q 317 768 364 817 q 234 642 269 719 q 178 469 199 565 q 158 281 158 374 q 166 196 158 235 q 189 128 174 157 q 228 84 204 100 q 283 68 251 68 q 385 116 338 68 q 467 241 432 164 q 523 413 503 318 q 543 603 543 508 q 513 756 543 696 q 418 817 482 817 z "},"1":{"ha":667,"x_min":36,"x_max":533,"o":"m 54 89 l 247 89 l 381 753 l 224 753 l 238 822 q 432 886 356 839 l 514 886 l 353 89 l 533 89 l 517 0 l 36 0 l 54 89 z "},"2":{"ha":667,"x_min":-14,"x_max":628,"o":"m -3 64 q 229 261 131 176 q 393 415 328 346 q 491 545 458 485 q 524 671 524 606 q 488 774 524 732 q 379 815 453 815 q 290 792 335 815 q 197 726 244 769 l 143 793 q 265 874 204 846 q 392 903 325 903 q 492 887 449 903 q 567 842 536 871 q 613 772 597 813 q 628 685 628 732 q 599 547 628 611 q 513 414 569 482 q 369 269 456 346 q 168 92 282 192 l 551 92 l 535 0 l -14 0 l -3 64 z "},"3":{"ha":667,"x_min":-12,"x_max":635,"o":"m 58 192 q 141 108 90 144 q 261 72 192 72 q 348 86 308 72 q 416 124 388 100 q 460 182 444 149 q 476 256 476 215 q 463 320 476 290 q 418 372 449 350 q 339 406 388 394 q 219 418 290 418 l 236 499 q 374 515 318 499 q 463 558 429 532 q 512 617 497 585 q 526 682 526 650 q 492 778 526 740 q 386 815 457 815 q 299 796 346 815 q 213 744 253 776 l 158 815 q 403 903 274 903 q 575 847 515 903 q 635 700 635 792 q 583 551 635 615 q 428 458 532 488 l 428 453 q 542 379 501 429 q 583 260 583 329 q 559 145 583 196 q 492 58 535 94 q 389 3 449 22 q 260 -17 329 -17 q 99 28 168 -17 q -12 136 29 74 l 58 192 z "},"4":{"ha":667,"x_min":11,"x_max":621,"o":"m 339 0 l 389 244 l 11 244 l 24 317 l 499 886 l 615 886 l 504 331 l 621 331 l 603 244 l 488 244 l 439 0 l 339 0 m 406 331 l 457 593 q 477 678 465 633 q 500 769 489 724 l 494 769 q 440 694 467 731 q 388 625 413 657 l 142 331 l 406 331 z "},"5":{"ha":667,"x_min":-6,"x_max":654,"o":"m 64 190 q 97 146 79 167 q 139 108 115 125 q 193 82 163 92 q 263 72 224 72 q 345 89 306 72 q 415 137 385 106 q 464 211 446 168 q 482 308 482 254 q 438 436 482 394 q 322 478 394 478 q 249 467 279 478 q 174 432 218 456 l 128 468 l 239 886 l 654 886 l 636 794 l 313 794 l 240 533 q 293 553 264 544 q 357 561 322 561 q 449 547 407 561 q 523 503 492 532 q 572 430 554 474 q 589 328 589 386 q 561 185 589 249 q 488 76 533 121 q 381 8 442 32 q 256 -17 321 -17 q 99 27 164 -17 q -6 133 35 71 l 64 190 z "},"6":{"ha":667,"x_min":71,"x_max":678,"o":"m 363 457 q 324 451 346 457 q 278 433 303 446 q 226 399 253 421 q 172 344 199 378 q 171 313 171 329 q 171 281 171 297 q 211 126 171 185 q 322 67 251 67 q 393 86 360 67 q 451 137 426 106 q 490 208 476 168 q 504 290 504 249 q 469 412 504 367 q 363 457 433 457 m 606 733 q 552 793 582 772 q 479 814 522 814 q 379 787 426 814 q 292 710 332 760 q 224 591 253 661 q 182 433 196 521 q 285 511 228 486 q 388 536 342 536 q 544 475 486 536 q 603 306 603 414 q 581 182 603 240 q 521 79 560 124 q 430 9 482 35 q 317 -17 378 -17 q 215 6 260 -17 q 138 67 169 28 q 88 163 106 107 q 71 283 71 218 q 102 532 71 418 q 189 728 133 646 q 320 857 244 811 q 485 903 396 903 q 603 869 557 903 q 678 790 650 835 l 606 733 z "},"7":{"ha":667,"x_min":149,"x_max":715,"o":"m 167 0 q 232 233 196 125 q 316 438 268 340 q 426 623 364 535 q 574 794 489 711 l 149 794 l 168 886 l 715 886 l 701 817 q 528 622 599 719 q 410 425 458 525 q 332 219 363 325 q 278 0 301 114 l 167 0 l 167 0 z "},"8":{"ha":667,"x_min":49,"x_max":654,"o":"m 306 444 q 190 354 235 406 q 146 225 146 303 q 159 156 146 186 q 195 106 172 126 q 249 74 218 85 q 314 63 279 63 q 384 74 350 63 q 445 108 418 86 q 488 162 472 129 q 504 236 504 194 q 488 304 504 275 q 444 358 472 333 q 381 403 417 382 q 306 444 344 424 m 428 479 q 477 517 453 496 q 520 563 501 538 q 550 619 539 589 q 561 683 561 649 q 523 786 561 750 q 428 822 485 822 q 369 812 397 822 q 320 781 342 801 q 286 732 299 761 q 274 667 274 703 q 314 556 274 597 q 428 479 354 514 m 49 214 q 66 306 49 264 q 112 380 83 347 q 178 438 140 413 q 256 481 215 463 l 256 486 q 197 566 217 525 q 176 661 176 607 q 197 763 176 718 q 254 838 218 807 q 337 886 290 869 q 436 903 383 903 q 517 890 478 903 q 588 852 557 878 q 636 788 618 826 q 654 697 654 749 q 607 549 654 608 q 485 447 560 489 l 485 442 q 526 408 504 428 q 565 364 547 389 q 593 308 582 339 q 604 242 604 276 q 580 134 604 182 q 515 53 556 86 q 422 1 475 19 q 308 -17 368 -17 q 213 -3 260 -17 q 131 40 167 11 q 72 112 94 68 q 49 214 49 156 z "},"9":{"ha":667,"x_min":25,"x_max":632,"o":"m 340 429 q 378 435 357 429 q 425 453 400 440 q 477 487 450 465 q 531 542 504 508 q 532 573 532 557 q 532 606 532 589 q 492 760 532 701 q 381 819 451 819 q 310 800 343 819 q 252 749 276 781 q 214 678 228 718 q 200 596 200 638 q 235 474 200 518 q 340 429 271 429 m 97 153 q 151 93 121 114 q 225 72 181 72 q 324 99 276 72 q 410 176 371 126 q 477 294 449 225 q 519 450 506 364 q 417 374 474 399 q 317 350 361 350 q 158 411 217 350 q 100 581 100 472 q 122 704 100 646 q 182 807 143 763 q 273 877 221 851 q 386 903 325 903 q 489 881 443 903 q 567 819 535 858 q 615 724 599 779 q 632 603 632 668 q 601 353 632 467 q 514 158 569 240 q 383 29 458 75 q 218 -17 307 -17 q 99 17 146 -17 q 25 96 53 51 l 97 153 z "},"\u0000":{"ha":0,"x_min":0,"x_max":0,"o":""},"\r":{"ha":267,"x_min":0,"x_max":0,"o":""}," ":{"ha":267,"x_min":0,"x_max":0,"o":""},"A":{"ha":708,"x_min":-74,"x_max":651,"o":"m 506 368 l 492 524 q 478 669 485 596 q 467 821 472 742 l 461 821 q 390 670 425 742 q 315 524 354 599 l 235 368 l 506 368 m 514 285 l 192 285 l 46 0 l -74 0 l 421 911 l 546 911 l 651 0 l 539 0 l 514 285 z "},"B":{"ha":810,"x_min":49,"x_max":756,"o":"m 231 911 l 474 911 q 681 860 606 911 q 756 710 756 810 q 738 626 756 664 q 692 558 721 588 q 626 510 663 529 q 553 482 590 490 l 551 476 q 671 415 622 460 q 719 292 719 369 q 691 160 719 215 q 611 70 663 106 q 490 17 560 35 q 340 0 421 0 l 49 0 l 231 911 m 390 519 q 583 568 521 519 q 646 694 646 617 q 599 792 646 757 q 447 826 551 826 l 321 826 l 260 519 l 390 519 m 331 85 q 538 132 461 85 q 614 286 614 179 q 560 398 614 356 q 406 440 507 440 l 244 440 l 172 85 l 331 85 z "},"C":{"ha":764,"x_min":79,"x_max":774,"o":"m 79 351 q 113 562 79 458 q 209 747 147 665 q 358 878 271 828 q 550 928 444 928 q 685 890 629 928 q 774 793 740 851 l 699 736 q 634 808 671 781 q 544 835 597 835 q 397 792 463 835 q 286 681 332 749 q 215 528 240 613 q 190 361 190 444 q 203 247 190 299 q 244 157 217 194 q 317 98 272 119 q 422 76 361 76 q 524 99 478 76 q 615 158 571 121 l 664 89 q 550 14 614 44 q 403 -17 486 -17 q 265 10 325 -17 q 163 86 204 38 q 101 202 122 135 q 79 351 79 269 z "},"D":{"ha":822,"x_min":49,"x_max":786,"o":"m 231 911 l 400 911 q 688 817 590 911 q 786 556 786 724 q 752 329 786 432 q 655 153 718 226 q 500 40 592 81 q 293 0 408 0 l 49 0 l 231 911 m 293 89 q 453 123 382 89 q 574 217 524 157 q 650 363 624 278 q 676 549 676 447 q 606 751 676 679 q 396 824 535 824 l 321 824 l 174 89 l 293 89 z "},"E":{"ha":699,"x_min":49,"x_max":733,"o":"m 231 911 l 733 911 l 715 821 l 319 821 l 261 525 l 596 525 l 576 433 l 244 433 l 174 92 l 582 92 l 563 0 l 49 0 l 231 911 z "},"F":{"ha":657,"x_min":49,"x_max":733,"o":"m 231 911 l 733 911 l 715 821 l 319 821 l 257 504 l 592 504 l 574 413 l 240 413 l 157 0 l 49 0 l 231 911 z "},"G":{"ha":817,"x_min":79,"x_max":793,"o":"m 79 351 q 113 563 79 460 q 210 748 147 667 q 362 878 272 829 q 564 928 451 928 q 702 890 646 928 q 793 793 758 851 l 717 736 q 652 808 690 781 q 558 835 614 835 q 404 792 472 835 q 288 681 336 749 q 215 528 240 613 q 190 361 190 444 q 203 248 190 300 q 246 157 217 196 q 321 97 275 118 q 432 75 367 75 q 521 91 482 75 q 588 131 560 107 l 639 382 l 450 382 l 468 471 l 754 471 l 675 76 q 560 9 625 35 q 417 -17 496 -17 q 272 10 335 -17 q 165 84 208 36 q 101 200 122 132 q 79 351 79 268 z "},"H":{"ha":864,"x_min":49,"x_max":857,"o":"m 231 911 l 339 911 l 261 526 l 672 526 l 750 911 l 857 911 l 675 0 l 567 0 l 654 433 l 243 433 l 157 0 l 49 0 l 231 911 z "},"I":{"ha":350,"x_min":49,"x_max":339,"o":"m 231 911 l 339 911 l 157 0 l 49 0 l 231 911 z "},"J":{"ha":633,"x_min":-3,"x_max":633,"o":"m 503 256 q 468 147 492 197 q 410 60 444 97 q 328 3 375 24 q 221 -17 281 -17 q 83 22 139 -17 q -3 124 26 60 l 68 183 q 126 105 88 133 q 224 76 165 76 q 336 128 293 76 q 397 271 379 179 l 525 911 l 633 911 l 503 256 l 503 256 z "},"K":{"ha":776,"x_min":49,"x_max":832,"o":"m 231 911 l 339 911 l 249 461 l 253 461 l 710 911 l 832 911 l 490 561 l 697 0 l 585 0 l 410 492 l 219 306 l 157 0 l 49 0 l 231 911 z "},"L":{"ha":642,"x_min":49,"x_max":558,"o":"m 231 911 l 339 911 l 175 92 l 558 92 l 540 0 l 49 0 l 231 911 z "},"M":{"ha":979,"x_min":49,"x_max":972,"o":"m 231 911 l 360 911 l 439 419 l 469 231 l 475 231 l 572 419 l 843 911 l 972 911 l 790 0 l 686 0 l 792 514 q 822 649 804 576 q 857 782 840 722 l 851 782 l 742 579 l 474 96 l 413 96 l 328 579 l 297 782 l 292 782 q 274 648 283 719 q 253 514 264 576 l 150 0 l 49 0 l 231 911 z "},"N":{"ha":860,"x_min":49,"x_max":853,"o":"m 231 911 l 339 911 l 547 328 l 606 138 l 611 138 q 628 281 619 206 q 653 428 638 357 l 749 911 l 853 911 l 671 0 l 564 0 l 358 582 l 299 778 l 293 778 q 274 633 285 707 q 250 490 264 560 l 153 0 l 49 0 l 231 911 z "},"O":{"ha":879,"x_min":83,"x_max":842,"o":"m 399 -17 q 263 10 322 -17 q 165 88 204 38 q 104 208 125 138 q 83 365 83 279 q 116 570 83 469 q 207 751 149 671 q 347 879 265 831 q 526 928 428 928 q 662 901 603 928 q 760 824 721 874 q 821 703 800 774 q 842 547 842 633 q 809 342 842 443 q 718 160 776 240 q 578 32 660 81 q 399 -17 496 -17 m 521 835 q 387 793 447 835 q 283 685 326 751 q 217 536 240 618 q 193 374 193 454 q 206 252 193 307 q 244 158 218 197 q 310 98 269 119 q 404 76 350 76 q 538 119 478 76 q 642 228 599 161 q 708 376 685 294 q 732 538 732 458 q 681 753 732 672 q 521 835 629 835 z "},"P":{"ha":764,"x_min":49,"x_max":774,"o":"m 231 911 l 488 911 q 604 899 551 911 q 694 859 657 886 q 753 790 732 832 q 774 689 774 749 q 744 544 774 606 q 661 444 714 483 q 535 385 608 404 q 375 367 463 367 l 229 367 l 157 0 l 49 0 l 231 911 m 379 454 q 594 510 521 454 q 667 675 667 565 q 614 790 667 754 q 461 825 561 825 l 321 825 l 247 454 l 379 454 z "},"Q":{"ha":879,"x_min":83,"x_max":842,"o":"m 193 374 q 206 252 193 307 q 244 158 218 197 q 310 98 269 119 q 404 76 350 76 q 538 119 478 76 q 642 228 599 161 q 708 376 685 294 q 732 538 732 458 q 681 753 732 672 q 521 835 629 835 q 387 793 447 835 q 283 685 326 751 q 217 536 240 618 q 193 374 193 454 m 728 -210 q 638 -225 682 -225 q 438 -173 521 -225 q 319 -8 354 -121 q 143 117 203 18 q 83 365 83 215 q 116 570 83 469 q 207 751 149 671 q 347 879 265 831 q 526 928 428 928 q 662 901 603 928 q 760 824 721 874 q 821 703 800 774 q 842 547 842 633 q 812 349 842 447 q 728 174 782 251 q 598 44 674 96 q 431 -15 522 -7 q 513 -106 454 -76 q 644 -135 571 -135 q 683 -132 665 -135 q 721 -125 701 -129 l 728 -210 z "},"R":{"ha":771,"x_min":49,"x_max":765,"o":"m 389 474 q 589 531 519 474 q 658 685 658 588 q 606 792 658 760 q 454 825 554 825 l 321 825 l 251 474 l 389 474 m 481 911 q 597 899 544 911 q 686 862 649 888 q 744 796 724 836 q 765 699 765 756 q 745 585 765 636 q 689 495 725 533 q 604 432 653 457 q 497 396 556 407 l 657 0 l 542 0 l 392 386 l 233 386 l 157 0 l 49 0 l 231 911 l 481 911 z "},"S":{"ha":703,"x_min":17,"x_max":708,"o":"m 96 204 q 195 109 136 143 q 331 75 254 75 q 408 88 372 75 q 470 122 444 100 q 511 176 496 144 q 526 247 526 208 q 495 331 526 297 q 413 397 464 365 l 307 461 q 208 547 249 497 q 167 675 167 597 q 188 772 167 726 q 247 853 210 818 q 337 908 285 888 q 450 928 389 928 q 599 892 532 928 q 708 800 665 856 l 638 736 q 553 806 601 778 q 442 835 506 835 q 372 822 403 835 q 320 789 342 810 q 288 742 299 768 q 276 688 276 715 q 310 602 276 635 q 394 539 344 569 l 500 476 q 602 388 567 438 q 638 263 638 339 q 614 150 638 201 q 549 62 590 99 q 449 4 507 25 q 321 -17 390 -17 q 149 23 226 -17 q 17 144 72 63 l 96 204 z "},"T":{"ha":708,"x_min":129,"x_max":785,"o":"m 393 818 l 129 818 l 147 911 l 785 911 l 767 818 l 501 818 l 339 0 l 231 0 l 393 818 z "},"U":{"ha":856,"x_min":110,"x_max":853,"o":"m 226 911 l 335 911 l 231 390 q 218 281 218 328 q 263 129 218 182 q 403 76 307 76 q 477 92 442 76 q 543 140 513 107 q 597 226 574 174 q 635 353 619 278 l 747 911 l 853 911 l 739 349 q 687 181 719 250 q 610 67 654 111 q 512 3 565 24 q 397 -17 458 -17 q 184 56 258 -17 q 110 271 110 128 q 113 333 110 300 q 124 400 117 365 l 226 911 z "},"V":{"ha":689,"x_min":114,"x_max":801,"o":"m 114 911 l 224 911 l 261 406 q 274 256 268 331 q 283 106 279 181 l 289 106 q 360 256 324 179 q 433 406 397 332 l 685 911 l 801 911 l 325 0 l 196 0 l 114 911 z "},"W":{"ha":1050,"x_min":132,"x_max":1128,"o":"m 144 911 l 256 911 l 242 410 q 235 263 238 336 q 228 114 233 189 l 233 114 q 299 263 265 189 q 363 410 332 336 l 590 911 l 689 911 l 701 410 q 703 263 703 338 q 703 114 703 189 l 708 114 q 766 263 736 189 q 824 410 796 336 l 1021 911 l 1128 911 l 753 0 l 615 0 l 606 557 q 606 662 606 607 q 610 771 607 717 l 604 771 q 562 664 585 717 q 515 557 539 611 l 267 0 l 132 0 l 144 911 z "},"X":{"ha":686,"x_min":-50,"x_max":758,"o":"m 300 472 l 150 911 l 267 911 l 344 669 q 363 608 354 638 q 382 542 371 578 l 386 542 q 433 608 410 575 q 478 674 457 642 l 644 911 l 758 911 l 429 464 l 592 0 l 475 0 l 392 256 q 370 326 381 290 q 349 397 360 361 l 344 397 q 292 323 317 361 q 243 250 267 285 l 65 0 l -50 0 l 300 472 z "},"Y":{"ha":640,"x_min":115,"x_max":753,"o":"m 264 356 l 115 911 l 226 911 l 289 649 q 312 551 301 599 q 335 451 322 504 l 340 451 q 402 551 372 503 q 465 650 432 600 l 638 911 l 753 911 l 372 356 l 300 0 l 193 0 l 264 356 z "},"Z":{"ha":711,"x_min":-1,"x_max":751,"o":"m 13 65 l 603 821 l 186 821 l 206 911 l 751 911 l 738 847 l 151 92 l 611 92 l 590 0 l -1 0 l 13 65 z "},"a":{"ha":746,"x_min":54,"x_max":700,"o":"m 54 228 q 85 410 54 325 q 167 557 115 494 q 283 656 218 619 q 419 692 349 692 q 516 664 474 692 q 582 590 558 636 l 588 590 l 614 675 l 700 675 l 565 0 l 478 0 l 489 100 l 483 100 q 374 15 435 47 q 249 -17 313 -17 q 107 46 160 -17 q 54 228 54 108 m 288 72 q 395 103 340 72 q 500 201 450 135 l 561 503 q 497 579 532 556 q 424 603 463 603 q 326 573 374 603 q 243 493 279 543 q 185 378 207 443 q 164 244 164 314 q 197 115 164 157 q 288 72 231 72 z "},"b":{"ha":744,"x_min":43,"x_max":689,"o":"m 43 0 l 240 989 l 347 989 l 293 725 l 263 592 l 265 592 q 374 662 315 632 q 494 692 432 692 q 636 629 583 692 q 689 447 689 567 q 658 265 689 350 q 577 118 628 181 q 460 19 526 56 q 325 -17 394 -17 q 228 11 271 -17 q 163 85 186 39 l 158 85 l 131 0 l 43 0 m 456 603 q 352 574 408 603 q 247 493 296 544 l 183 172 q 246 96 211 119 q 321 72 281 72 q 418 102 371 72 q 501 182 465 132 q 558 297 536 232 q 579 432 579 361 q 547 560 579 518 q 456 603 514 603 z "},"c":{"ha":604,"x_min":51,"x_max":603,"o":"m 51 254 q 83 428 51 349 q 166 567 114 508 q 286 658 218 625 q 428 692 354 692 q 531 668 489 692 q 603 610 572 644 l 540 543 q 488 590 514 575 q 421 604 461 604 q 324 576 371 604 q 240 502 276 549 q 181 393 203 456 q 160 261 160 331 q 199 121 160 169 q 319 72 239 72 q 401 90 364 72 q 469 132 438 108 l 517 63 q 428 9 481 35 q 300 -17 375 -17 q 120 53 189 -17 q 51 254 51 124 z "},"d":{"ha":743,"x_min":54,"x_max":765,"o":"m 606 725 l 658 989 l 765 989 l 565 0 l 478 0 l 489 100 l 483 100 q 374 15 435 47 q 249 -17 313 -17 q 107 46 160 -17 q 54 228 54 108 q 85 410 54 325 q 167 557 115 494 q 283 656 218 619 q 419 692 349 692 q 514 665 474 692 q 579 593 554 638 l 583 593 l 606 725 m 288 72 q 394 103 340 72 q 500 201 449 135 l 561 503 q 497 579 532 556 q 424 603 463 603 q 326 573 374 603 q 243 493 279 543 q 185 378 207 443 q 164 244 164 314 q 197 115 164 157 q 288 72 231 72 z "},"e":{"ha":668,"x_min":51,"x_max":621,"o":"m 51 265 q 83 440 51 361 q 166 574 115 518 q 281 661 217 631 q 413 692 346 692 q 509 673 469 692 q 574 622 549 654 q 610 544 599 589 q 621 447 621 499 q 613 371 621 407 q 597 315 604 335 l 158 315 q 160 203 149 250 q 197 126 171 157 q 260 82 222 96 q 342 68 297 68 q 422 85 382 68 q 493 126 461 103 l 535 56 q 439 5 494 26 q 317 -17 383 -17 q 124 56 196 -17 q 51 265 51 129 m 524 388 q 528 421 526 404 q 531 457 531 438 q 524 513 531 486 q 501 561 517 540 q 461 594 486 582 q 400 607 436 607 q 327 592 363 607 q 261 547 292 576 q 206 478 231 518 q 169 388 182 438 l 524 388 z "},"f":{"ha":392,"x_min":60,"x_max":551,"o":"m 106 668 l 196 675 l 218 788 q 292 948 239 890 q 432 1006 346 1006 q 497 997 468 1006 q 551 972 526 988 l 514 896 q 481 913 499 906 q 439 919 463 919 q 365 885 393 919 q 325 790 336 850 l 301 675 l 438 675 l 421 589 l 283 589 l 165 0 l 60 0 l 178 589 l 90 589 l 106 668 z "},"g":{"ha":738,"x_min":-3,"x_max":692,"o":"m 692 675 l 550 -32 q 442 -239 522 -167 q 233 -311 361 -311 q 106 -285 165 -311 q -3 -218 46 -258 l 47 -144 q 133 -201 86 -178 q 238 -225 181 -225 q 376 -170 325 -225 q 450 -24 428 -115 l 483 115 l 479 115 q 372 37 429 67 q 250 7 315 7 q 109 67 164 7 q 54 244 54 126 q 84 419 54 338 q 164 560 114 500 q 278 656 214 621 q 411 692 343 692 q 507 664 464 692 q 574 590 550 636 l 578 590 l 604 675 l 692 675 m 285 96 q 389 126 333 96 q 493 214 444 156 l 553 503 q 488 579 521 556 q 415 603 454 603 q 321 574 367 603 q 240 498 275 546 q 185 388 206 450 q 164 260 164 326 q 196 136 164 176 q 285 96 228 96 z "},"h":{"ha":721,"x_min":43,"x_max":656,"o":"m 240 989 l 347 989 l 281 663 l 258 578 l 264 578 q 378 659 322 626 q 496 692 433 692 q 619 647 582 692 q 656 524 656 603 q 653 479 656 500 q 644 431 651 458 l 558 0 l 453 0 l 536 417 q 544 461 542 444 q 547 496 547 478 q 524 574 547 547 q 447 600 500 600 q 358 571 407 600 q 244 478 308 542 l 149 0 l 43 0 l 240 989 z "},"i":{"ha":329,"x_min":43,"x_max":349,"o":"m 178 675 l 285 675 l 149 0 l 43 0 l 178 675 m 268 815 q 220 831 240 815 q 200 878 200 847 q 224 935 200 913 q 281 958 249 958 q 328 942 308 958 q 349 894 349 925 q 324 838 349 860 q 268 815 300 815 z "},"j":{"ha":331,"x_min":-172,"x_max":349,"o":"m 132 -85 q 66 -242 113 -182 q -68 -301 19 -301 q -124 -294 -100 -301 q -172 -275 -149 -287 l -137 -196 q -110 -209 -124 -204 q -74 -214 -96 -214 q -12 -181 -35 -214 q 25 -86 11 -147 l 179 675 l 286 675 l 132 -85 m 268 815 q 222 831 242 815 q 201 878 201 847 q 225 935 201 913 q 282 958 249 958 q 328 942 308 958 q 349 894 349 925 q 324 838 349 860 q 268 815 300 815 z "},"k":{"ha":661,"x_min":43,"x_max":685,"o":"m 240 989 l 347 989 l 214 318 l 217 318 l 563 675 l 685 675 l 415 393 l 578 0 l 469 0 l 340 329 l 185 171 l 149 0 l 43 0 l 240 989 z "},"l":{"ha":344,"x_min":61,"x_max":347,"o":"m 240 989 l 347 989 l 174 124 q 171 107 171 113 q 171 97 171 101 q 194 72 171 72 q 203 73 199 72 q 217 76 207 74 l 218 -6 q 189 -14 204 -11 q 151 -17 174 -17 q 84 6 107 -17 q 61 71 61 29 q 69 129 61 93 l 240 989 z "},"m":{"ha":1110,"x_min":43,"x_max":1036,"o":"m 176 675 l 264 675 l 254 574 l 260 574 q 371 658 313 624 q 482 692 429 692 q 550 681 522 692 q 596 653 578 671 q 624 612 614 636 q 638 560 633 588 q 763 657 703 622 q 876 692 824 692 q 999 647 961 692 q 1036 524 1036 603 q 1033 479 1036 500 q 1025 431 1031 458 l 939 0 l 832 0 l 917 417 q 925 461 922 444 q 928 496 928 478 q 829 600 928 600 q 750 571 800 600 q 639 478 700 542 l 543 0 l 438 0 l 521 417 q 529 461 526 444 q 532 496 532 478 q 435 600 532 600 q 354 571 404 600 q 244 478 304 542 l 149 0 l 43 0 l 176 675 z "},"n":{"ha":729,"x_min":43,"x_max":656,"o":"m 176 675 l 264 675 l 254 574 l 260 574 q 375 658 318 624 q 496 692 432 692 q 619 647 582 692 q 656 524 656 603 q 653 479 656 500 q 644 431 651 458 l 558 0 l 453 0 l 536 417 q 544 461 542 444 q 547 496 547 478 q 524 574 547 547 q 447 600 500 600 q 358 571 407 600 q 244 478 308 542 l 149 0 l 43 0 l 176 675 z "},"o":{"ha":715,"x_min":54,"x_max":660,"o":"m 294 -17 q 119 56 185 -17 q 54 254 54 128 q 85 431 54 350 q 167 569 115 511 q 283 659 218 626 q 418 692 349 692 q 594 619 528 692 q 660 421 660 547 q 628 244 660 325 q 547 106 597 164 q 430 16 496 49 q 294 -17 364 -17 m 407 604 q 317 577 361 604 q 238 503 272 550 q 182 394 203 457 q 161 261 161 332 q 198 121 161 169 q 306 72 235 72 q 397 99 353 72 q 475 172 440 126 q 531 281 510 218 q 551 414 551 343 q 515 555 551 506 q 407 604 478 604 z "},"p":{"ha":743,"x_min":-14,"x_max":689,"o":"m 135 -64 l 92 -285 l -14 -285 l 178 675 l 265 675 l 257 586 l 261 586 q 372 660 313 629 q 494 692 431 692 q 636 628 583 692 q 689 447 689 565 q 658 265 689 350 q 577 118 628 181 q 460 19 526 56 q 325 -17 394 -17 q 231 10 272 -17 q 163 81 189 38 l 160 81 l 135 -64 m 456 603 q 352 574 408 603 q 247 492 296 544 l 183 169 q 246 94 211 117 q 321 72 281 72 q 418 102 371 72 q 501 182 465 132 q 558 297 536 232 q 579 432 579 361 q 547 560 579 518 q 456 603 514 603 z "},"q":{"ha":746,"x_min":54,"x_max":700,"o":"m 489 101 l 486 101 q 374 17 436 50 q 249 -17 313 -17 q 107 46 160 -17 q 54 228 54 108 q 85 410 54 325 q 167 557 115 494 q 283 656 218 619 q 419 692 349 692 q 516 664 474 692 q 582 590 558 636 l 588 590 l 614 675 l 700 675 l 508 -285 l 401 -285 l 447 -64 l 489 101 m 288 72 q 392 103 335 72 q 500 201 449 135 l 561 503 q 497 579 532 556 q 424 603 463 603 q 326 573 374 603 q 243 493 279 543 q 185 378 207 443 q 164 244 164 314 q 197 115 164 157 q 288 72 231 72 z "},"r":{"ha":475,"x_min":43,"x_max":528,"o":"m 176 675 l 264 675 l 249 546 l 254 546 q 348 650 294 608 q 464 692 401 692 q 528 679 499 692 l 490 585 q 432 596 468 596 q 329 553 382 596 q 233 426 276 510 l 149 0 l 43 0 l 176 675 z "},"s":{"ha":558,"x_min":-6,"x_max":531,"o":"m 61 164 q 138 92 93 119 q 235 65 182 65 q 290 74 264 65 q 335 99 315 83 q 367 134 356 114 q 378 178 378 154 q 372 211 378 196 q 351 241 365 226 q 313 271 338 256 q 254 306 289 286 q 138 390 175 349 q 100 490 100 432 q 119 572 100 535 q 169 636 138 610 q 242 677 200 663 q 332 692 285 692 q 444 667 394 692 q 531 601 493 642 l 469 542 q 408 589 442 569 q 329 608 375 608 q 238 577 275 608 q 201 503 201 546 q 211 465 201 482 q 238 435 221 449 q 276 408 254 421 q 321 383 297 396 q 397 335 367 358 q 445 290 426 313 q 472 243 464 267 q 479 192 479 219 q 460 106 479 144 q 408 40 442 67 q 327 -2 374 13 q 226 -17 281 -17 q 159 -7 193 -17 q 94 20 125 3 q 37 61 63 38 q -6 111 11 85 l 61 164 z "},"t":{"ha":451,"x_min":83,"x_max":478,"o":"m 182 589 l 83 589 l 99 668 l 204 675 l 254 861 l 344 861 l 307 675 l 478 675 l 461 589 l 288 589 l 208 203 q 204 153 204 178 q 223 90 204 111 q 290 69 242 69 q 328 76 310 69 q 361 90 346 83 l 385 14 q 329 -7 361 3 q 257 -17 297 -17 q 182 -5 213 -17 q 132 27 151 7 q 104 74 113 47 q 96 133 96 101 q 98 172 96 154 q 103 208 100 189 l 182 589 z "},"u":{"ha":733,"x_min":78,"x_max":688,"o":"m 553 0 l 465 0 l 476 103 l 471 103 q 358 19 415 54 q 238 -17 300 -17 q 115 28 151 -17 q 78 151 78 74 q 80 196 78 175 q 89 244 82 217 l 175 675 l 282 675 l 197 258 q 189 214 192 231 q 186 179 186 197 q 210 101 186 128 q 286 75 233 75 q 375 104 326 75 q 486 197 424 133 l 582 675 l 688 675 l 553 0 z "},"v":{"ha":622,"x_min":82,"x_max":668,"o":"m 82 675 l 188 675 l 238 285 q 247 184 243 236 q 257 83 251 132 l 263 83 q 311 184 286 133 q 363 285 336 235 l 561 675 l 668 675 l 308 0 l 181 0 l 82 675 z "},"w":{"ha":982,"x_min":97,"x_max":988,"o":"m 97 675 l 203 675 l 225 278 q 227 183 226 229 q 229 89 228 136 l 235 89 q 274 183 256 136 q 315 278 293 229 l 493 675 l 597 675 l 621 278 q 624 183 624 229 q 628 89 625 136 l 633 89 q 671 183 653 136 q 711 278 689 229 l 888 675 l 988 675 l 681 0 l 549 0 l 529 369 q 527 468 528 418 q 525 568 526 518 l 519 568 q 478 468 499 518 q 438 369 458 418 l 274 0 l 146 0 l 97 675 z "},"x":{"ha":596,"x_min":-61,"x_max":647,"o":"m 242 358 l 115 675 l 224 675 l 282 525 q 302 467 293 494 q 322 411 311 440 l 328 411 q 371 467 349 439 q 414 525 393 496 l 532 675 l 647 675 l 369 335 l 507 0 l 397 0 l 336 158 q 313 220 325 189 q 288 283 301 251 l 282 283 q 236 222 260 251 q 186 160 213 192 l 56 0 l -61 0 l 242 358 z "},"y":{"ha":622,"x_min":-86,"x_max":671,"o":"m -51 -192 q -1 -204 -26 -204 q 95 -162 50 -204 q 175 -50 140 -121 l 200 -1 l 85 675 l 190 675 l 243 296 q 256 197 250 250 q 265 94 261 143 l 271 94 q 320 195 294 143 q 371 296 346 247 l 565 675 l 671 675 l 274 -57 q 218 -149 247 -107 q 155 -223 189 -192 q 81 -272 121 -254 q -8 -290 40 -290 q -45 -286 -24 -290 q -86 -271 -67 -282 l -51 -192 l -51 -192 z "},"z":{"ha":569,"x_min":-14,"x_max":597,"o":"m -3 61 l 446 589 l 139 589 l 157 675 l 597 675 l 586 613 l 138 86 l 490 86 l 474 0 l -14 0 l -3 61 z "},"À":{"ha":708,"x_min":-74,"x_max":651,"o":"m 506 368 l 492 524 q 478 669 485 596 q 467 821 472 742 l 461 821 q 390 670 425 742 q 315 524 354 599 l 235 368 l 506 368 m 514 285 l 192 285 l 46 0 l -74 0 l 421 911 l 546 911 l 651 0 l 539 0 l 514 285 m 335 1133 l 449 1133 l 543 981 l 458 981 l 335 1133 z "},"Á":{"ha":708,"x_min":-74,"x_max":678,"o":"m 506 368 l 492 524 q 478 669 485 596 q 467 821 472 742 l 461 821 q 390 670 425 742 q 315 524 354 599 l 235 368 l 506 368 m 514 285 l 192 285 l 46 0 l -74 0 l 421 911 l 546 911 l 651 0 l 539 0 l 514 285 m 557 1133 l 678 1133 l 500 981 l 408 981 l 557 1133 z "},"Â":{"ha":708,"x_min":-74,"x_max":656,"o":"m 506 368 l 492 524 q 478 669 485 596 q 467 821 472 742 l 461 821 q 390 670 425 742 q 315 524 354 599 l 235 368 l 506 368 m 514 285 l 192 285 l 46 0 l -74 0 l 421 911 l 546 911 l 651 0 l 539 0 l 514 285 m 457 1133 l 557 1133 l 656 981 l 574 981 l 503 1078 l 499 1078 l 390 981 l 299 981 l 457 1133 z "},"Ã":{"ha":708,"x_min":-74,"x_max":697,"o":"m 506 368 l 492 524 q 478 669 485 596 q 467 821 472 742 l 461 821 q 390 670 425 742 q 315 524 354 599 l 235 368 l 506 368 m 514 285 l 192 285 l 46 0 l -74 0 l 421 911 l 546 911 l 651 0 l 539 0 l 514 285 m 286 988 q 307 1044 293 1018 q 339 1091 321 1071 q 378 1122 357 1111 q 422 1133 399 1133 q 467 1122 449 1133 q 501 1095 485 1110 q 532 1069 517 1081 q 568 1057 547 1057 q 607 1076 590 1057 q 636 1131 624 1096 l 697 1131 q 644 1026 682 1068 q 560 985 607 985 q 515 997 533 985 q 482 1023 497 1008 q 451 1050 467 1038 q 415 1063 436 1063 q 376 1042 393 1063 q 347 988 360 1022 l 286 988 z "},"Ä":{"ha":708,"x_min":-74,"x_max":671,"o":"m 506 368 l 492 524 q 478 669 485 596 q 467 821 472 742 l 461 821 q 390 670 425 742 q 315 524 354 599 l 235 368 l 506 368 m 514 285 l 192 285 l 46 0 l -74 0 l 421 911 l 546 911 l 651 0 l 539 0 l 514 285 m 371 993 q 331 1008 347 993 q 315 1049 315 1022 q 336 1102 315 1079 q 386 1125 357 1125 q 426 1110 410 1125 q 442 1068 442 1096 q 421 1016 442 1039 q 371 993 400 993 m 601 993 q 562 1008 578 993 q 546 1049 546 1022 q 567 1102 546 1079 q 617 1125 588 1125 q 656 1110 640 1125 q 671 1068 671 1096 q 651 1016 671 1039 q 601 993 631 993 z "},"Ā":{"ha":708,"x_min":-74,"x_max":663,"o":"m 506 368 l 492 524 q 478 669 485 596 q 467 821 472 742 l 461 821 q 390 670 425 742 q 315 524 354 599 l 235 368 l 506 368 m 514 285 l 192 285 l 46 0 l -74 0 l 421 911 l 546 911 l 651 0 l 539 0 l 514 285 m 335 1088 l 663 1088 l 647 1013 l 319 1013 l 335 1088 z "},"Ă":{"ha":708,"x_min":-74,"x_max":668,"o":"m 506 368 l 492 524 q 478 669 485 596 q 467 821 472 742 l 461 821 q 390 670 425 742 q 315 524 354 599 l 235 368 l 506 368 m 514 285 l 192 285 l 46 0 l -74 0 l 421 911 l 546 911 l 651 0 l 539 0 l 514 285 m 478 981 q 414 994 440 981 q 372 1028 388 1007 q 349 1078 356 1050 q 346 1133 343 1106 l 408 1133 q 424 1070 406 1097 q 489 1043 443 1043 q 561 1071 533 1043 q 603 1133 589 1099 l 668 1133 q 642 1076 658 1104 q 603 1028 626 1049 q 549 994 581 1007 q 478 981 518 981 z "},"Å":{"ha":708,"x_min":-74,"x_max":651,"o":"m 506 368 l 492 524 q 478 669 485 596 q 467 821 472 742 l 461 821 q 390 670 425 742 q 315 524 354 599 l 235 368 l 506 368 m 514 285 l 192 285 l 46 0 l -74 0 l 421 911 l 546 911 l 651 0 l 539 0 l 514 285 m 488 968 q 405 994 439 968 q 371 1078 371 1021 q 382 1132 371 1107 q 412 1176 393 1157 q 456 1205 431 1194 q 508 1215 481 1215 q 591 1189 557 1215 q 625 1106 625 1163 q 614 1051 625 1076 q 584 1008 603 1026 q 540 978 565 989 q 488 968 515 968 m 506 1165 q 453 1142 475 1165 q 431 1083 431 1118 q 447 1036 431 1054 q 490 1018 463 1018 q 543 1042 521 1018 q 565 1101 565 1065 q 549 1148 565 1131 q 506 1165 533 1165 z "},"Ǎ":{"ha":708,"x_min":-74,"x_max":688,"o":"m 506 368 l 492 524 q 478 669 485 596 q 467 821 472 742 l 461 821 q 390 670 425 742 q 315 524 354 599 l 235 368 l 506 368 m 514 285 l 192 285 l 46 0 l -74 0 l 421 911 l 546 911 l 651 0 l 539 0 l 514 285 m 529 981 l 429 981 l 331 1133 l 413 1133 l 483 1036 l 488 1036 l 596 1133 l 688 1133 l 529 981 z "},"Ạ":{"ha":708,"x_min":-74,"x_max":651,"o":"m 506 368 l 492 524 q 478 669 485 596 q 467 821 472 742 l 461 821 q 390 670 425 742 q 315 524 354 599 l 235 368 l 506 368 m 514 285 l 192 285 l 46 0 l -74 0 l 421 911 l 546 911 l 651 0 l 539 0 l 514 285 m 265 -285 q 217 -269 238 -285 q 197 -222 197 -253 q 222 -165 197 -187 q 278 -142 246 -142 q 326 -158 306 -142 q 346 -206 346 -175 q 322 -262 346 -240 q 265 -285 297 -285 z "},"Ả":{"ha":708,"x_min":-74,"x_max":651,"o":"m 506 368 l 492 524 q 478 669 485 596 q 467 821 472 742 l 461 821 q 390 670 425 742 q 315 524 354 599 l 235 368 l 506 368 m 514 285 l 192 285 l 46 0 l -74 0 l 421 911 l 546 911 l 651 0 l 539 0 l 514 285 m 432 1207 q 558 1176 521 1203 q 596 1111 596 1150 q 547 1016 596 1049 q 425 968 497 983 l 415 1017 q 486 1047 461 1031 q 511 1092 511 1064 q 490 1128 511 1115 q 411 1147 469 1142 l 432 1207 z "},"Ấ":{"ha":708,"x_min":-74,"x_max":832,"o":"m 506 368 l 492 524 q 478 669 485 596 q 467 821 472 742 l 461 821 q 390 670 425 742 q 315 524 354 599 l 235 368 l 506 368 m 514 285 l 192 285 l 46 0 l -74 0 l 421 911 l 546 911 l 651 0 l 539 0 l 514 285 m 743 1221 l 832 1221 l 694 1067 l 626 1067 l 743 1221 m 464 1125 l 556 1125 l 651 981 l 571 981 l 504 1069 l 499 1069 l 396 981 l 313 981 l 464 1125 z "},"Ầ":{"ha":708,"x_min":-74,"x_max":746,"o":"m 506 368 l 492 524 q 478 669 485 596 q 467 821 472 742 l 461 821 q 390 670 425 742 q 315 524 354 599 l 235 368 l 506 368 m 514 285 l 192 285 l 46 0 l -74 0 l 421 911 l 546 911 l 651 0 l 539 0 l 514 285 m 746 1067 l 681 1067 l 594 1221 l 682 1221 l 746 1067 m 464 1125 l 556 1125 l 651 981 l 571 981 l 504 1069 l 499 1069 l 396 981 l 313 981 l 464 1125 z "},"Ẩ":{"ha":708,"x_min":-74,"x_max":797,"o":"m 506 368 l 492 524 q 478 669 485 596 q 467 821 472 742 l 461 821 q 390 670 425 742 q 315 524 354 599 l 235 368 l 506 368 m 514 285 l 192 285 l 46 0 l -74 0 l 421 911 l 546 911 l 651 0 l 539 0 l 514 285 m 464 1125 l 556 1125 l 651 981 l 571 981 l 504 1069 l 499 1069 l 396 981 l 313 981 l 464 1125 m 654 1256 q 764 1231 731 1254 q 797 1174 797 1207 q 758 1088 797 1117 q 651 1046 718 1058 l 643 1089 q 722 1158 722 1110 q 703 1190 722 1178 q 636 1204 685 1201 l 654 1256 z "},"Ẫ":{"ha":708,"x_min":-74,"x_max":722,"o":"m 506 368 l 492 524 q 478 669 485 596 q 467 821 472 742 l 461 821 q 390 670 425 742 q 315 524 354 599 l 235 368 l 506 368 m 514 285 l 192 285 l 46 0 l -74 0 l 421 911 l 546 911 l 651 0 l 539 0 l 514 285 m 464 1125 l 556 1125 l 651 981 l 571 981 l 504 1069 l 499 1069 l 396 981 l 313 981 l 464 1125 m 342 1172 q 390 1267 357 1231 q 467 1303 424 1303 q 508 1292 490 1303 q 540 1268 525 1281 q 570 1244 556 1256 q 603 1233 585 1233 q 640 1251 625 1233 q 668 1301 656 1269 l 722 1301 q 673 1207 707 1243 q 597 1171 639 1171 q 556 1182 574 1171 q 524 1206 539 1193 q 494 1229 508 1218 q 461 1240 479 1240 q 396 1172 419 1240 l 342 1172 z "},"Ậ":{"ha":708,"x_min":-74,"x_max":656,"o":"m 506 368 l 492 524 q 478 669 485 596 q 467 821 472 742 l 461 821 q 390 670 425 742 q 315 524 354 599 l 235 368 l 506 368 m 514 285 l 192 285 l 46 0 l -74 0 l 421 911 l 546 911 l 651 0 l 539 0 l 514 285 m 457 1133 l 557 1133 l 656 981 l 574 981 l 503 1078 l 499 1078 l 390 981 l 299 981 l 457 1133 m 265 -285 q 217 -269 238 -285 q 197 -222 197 -253 q 222 -165 197 -187 q 278 -142 246 -142 q 326 -158 306 -142 q 346 -206 346 -175 q 322 -262 346 -240 q 265 -285 297 -285 z "},"Ắ":{"ha":708,"x_min":-74,"x_max":669,"o":"m 506 368 l 492 524 q 478 669 485 596 q 467 821 472 742 l 461 821 q 390 670 425 742 q 315 524 354 599 l 235 368 l 506 368 m 514 285 l 192 285 l 46 0 l -74 0 l 421 911 l 546 911 l 651 0 l 539 0 l 514 285 m 579 1256 l 669 1256 l 513 1111 l 450 1111 l 579 1256 m 479 981 q 415 993 442 981 q 373 1026 389 1006 q 351 1074 357 1047 q 347 1129 344 1101 l 404 1129 q 423 1063 401 1089 q 489 1038 444 1038 q 566 1065 535 1038 q 610 1129 597 1092 l 669 1129 q 645 1074 661 1101 q 606 1026 629 1047 q 551 993 582 1006 q 479 981 519 981 z "},"Ằ":{"ha":708,"x_min":-74,"x_max":669,"o":"m 506 368 l 492 524 q 478 669 485 596 q 467 821 472 742 l 461 821 q 390 670 425 742 q 315 524 354 599 l 235 368 l 506 368 m 514 285 l 192 285 l 46 0 l -74 0 l 421 911 l 546 911 l 651 0 l 539 0 l 514 285 m 556 1111 l 494 1111 l 413 1256 l 499 1256 l 556 1111 m 479 981 q 415 993 442 981 q 373 1026 389 1006 q 351 1074 357 1047 q 347 1129 344 1101 l 404 1129 q 423 1063 401 1089 q 489 1038 444 1038 q 566 1065 535 1038 q 610 1129 597 1092 l 669 1129 q 645 1074 661 1101 q 606 1026 629 1047 q 551 993 582 1006 q 479 981 519 981 z "},"Ẳ":{"ha":708,"x_min":-74,"x_max":669,"o":"m 506 368 l 492 524 q 478 669 485 596 q 467 821 472 742 l 461 821 q 390 670 425 742 q 315 524 354 599 l 235 368 l 506 368 m 514 285 l 192 285 l 46 0 l -74 0 l 421 911 l 546 911 l 651 0 l 539 0 l 514 285 m 479 981 q 415 993 442 981 q 373 1026 389 1006 q 351 1074 357 1047 q 347 1129 344 1101 l 404 1129 q 423 1063 401 1089 q 489 1038 444 1038 q 566 1065 535 1038 q 610 1129 597 1092 l 669 1129 q 645 1074 661 1101 q 606 1026 629 1047 q 551 993 582 1006 q 479 981 519 981 m 469 1317 q 580 1292 547 1315 q 613 1236 613 1268 q 573 1149 613 1178 q 467 1107 533 1119 l 458 1150 q 538 1219 538 1171 q 519 1251 538 1239 q 451 1265 500 1263 l 469 1317 z "},"Ẵ":{"ha":708,"x_min":-74,"x_max":722,"o":"m 506 368 l 492 524 q 478 669 485 596 q 467 821 472 742 l 461 821 q 390 670 425 742 q 315 524 354 599 l 235 368 l 506 368 m 514 285 l 192 285 l 46 0 l -74 0 l 421 911 l 546 911 l 651 0 l 539 0 l 514 285 m 479 981 q 415 993 442 981 q 373 1026 389 1006 q 351 1074 357 1047 q 347 1129 344 1101 l 404 1129 q 423 1063 401 1089 q 489 1038 444 1038 q 566 1065 535 1038 q 610 1129 597 1092 l 669 1129 q 645 1074 661 1101 q 606 1026 629 1047 q 551 993 582 1006 q 479 981 519 981 m 342 1172 q 390 1267 357 1231 q 467 1303 424 1303 q 508 1292 490 1303 q 540 1268 525 1281 q 570 1244 556 1256 q 603 1233 585 1233 q 640 1251 625 1233 q 668 1301 656 1269 l 722 1301 q 673 1207 707 1243 q 597 1171 639 1171 q 556 1182 574 1171 q 524 1206 539 1193 q 494 1229 508 1218 q 461 1240 479 1240 q 396 1172 419 1240 l 342 1172 z "},"Ặ":{"ha":708,"x_min":-74,"x_max":668,"o":"m 506 368 l 492 524 q 478 669 485 596 q 467 821 472 742 l 461 821 q 390 670 425 742 q 315 524 354 599 l 235 368 l 506 368 m 514 285 l 192 285 l 46 0 l -74 0 l 421 911 l 546 911 l 651 0 l 539 0 l 514 285 m 478 981 q 414 994 440 981 q 372 1028 388 1007 q 349 1078 356 1050 q 346 1133 343 1106 l 408 1133 q 424 1070 406 1097 q 489 1043 443 1043 q 561 1071 533 1043 q 603 1133 589 1099 l 668 1133 q 642 1076 658 1104 q 603 1028 626 1049 q 549 994 581 1007 q 478 981 518 981 m 265 -285 q 217 -269 238 -285 q 197 -222 197 -253 q 222 -165 197 -187 q 278 -142 246 -142 q 326 -158 306 -142 q 346 -206 346 -175 q 322 -262 346 -240 q 265 -285 297 -285 z "},"Ą":{"ha":708,"x_min":-74,"x_max":651,"o":"m 506 368 l 492 524 q 478 669 485 596 q 467 821 472 742 l 461 821 q 390 670 425 742 q 315 524 354 599 l 235 368 l 506 368 m 651 0 q 550 -81 585 -37 q 515 -165 515 -125 q 530 -204 515 -190 q 565 -218 544 -218 q 615 -203 590 -218 l 639 -261 q 586 -285 615 -276 q 533 -293 557 -293 q 456 -269 486 -293 q 425 -197 425 -244 q 438 -139 425 -168 q 469 -84 450 -110 q 511 -37 488 -58 q 557 0 535 -15 l 539 0 l 514 285 l 192 285 l 46 0 l -74 0 l 421 911 l 546 911 l 651 0 z "},"Æ":{"ha":1115,"x_min":-46,"x_max":1150,"o":"m 646 829 l 642 829 q 538 678 589 751 q 435 528 488 604 l 318 356 l 551 356 l 646 829 m 751 821 l 693 525 l 1011 525 l 993 433 l 676 433 l 606 92 l 997 92 l 979 0 l 481 0 l 535 269 l 260 269 l 78 0 l -46 0 l 592 911 l 1150 911 l 1131 821 l 751 821 z "},"Ç":{"ha":764,"x_min":79,"x_max":774,"o":"m 79 351 q 113 562 79 458 q 209 747 147 665 q 358 878 271 828 q 550 928 444 928 q 685 890 629 928 q 774 793 740 851 l 699 736 q 634 808 671 781 q 544 835 597 835 q 397 792 463 835 q 286 681 332 749 q 215 528 240 613 q 190 361 190 444 q 203 247 190 299 q 244 157 217 194 q 317 98 272 119 q 422 76 361 76 q 524 99 478 76 q 615 158 571 121 l 664 89 q 550 14 614 44 q 403 -17 486 -17 q 265 10 325 -17 q 163 86 204 38 q 101 202 122 135 q 79 351 79 269 m 357 4 l 429 4 l 376 -74 q 420 -102 401 -83 q 439 -153 439 -121 q 422 -211 439 -186 q 375 -253 404 -236 q 308 -281 346 -271 q 231 -296 271 -292 l 225 -247 q 318 -218 281 -237 q 356 -164 356 -199 q 339 -128 356 -140 q 282 -104 322 -115 l 357 4 z "},"Ć":{"ha":764,"x_min":79,"x_max":774,"o":"m 79 351 q 113 562 79 458 q 209 747 147 665 q 358 878 271 828 q 550 928 444 928 q 685 890 629 928 q 774 793 740 851 l 699 736 q 634 808 671 781 q 544 835 597 835 q 397 792 463 835 q 286 681 332 749 q 215 528 240 613 q 190 361 190 444 q 203 247 190 299 q 244 157 217 194 q 317 98 272 119 q 422 76 361 76 q 524 99 478 76 q 615 158 571 121 l 664 89 q 550 14 614 44 q 403 -17 486 -17 q 265 10 325 -17 q 163 86 204 38 q 101 202 122 135 q 79 351 79 269 m 647 1133 l 768 1133 l 590 981 l 499 981 l 647 1133 z "},"Ĉ":{"ha":764,"x_min":79,"x_max":774,"o":"m 79 351 q 113 562 79 458 q 209 747 147 665 q 358 878 271 828 q 550 928 444 928 q 685 890 629 928 q 774 793 740 851 l 699 736 q 634 808 671 781 q 544 835 597 835 q 397 792 463 835 q 286 681 332 749 q 215 528 240 613 q 190 361 190 444 q 203 247 190 299 q 244 157 217 194 q 317 98 272 119 q 422 76 361 76 q 524 99 478 76 q 615 158 571 121 l 664 89 q 550 14 614 44 q 403 -17 486 -17 q 265 10 325 -17 q 163 86 204 38 q 101 202 122 135 q 79 351 79 269 m 547 1133 l 647 1133 l 746 981 l 664 981 l 593 1078 l 589 1078 l 481 981 l 389 981 l 547 1133 z "},"Č":{"ha":764,"x_min":79,"x_max":778,"o":"m 79 351 q 113 562 79 458 q 209 747 147 665 q 358 878 271 828 q 550 928 444 928 q 685 890 629 928 q 774 793 740 851 l 699 736 q 634 808 671 781 q 544 835 597 835 q 397 792 463 835 q 286 681 332 749 q 215 528 240 613 q 190 361 190 444 q 203 247 190 299 q 244 157 217 194 q 317 98 272 119 q 422 76 361 76 q 524 99 478 76 q 615 158 571 121 l 664 89 q 550 14 614 44 q 403 -17 486 -17 q 265 10 325 -17 q 163 86 204 38 q 101 202 122 135 q 79 351 79 269 m 619 981 l 519 981 l 421 1133 l 503 1133 l 574 1036 l 578 1036 l 686 1133 l 778 1133 l 619 981 z "},"Ċ":{"ha":764,"x_min":79,"x_max":774,"o":"m 79 351 q 113 562 79 458 q 209 747 147 665 q 358 878 271 828 q 550 928 444 928 q 685 890 629 928 q 774 793 740 851 l 699 736 q 634 808 671 781 q 544 835 597 835 q 397 792 463 835 q 286 681 332 749 q 215 528 240 613 q 190 361 190 444 q 203 247 190 299 q 244 157 217 194 q 317 98 272 119 q 422 76 361 76 q 524 99 478 76 q 615 158 571 121 l 664 89 q 550 14 614 44 q 403 -17 486 -17 q 265 10 325 -17 q 163 86 204 38 q 101 202 122 135 q 79 351 79 269 m 578 994 q 530 1010 550 994 q 510 1057 510 1026 q 534 1114 510 1090 q 590 1138 558 1138 q 638 1121 618 1138 q 658 1074 658 1104 q 634 1017 658 1039 q 578 994 610 994 z "},"Ď":{"ha":822,"x_min":49,"x_max":786,"o":"m 231 911 l 400 911 q 688 817 590 911 q 786 556 786 724 q 752 329 786 432 q 655 153 718 226 q 500 40 592 81 q 293 0 408 0 l 49 0 l 231 911 m 293 89 q 453 123 382 89 q 574 217 524 157 q 650 363 624 278 q 676 549 676 447 q 606 751 676 679 q 396 824 535 824 l 321 824 l 174 89 l 293 89 m 568 981 l 468 981 l 369 1133 l 451 1133 l 522 1036 l 526 1036 l 635 1133 l 726 1133 l 568 981 z "},"Ḍ":{"ha":822,"x_min":49,"x_max":786,"o":"m 231 911 l 400 911 q 688 817 590 911 q 786 556 786 724 q 752 329 786 432 q 655 153 718 226 q 500 40 592 81 q 293 0 408 0 l 49 0 l 231 911 m 293 89 q 453 123 382 89 q 574 217 524 157 q 650 363 624 278 q 676 549 676 447 q 606 751 676 679 q 396 824 535 824 l 321 824 l 174 89 l 293 89 m 319 -285 q 272 -269 292 -285 q 251 -222 251 -253 q 276 -165 251 -187 q 332 -142 300 -142 q 380 -158 360 -142 q 400 -206 400 -175 q 376 -262 400 -240 q 319 -285 351 -285 z "},"Ḏ":{"ha":822,"x_min":49,"x_max":786,"o":"m 231 911 l 400 911 q 688 817 590 911 q 786 556 786 724 q 752 329 786 432 q 655 153 718 226 q 500 40 592 81 q 293 0 408 0 l 49 0 l 231 911 m 293 89 q 453 123 382 89 q 574 217 524 157 q 650 363 624 278 q 676 549 676 447 q 606 751 676 679 q 396 824 535 824 l 321 824 l 174 89 l 293 89 m 174 -154 l 500 -154 l 486 -228 l 160 -228 l 174 -154 z "},"Đ":{"ha":847,"x_min":65,"x_max":811,"o":"m 318 89 q 478 123 407 89 q 599 217 549 157 q 675 363 649 278 q 701 549 701 447 q 631 751 701 679 q 421 824 560 824 l 346 824 l 283 511 l 492 511 l 478 450 l 271 450 l 199 89 l 318 89 m 425 911 q 713 817 615 911 q 811 556 811 724 q 777 329 811 432 q 680 153 743 226 q 525 40 617 81 q 318 0 433 0 l 74 0 l 164 450 l 65 450 l 78 507 l 175 511 l 256 911 l 425 911 z "},"È":{"ha":699,"x_min":49,"x_max":733,"o":"m 231 911 l 733 911 l 715 821 l 319 821 l 261 525 l 596 525 l 576 433 l 244 433 l 174 92 l 582 92 l 563 0 l 49 0 l 231 911 m 350 1133 l 464 1133 l 558 981 l 474 981 l 350 1133 z "},"É":{"ha":699,"x_min":49,"x_max":733,"o":"m 231 911 l 733 911 l 715 821 l 319 821 l 261 525 l 596 525 l 576 433 l 244 433 l 174 92 l 582 92 l 563 0 l 49 0 l 231 911 m 572 1133 l 693 1133 l 515 981 l 424 981 l 572 1133 z "},"Ê":{"ha":699,"x_min":49,"x_max":733,"o":"m 231 911 l 733 911 l 715 821 l 319 821 l 261 525 l 596 525 l 576 433 l 244 433 l 174 92 l 582 92 l 563 0 l 49 0 l 231 911 m 472 1133 l 572 1133 l 671 981 l 589 981 l 518 1078 l 514 1078 l 406 981 l 314 981 l 472 1133 z "},"Ě":{"ha":699,"x_min":49,"x_max":733,"o":"m 231 911 l 733 911 l 715 821 l 319 821 l 261 525 l 596 525 l 576 433 l 244 433 l 174 92 l 582 92 l 563 0 l 49 0 l 231 911 m 544 981 l 444 981 l 346 1133 l 428 1133 l 499 1036 l 503 1036 l 611 1133 l 703 1133 l 544 981 z "},"Ë":{"ha":699,"x_min":49,"x_max":733,"o":"m 231 911 l 733 911 l 715 821 l 319 821 l 261 525 l 596 525 l 576 433 l 244 433 l 174 92 l 582 92 l 563 0 l 49 0 l 231 911 m 386 993 q 347 1008 363 993 q 331 1049 331 1022 q 351 1102 331 1079 q 401 1125 372 1125 q 441 1110 425 1125 q 457 1068 457 1096 q 436 1016 457 1039 q 386 993 415 993 m 617 993 q 577 1008 593 993 q 561 1049 561 1022 q 582 1102 561 1079 q 632 1125 603 1125 q 671 1110 656 1125 q 686 1068 686 1096 q 666 1016 686 1039 q 617 993 646 993 z "},"Ē":{"ha":699,"x_min":49,"x_max":733,"o":"m 231 911 l 733 911 l 715 821 l 319 821 l 261 525 l 596 525 l 576 433 l 244 433 l 174 92 l 582 92 l 563 0 l 49 0 l 231 911 m 350 1088 l 678 1088 l 663 1013 l 335 1013 l 350 1088 z "},"Ĕ":{"ha":699,"x_min":49,"x_max":733,"o":"m 231 911 l 733 911 l 715 821 l 319 821 l 261 525 l 596 525 l 576 433 l 244 433 l 174 92 l 582 92 l 563 0 l 49 0 l 231 911 m 493 981 q 429 994 456 981 q 387 1028 403 1007 q 365 1078 371 1050 q 361 1133 358 1106 l 424 1133 q 440 1070 421 1097 q 504 1043 458 1043 q 576 1071 549 1043 q 618 1133 604 1099 l 683 1133 q 658 1076 674 1104 q 619 1028 642 1049 q 565 994 596 1007 q 493 981 533 981 z "},"Ė":{"ha":699,"x_min":49,"x_max":733,"o":"m 231 911 l 733 911 l 715 821 l 319 821 l 261 525 l 596 525 l 576 433 l 244 433 l 174 92 l 582 92 l 563 0 l 49 0 l 231 911 m 503 994 q 455 1010 475 994 q 435 1057 435 1026 q 459 1114 435 1090 q 515 1138 483 1138 q 563 1121 543 1138 q 583 1074 583 1104 q 559 1017 583 1039 q 503 994 535 994 z "},"Ẹ":{"ha":699,"x_min":49,"x_max":733,"o":"m 231 911 l 733 911 l 715 821 l 319 821 l 261 525 l 596 525 l 576 433 l 244 433 l 174 92 l 582 92 l 563 0 l 49 0 l 231 911 m 288 -285 q 240 -269 260 -285 q 219 -222 219 -253 q 244 -165 219 -187 q 300 -142 268 -142 q 348 -158 328 -142 q 368 -206 368 -175 q 344 -262 368 -240 q 288 -285 319 -285 z "},"Ẻ":{"ha":699,"x_min":49,"x_max":733,"o":"m 231 911 l 733 911 l 715 821 l 319 821 l 261 525 l 596 525 l 576 433 l 244 433 l 174 92 l 582 92 l 563 0 l 49 0 l 231 911 m 447 1207 q 574 1176 536 1203 q 611 1111 611 1150 q 562 1016 611 1049 q 440 968 513 983 l 431 1017 q 501 1047 476 1031 q 526 1092 526 1064 q 506 1128 526 1115 q 426 1147 485 1142 l 447 1207 z "},"Ẽ":{"ha":699,"x_min":49,"x_max":733,"o":"m 231 911 l 733 911 l 715 821 l 319 821 l 261 525 l 596 525 l 576 433 l 244 433 l 174 92 l 582 92 l 563 0 l 49 0 l 231 911 m 301 988 q 322 1044 308 1018 q 354 1091 336 1071 q 393 1122 372 1111 q 438 1133 414 1133 q 482 1122 464 1133 q 516 1095 500 1110 q 547 1069 532 1081 q 583 1057 563 1057 q 622 1076 606 1057 q 651 1131 639 1096 l 713 1131 q 660 1026 697 1068 q 575 985 622 985 q 531 997 549 985 q 497 1023 513 1008 q 467 1050 482 1038 q 431 1063 451 1063 q 392 1042 408 1063 q 363 988 375 1022 l 301 988 z "},"Ế":{"ha":699,"x_min":49,"x_max":847,"o":"m 231 911 l 733 911 l 715 821 l 319 821 l 261 525 l 596 525 l 576 433 l 244 433 l 174 92 l 582 92 l 563 0 l 49 0 l 231 911 m 758 1221 l 847 1221 l 710 1067 l 642 1067 l 758 1221 m 479 1125 l 571 1125 l 667 981 l 586 981 l 519 1069 l 514 1069 l 411 981 l 328 981 l 479 1125 z "},"Ề":{"ha":699,"x_min":49,"x_max":761,"o":"m 231 911 l 733 911 l 715 821 l 319 821 l 261 525 l 596 525 l 576 433 l 244 433 l 174 92 l 582 92 l 563 0 l 49 0 l 231 911 m 761 1067 l 696 1067 l 610 1221 l 697 1221 l 761 1067 m 479 1125 l 571 1125 l 667 981 l 586 981 l 519 1069 l 514 1069 l 411 981 l 328 981 l 479 1125 z "},"Ể":{"ha":699,"x_min":49,"x_max":813,"o":"m 231 911 l 733 911 l 715 821 l 319 821 l 261 525 l 596 525 l 576 433 l 244 433 l 174 92 l 582 92 l 563 0 l 49 0 l 231 911 m 479 1125 l 571 1125 l 667 981 l 586 981 l 519 1069 l 514 1069 l 411 981 l 328 981 l 479 1125 m 669 1256 q 779 1231 746 1254 q 813 1174 813 1207 q 773 1088 813 1117 q 667 1046 733 1058 l 658 1089 q 738 1158 738 1110 q 719 1190 738 1178 q 651 1204 700 1201 l 669 1256 z "},"Ễ":{"ha":699,"x_min":49,"x_max":738,"o":"m 231 911 l 733 911 l 715 821 l 319 821 l 261 525 l 596 525 l 576 433 l 244 433 l 174 92 l 582 92 l 563 0 l 49 0 l 231 911 m 479 1125 l 571 1125 l 667 981 l 586 981 l 519 1069 l 514 1069 l 411 981 l 328 981 l 479 1125 m 357 1172 q 406 1267 372 1231 q 482 1303 439 1303 q 523 1292 506 1303 q 556 1268 540 1281 q 585 1244 571 1256 q 618 1233 600 1233 q 656 1251 640 1233 q 683 1301 671 1269 l 738 1301 q 688 1207 722 1243 q 613 1171 654 1171 q 572 1182 589 1171 q 539 1206 554 1193 q 509 1229 524 1218 q 476 1240 494 1240 q 411 1172 435 1240 l 357 1172 z "},"Ệ":{"ha":699,"x_min":49,"x_max":733,"o":"m 231 911 l 733 911 l 715 821 l 319 821 l 261 525 l 596 525 l 576 433 l 244 433 l 174 92 l 582 92 l 563 0 l 49 0 l 231 911 m 472 1133 l 572 1133 l 671 981 l 589 981 l 518 1078 l 514 1078 l 406 981 l 314 981 l 472 1133 m 288 -285 q 240 -269 260 -285 q 219 -222 219 -253 q 244 -165 219 -187 q 300 -142 268 -142 q 348 -158 328 -142 q 368 -206 368 -175 q 344 -262 368 -240 q 288 -285 319 -285 z "},"Ę":{"ha":699,"x_min":49,"x_max":733,"o":"m 231 911 l 733 911 l 715 821 l 319 821 l 261 525 l 596 525 l 576 433 l 244 433 l 174 92 l 582 92 l 563 0 q 502 -22 531 -4 q 453 -65 474 -40 q 419 -116 432 -89 q 407 -165 407 -143 q 422 -204 407 -190 q 458 -218 436 -218 q 507 -203 482 -218 l 531 -261 q 478 -285 507 -276 q 425 -293 450 -293 q 347 -269 378 -293 q 317 -197 317 -244 q 330 -137 317 -167 q 363 -82 343 -108 q 405 -35 382 -56 q 447 0 428 -14 l 49 0 l 231 911 z "},"Ĝ":{"ha":817,"x_min":79,"x_max":793,"o":"m 79 351 q 113 563 79 460 q 210 748 147 667 q 362 878 272 829 q 564 928 451 928 q 702 890 646 928 q 793 793 758 851 l 717 736 q 652 808 690 781 q 558 835 614 835 q 404 792 472 835 q 288 681 336 749 q 215 528 240 613 q 190 361 190 444 q 203 248 190 300 q 246 157 217 196 q 321 97 275 118 q 432 75 367 75 q 521 91 482 75 q 588 131 560 107 l 639 382 l 450 382 l 468 471 l 754 471 l 675 76 q 560 9 625 35 q 417 -17 496 -17 q 272 10 335 -17 q 165 84 208 36 q 101 200 122 132 q 79 351 79 268 m 544 1133 l 644 1133 l 743 981 l 661 981 l 590 1078 l 586 1078 l 478 981 l 386 981 l 544 1133 z "},"Ğ":{"ha":817,"x_min":79,"x_max":793,"o":"m 79 351 q 113 563 79 460 q 210 748 147 667 q 362 878 272 829 q 564 928 451 928 q 702 890 646 928 q 793 793 758 851 l 717 736 q 652 808 690 781 q 558 835 614 835 q 404 792 472 835 q 288 681 336 749 q 215 528 240 613 q 190 361 190 444 q 203 248 190 300 q 246 157 217 196 q 321 97 275 118 q 432 75 367 75 q 521 91 482 75 q 588 131 560 107 l 639 382 l 450 382 l 468 471 l 754 471 l 675 76 q 560 9 625 35 q 417 -17 496 -17 q 272 10 335 -17 q 165 84 208 36 q 101 200 122 132 q 79 351 79 268 m 565 981 q 501 994 528 981 q 459 1028 475 1007 q 437 1078 443 1050 q 433 1133 431 1106 l 496 1133 q 512 1070 493 1097 q 576 1043 531 1043 q 649 1071 621 1043 q 690 1133 676 1099 l 756 1133 q 730 1076 746 1104 q 691 1028 714 1049 q 637 994 668 1007 q 565 981 606 981 z "},"Ġ":{"ha":817,"x_min":79,"x_max":793,"o":"m 79 351 q 113 563 79 460 q 210 748 147 667 q 362 878 272 829 q 564 928 451 928 q 702 890 646 928 q 793 793 758 851 l 717 736 q 652 808 690 781 q 558 835 614 835 q 404 792 472 835 q 288 681 336 749 q 215 528 240 613 q 190 361 190 444 q 203 248 190 300 q 246 157 217 196 q 321 97 275 118 q 432 75 367 75 q 521 91 482 75 q 588 131 560 107 l 639 382 l 450 382 l 468 471 l 754 471 l 675 76 q 560 9 625 35 q 417 -17 496 -17 q 272 10 335 -17 q 165 84 208 36 q 101 200 122 132 q 79 351 79 268 m 575 994 q 527 1010 547 994 q 507 1057 507 1026 q 531 1114 507 1090 q 588 1138 556 1138 q 635 1121 615 1138 q 656 1074 656 1104 q 631 1017 656 1039 q 575 994 607 994 z "},"Ģ":{"ha":817,"x_min":79,"x_max":793,"o":"m 79 351 q 113 563 79 460 q 210 748 147 667 q 362 878 272 829 q 564 928 451 928 q 702 890 646 928 q 793 793 758 851 l 717 736 q 652 808 690 781 q 558 835 614 835 q 404 792 472 835 q 288 681 336 749 q 215 528 240 613 q 190 361 190 444 q 203 248 190 300 q 246 157 217 196 q 321 97 275 118 q 432 75 367 75 q 521 91 482 75 q 588 131 560 107 l 639 382 l 450 382 l 468 471 l 754 471 l 675 76 q 560 9 625 35 q 417 -17 496 -17 q 272 10 335 -17 q 165 84 208 36 q 101 200 122 132 q 79 351 79 268 m 371 -62 q 445 -94 417 -74 q 474 -153 474 -115 q 456 -212 474 -187 q 410 -252 439 -236 q 343 -277 381 -268 q 265 -290 306 -286 l 260 -240 q 357 -212 321 -231 q 393 -161 393 -194 q 377 -127 393 -137 q 339 -110 361 -117 l 371 -62 z "},"Ǧ":{"ha":817,"x_min":79,"x_max":793,"o":"m 79 351 q 113 563 79 460 q 210 748 147 667 q 362 878 272 829 q 564 928 451 928 q 702 890 646 928 q 793 793 758 851 l 717 736 q 652 808 690 781 q 558 835 614 835 q 404 792 472 835 q 288 681 336 749 q 215 528 240 613 q 190 361 190 444 q 203 248 190 300 q 246 157 217 196 q 321 97 275 118 q 432 75 367 75 q 521 91 482 75 q 588 131 560 107 l 639 382 l 450 382 l 468 471 l 754 471 l 675 76 q 560 9 625 35 q 417 -17 496 -17 q 272 10 335 -17 q 165 84 208 36 q 101 200 122 132 q 79 351 79 268 m 617 981 l 517 981 l 418 1133 l 500 1133 l 571 1036 l 575 1036 l 683 1133 l 775 1133 l 617 981 z "},"Ḡ":{"ha":817,"x_min":79,"x_max":793,"o":"m 79 351 q 113 563 79 460 q 210 748 147 667 q 362 878 272 829 q 564 928 451 928 q 702 890 646 928 q 793 793 758 851 l 717 736 q 652 808 690 781 q 558 835 614 835 q 404 792 472 835 q 288 681 336 749 q 215 528 240 613 q 190 361 190 444 q 203 248 190 300 q 246 157 217 196 q 321 97 275 118 q 432 75 367 75 q 521 91 482 75 q 588 131 560 107 l 639 382 l 450 382 l 468 471 l 754 471 l 675 76 q 560 9 625 35 q 417 -17 496 -17 q 272 10 335 -17 q 165 84 208 36 q 101 200 122 132 q 79 351 79 268 m 422 1088 l 750 1088 l 735 1013 l 407 1013 l 422 1088 z "},"Ĥ":{"ha":864,"x_min":49,"x_max":857,"o":"m 231 911 l 339 911 l 261 526 l 672 526 l 750 911 l 857 911 l 675 0 l 567 0 l 654 433 l 243 433 l 157 0 l 49 0 l 231 911 m 517 1133 l 617 1133 l 715 981 l 633 981 l 563 1078 l 558 1078 l 450 981 l 358 981 l 517 1133 z "},"Ḥ":{"ha":864,"x_min":49,"x_max":857,"o":"m 231 911 l 339 911 l 261 526 l 672 526 l 750 911 l 857 911 l 675 0 l 567 0 l 654 433 l 243 433 l 157 0 l 49 0 l 231 911 m 338 -285 q 290 -269 310 -285 q 269 -222 269 -253 q 294 -165 269 -187 q 350 -142 318 -142 q 398 -158 378 -142 q 418 -206 418 -175 q 394 -262 418 -240 q 338 -285 369 -285 z "},"Ḫ":{"ha":864,"x_min":49,"x_max":857,"o":"m 231 911 l 339 911 l 261 526 l 672 526 l 750 911 l 857 911 l 675 0 l 567 0 l 654 433 l 243 433 l 157 0 l 49 0 l 231 911 m 325 -287 q 256 -272 283 -287 q 214 -233 229 -257 q 194 -177 199 -208 q 194 -114 190 -146 l 257 -114 q 271 -193 253 -162 q 335 -224 289 -224 q 414 -192 382 -224 q 461 -114 446 -160 l 528 -114 q 501 -177 518 -146 q 460 -233 485 -208 q 401 -272 435 -257 q 325 -287 368 -287 z "},"Ħ":{"ha":893,"x_min":61,"x_max":953,"o":"m 717 685 l 304 685 l 272 526 l 685 526 l 717 685 m 940 685 l 824 685 l 688 0 l 579 0 l 667 433 l 256 433 l 169 0 l 61 0 l 197 685 l 106 685 l 118 742 l 210 746 l 243 911 l 351 911 l 318 746 l 728 746 l 761 911 l 869 911 l 836 746 l 953 746 l 940 685 z "},"Ì":{"ha":350,"x_min":49,"x_max":351,"o":"m 231 911 l 339 911 l 157 0 l 49 0 l 231 911 m 143 1133 l 257 1133 l 351 981 l 267 981 l 143 1133 z "},"Í":{"ha":350,"x_min":49,"x_max":486,"o":"m 231 911 l 339 911 l 157 0 l 49 0 l 231 911 m 365 1133 l 486 1133 l 308 981 l 217 981 l 365 1133 z "},"Î":{"ha":350,"x_min":49,"x_max":464,"o":"m 231 911 l 339 911 l 157 0 l 49 0 l 231 911 m 265 1133 l 365 1133 l 464 981 l 382 981 l 311 1078 l 307 1078 l 199 981 l 107 981 l 265 1133 z "},"Ĩ":{"ha":350,"x_min":49,"x_max":506,"o":"m 231 911 l 339 911 l 157 0 l 49 0 l 231 911 m 94 988 q 115 1044 101 1018 q 147 1091 129 1071 q 186 1122 165 1111 q 231 1133 207 1133 q 275 1122 257 1133 q 309 1095 293 1110 q 340 1069 325 1081 q 376 1057 356 1057 q 415 1076 399 1057 q 444 1131 432 1096 l 506 1131 q 453 1026 490 1068 q 368 985 415 985 q 324 997 342 985 q 290 1023 306 1008 q 260 1050 275 1038 q 224 1063 244 1063 q 185 1042 201 1063 q 156 988 168 1022 l 94 988 z "},"Ï":{"ha":350,"x_min":49,"x_max":479,"o":"m 231 911 l 339 911 l 157 0 l 49 0 l 231 911 m 179 993 q 140 1008 156 993 q 124 1049 124 1022 q 144 1102 124 1079 q 194 1125 165 1125 q 234 1110 218 1125 q 250 1068 250 1096 q 229 1016 250 1039 q 179 993 208 993 m 410 993 q 370 1008 386 993 q 354 1049 354 1022 q 375 1102 354 1079 q 425 1125 396 1125 q 464 1110 449 1125 q 479 1068 479 1096 q 459 1016 479 1039 q 410 993 439 993 z "},"Ī":{"ha":350,"x_min":49,"x_max":471,"o":"m 231 911 l 339 911 l 157 0 l 49 0 l 231 911 m 143 1088 l 471 1088 l 456 1013 l 128 1013 l 143 1088 z "},"İ":{"ha":350,"x_min":49,"x_max":376,"o":"m 231 911 l 339 911 l 157 0 l 49 0 l 231 911 m 296 994 q 248 1010 268 994 q 228 1057 228 1026 q 252 1114 228 1090 q 308 1138 276 1138 q 356 1121 336 1138 q 376 1074 376 1104 q 352 1017 376 1039 q 296 994 328 994 z "},"Ǐ":{"ha":350,"x_min":49,"x_max":496,"o":"m 231 911 l 339 911 l 157 0 l 49 0 l 231 911 m 338 981 l 238 981 l 139 1133 l 221 1133 l 292 1036 l 296 1036 l 404 1133 l 496 1133 l 338 981 z "},"Ỉ":{"ha":350,"x_min":49,"x_max":404,"o":"m 231 911 l 339 911 l 157 0 l 49 0 l 231 911 m 240 1207 q 367 1176 329 1203 q 404 1111 404 1150 q 355 1016 404 1049 q 233 968 306 983 l 224 1017 q 294 1047 269 1031 q 319 1092 319 1064 q 299 1128 319 1115 q 219 1147 278 1142 l 240 1207 z "},"Ị":{"ha":350,"x_min":-1,"x_max":339,"o":"m 231 911 l 339 911 l 157 0 l 49 0 l 231 911 m 67 -292 q 19 -276 39 -292 q -1 -229 -1 -260 q 23 -172 -1 -194 q 79 -149 47 -149 q 127 -165 107 -149 q 147 -212 147 -182 q 123 -269 147 -247 q 67 -292 99 -292 z "},"Į":{"ha":350,"x_min":-54,"x_max":339,"o":"m 36 -165 q 51 -204 36 -190 q 86 -218 65 -218 q 135 -203 111 -218 l 160 -258 q 106 -283 138 -274 q 51 -293 75 -293 q -24 -269 6 -293 q -54 -197 -54 -244 q -42 -137 -54 -167 q -10 -82 -29 -108 q 30 -35 8 -56 q 69 0 51 -14 l 49 0 l 231 911 l 339 911 l 157 0 q 70 -78 104 -32 q 36 -165 36 -125 z "},"Ĵ":{"ha":633,"x_min":-3,"x_max":757,"o":"m 503 256 q 468 147 492 197 q 410 60 444 97 q 328 3 375 24 q 221 -17 281 -17 q 83 22 139 -17 q -3 124 26 60 l 68 183 q 126 105 88 133 q 224 76 165 76 q 336 128 293 76 q 397 271 379 179 l 525 911 l 633 911 l 503 256 l 503 256 m 558 1133 l 658 1133 l 757 981 l 675 981 l 604 1078 l 600 1078 l 492 981 l 400 981 l 558 1133 z "},"Ķ":{"ha":776,"x_min":49,"x_max":832,"o":"m 231 911 l 339 911 l 249 461 l 253 461 l 710 911 l 832 911 l 490 561 l 697 0 l 585 0 l 410 492 l 219 306 l 157 0 l 49 0 l 231 911 m 338 -62 q 412 -94 383 -74 q 440 -153 440 -115 q 423 -212 440 -187 q 376 -252 406 -236 q 310 -277 347 -268 q 232 -290 272 -286 l 226 -240 q 324 -212 288 -231 q 360 -161 360 -194 q 344 -127 360 -137 q 306 -110 328 -117 l 338 -62 z "},"Ĺ":{"ha":642,"x_min":49,"x_max":558,"o":"m 231 911 l 339 911 l 175 92 l 558 92 l 540 0 l 49 0 l 231 911 m 374 1133 l 494 1133 l 317 981 l 225 981 l 374 1133 z "},"Ľ":{"ha":642,"x_min":49,"x_max":644,"o":"m 231 911 l 339 911 l 175 92 l 558 92 l 540 0 l 49 0 l 231 911 m 514 713 l 569 1007 l 644 1007 l 629 928 l 568 713 l 514 713 z "},"Ļ":{"ha":642,"x_min":49,"x_max":558,"o":"m 231 911 l 339 911 l 175 92 l 558 92 l 540 0 l 49 0 l 231 911 m 269 -62 q 344 -94 315 -74 q 372 -153 372 -115 q 355 -212 372 -187 q 308 -252 338 -236 q 242 -277 279 -268 q 164 -290 204 -286 l 158 -240 q 256 -212 219 -231 q 292 -161 292 -194 q 276 -127 292 -137 q 238 -110 260 -117 l 269 -62 z "},"Ŀ":{"ha":642,"x_min":49,"x_max":600,"o":"m 231 911 l 339 911 l 175 92 l 558 92 l 540 0 l 49 0 l 231 911 m 508 372 q 460 392 478 372 q 443 442 443 411 q 469 508 443 478 q 536 539 496 539 q 583 519 567 539 q 600 468 600 499 q 574 402 600 432 q 508 372 549 372 z "},"Ḷ":{"ha":642,"x_min":49,"x_max":558,"o":"m 231 911 l 339 911 l 175 92 l 558 92 l 540 0 l 49 0 l 231 911 m 269 -285 q 222 -269 242 -285 q 201 -222 201 -253 q 226 -165 201 -187 q 282 -142 250 -142 q 330 -158 310 -142 q 350 -206 350 -175 q 326 -262 350 -240 q 269 -285 301 -285 z "},"Ḹ":{"ha":642,"x_min":49,"x_max":558,"o":"m 231 911 l 339 911 l 175 92 l 558 92 l 540 0 l 49 0 l 231 911 m 151 1088 l 479 1088 l 464 1013 l 136 1013 l 151 1088 m 269 -285 q 222 -269 242 -285 q 201 -222 201 -253 q 226 -165 201 -187 q 282 -142 250 -142 q 330 -158 310 -142 q 350 -206 350 -175 q 326 -262 350 -240 q 269 -285 301 -285 z "},"Ḻ":{"ha":642,"x_min":49,"x_max":558,"o":"m 231 911 l 339 911 l 175 92 l 558 92 l 540 0 l 49 0 l 231 911 m 124 -154 l 450 -154 l 436 -228 l 110 -228 l 124 -154 z "},"Ł":{"ha":642,"x_min":-6,"x_max":558,"o":"m 558 92 l 540 0 l 49 0 l 114 326 l -6 268 l 13 364 l 133 422 l 231 911 l 339 911 l 251 476 l 529 613 l 511 517 l 233 382 l 175 92 l 558 92 z "},"Ṃ":{"ha":979,"x_min":49,"x_max":972,"o":"m 231 911 l 360 911 l 439 419 l 469 231 l 475 231 l 572 419 l 843 911 l 972 911 l 790 0 l 686 0 l 792 514 q 822 649 804 576 q 857 782 840 722 l 851 782 l 742 579 l 474 96 l 413 96 l 328 579 l 297 782 l 292 782 q 274 648 283 719 q 253 514 264 576 l 150 0 l 49 0 l 231 911 m 388 -296 q 340 -280 360 -296 q 319 -233 319 -264 q 344 -176 319 -199 q 400 -153 368 -153 q 448 -169 428 -153 q 468 -217 468 -186 q 444 -274 468 -251 q 388 -296 419 -296 z "},"Ń":{"ha":860,"x_min":49,"x_max":853,"o":"m 231 911 l 339 911 l 547 328 l 606 138 l 611 138 q 628 281 619 206 q 653 428 638 357 l 749 911 l 853 911 l 671 0 l 564 0 l 358 582 l 299 778 l 293 778 q 274 633 285 707 q 250 490 264 560 l 153 0 l 49 0 l 231 911 m 629 1133 l 750 1133 l 572 981 l 481 981 l 629 1133 z "},"Ň":{"ha":860,"x_min":49,"x_max":853,"o":"m 231 911 l 339 911 l 547 328 l 606 138 l 611 138 q 628 281 619 206 q 653 428 638 357 l 749 911 l 853 911 l 671 0 l 564 0 l 358 582 l 299 778 l 293 778 q 274 633 285 707 q 250 490 264 560 l 153 0 l 49 0 l 231 911 m 601 981 l 501 981 l 403 1133 l 485 1133 l 556 1036 l 560 1036 l 668 1133 l 760 1133 l 601 981 z "},"Ñ":{"ha":860,"x_min":49,"x_max":853,"o":"m 231 911 l 339 911 l 547 328 l 606 138 l 611 138 q 628 281 619 206 q 653 428 638 357 l 749 911 l 853 911 l 671 0 l 564 0 l 358 582 l 299 778 l 293 778 q 274 633 285 707 q 250 490 264 560 l 153 0 l 49 0 l 231 911 m 358 988 q 379 1044 365 1018 q 411 1091 393 1071 q 450 1122 429 1111 q 494 1133 471 1133 q 539 1122 521 1133 q 573 1095 557 1110 q 604 1069 589 1081 q 640 1057 619 1057 q 679 1076 663 1057 q 708 1131 696 1096 l 769 1131 q 717 1026 754 1068 q 632 985 679 985 q 588 997 606 985 q 554 1023 569 1008 q 524 1050 539 1038 q 488 1063 508 1063 q 449 1042 465 1063 q 419 988 432 1022 l 358 988 z "},"Ņ":{"ha":860,"x_min":49,"x_max":853,"o":"m 231 911 l 339 911 l 547 328 l 606 138 l 611 138 q 628 281 619 206 q 653 428 638 357 l 749 911 l 853 911 l 671 0 l 564 0 l 358 582 l 299 778 l 293 778 q 274 633 285 707 q 250 490 264 560 l 153 0 l 49 0 l 231 911 m 338 -74 q 412 -106 383 -85 q 440 -164 440 -126 q 423 -223 440 -199 q 376 -263 406 -247 q 310 -288 347 -279 q 232 -301 272 -297 l 226 -251 q 324 -224 288 -242 q 360 -172 360 -206 q 344 -138 360 -149 q 306 -121 328 -128 l 338 -74 z "},"Ṅ":{"ha":860,"x_min":49,"x_max":853,"o":"m 231 911 l 339 911 l 547 328 l 606 138 l 611 138 q 628 281 619 206 q 653 428 638 357 l 749 911 l 853 911 l 671 0 l 564 0 l 358 582 l 299 778 l 293 778 q 274 633 285 707 q 250 490 264 560 l 153 0 l 49 0 l 231 911 m 560 994 q 512 1010 532 994 q 492 1057 492 1026 q 516 1114 492 1090 q 572 1138 540 1138 q 620 1121 600 1138 q 640 1074 640 1104 q 616 1017 640 1039 q 560 994 592 994 z "},"Ṇ":{"ha":860,"x_min":49,"x_max":853,"o":"m 231 911 l 339 911 l 547 328 l 606 138 l 611 138 q 628 281 619 206 q 653 428 638 357 l 749 911 l 853 911 l 671 0 l 564 0 l 358 582 l 299 778 l 293 778 q 274 633 285 707 q 250 490 264 560 l 153 0 l 49 0 l 231 911 m 338 -296 q 290 -280 310 -296 q 269 -233 269 -264 q 294 -176 269 -199 q 350 -153 318 -153 q 398 -169 378 -153 q 418 -217 418 -186 q 394 -274 418 -251 q 338 -296 369 -296 z "},"Ṉ":{"ha":860,"x_min":49,"x_max":853,"o":"m 231 911 l 339 911 l 547 328 l 606 138 l 611 138 q 628 281 619 206 q 653 428 638 357 l 749 911 l 853 911 l 671 0 l 564 0 l 358 582 l 299 778 l 293 778 q 274 633 285 707 q 250 490 264 560 l 153 0 l 49 0 l 231 911 m 192 -165 l 518 -165 l 504 -239 l 178 -239 l 192 -165 z "},"Ò":{"ha":879,"x_min":83,"x_max":842,"o":"m 399 -17 q 263 10 322 -17 q 165 88 204 38 q 104 208 125 138 q 83 365 83 279 q 116 570 83 469 q 207 751 149 671 q 347 879 265 831 q 526 928 428 928 q 662 901 603 928 q 760 824 721 874 q 821 703 800 774 q 842 547 842 633 q 809 342 842 443 q 718 160 776 240 q 578 32 660 81 q 399 -17 496 -17 m 521 835 q 387 793 447 835 q 283 685 326 751 q 217 536 240 618 q 193 374 193 454 q 206 252 193 307 q 244 158 218 197 q 310 98 269 119 q 404 76 350 76 q 538 119 478 76 q 642 228 599 161 q 708 376 685 294 q 732 538 732 458 q 681 753 732 672 q 521 835 629 835 m 417 1133 l 531 1133 l 625 981 l 540 981 l 417 1133 z "},"Ó":{"ha":879,"x_min":83,"x_max":842,"o":"m 399 -17 q 263 10 322 -17 q 165 88 204 38 q 104 208 125 138 q 83 365 83 279 q 116 570 83 469 q 207 751 149 671 q 347 879 265 831 q 526 928 428 928 q 662 901 603 928 q 760 824 721 874 q 821 703 800 774 q 842 547 842 633 q 809 342 842 443 q 718 160 776 240 q 578 32 660 81 q 399 -17 496 -17 m 521 835 q 387 793 447 835 q 283 685 326 751 q 217 536 240 618 q 193 374 193 454 q 206 252 193 307 q 244 158 218 197 q 310 98 269 119 q 404 76 350 76 q 538 119 478 76 q 642 228 599 161 q 708 376 685 294 q 732 538 732 458 q 681 753 732 672 q 521 835 629 835 m 639 1133 l 760 1133 l 582 981 l 490 981 l 639 1133 z "},"Ô":{"ha":879,"x_min":83,"x_max":842,"o":"m 399 -17 q 263 10 322 -17 q 165 88 204 38 q 104 208 125 138 q 83 365 83 279 q 116 570 83 469 q 207 751 149 671 q 347 879 265 831 q 526 928 428 928 q 662 901 603 928 q 760 824 721 874 q 821 703 800 774 q 842 547 842 633 q 809 342 842 443 q 718 160 776 240 q 578 32 660 81 q 399 -17 496 -17 m 521 835 q 387 793 447 835 q 283 685 326 751 q 217 536 240 618 q 193 374 193 454 q 206 252 193 307 q 244 158 218 197 q 310 98 269 119 q 404 76 350 76 q 538 119 478 76 q 642 228 599 161 q 708 376 685 294 q 732 538 732 458 q 681 753 732 672 q 521 835 629 835 m 539 1133 l 639 1133 l 738 981 l 656 981 l 585 1078 l 581 1078 l 472 981 l 381 981 l 539 1133 z "},"Õ":{"ha":879,"x_min":83,"x_max":842,"o":"m 399 -17 q 263 10 322 -17 q 165 88 204 38 q 104 208 125 138 q 83 365 83 279 q 116 570 83 469 q 207 751 149 671 q 347 879 265 831 q 526 928 428 928 q 662 901 603 928 q 760 824 721 874 q 821 703 800 774 q 842 547 842 633 q 809 342 842 443 q 718 160 776 240 q 578 32 660 81 q 399 -17 496 -17 m 521 835 q 387 793 447 835 q 283 685 326 751 q 217 536 240 618 q 193 374 193 454 q 206 252 193 307 q 244 158 218 197 q 310 98 269 119 q 404 76 350 76 q 538 119 478 76 q 642 228 599 161 q 708 376 685 294 q 732 538 732 458 q 681 753 732 672 q 521 835 629 835 m 368 988 q 389 1044 375 1018 q 421 1091 403 1071 q 460 1122 439 1111 q 504 1133 481 1133 q 549 1122 531 1133 q 583 1095 567 1110 q 614 1069 599 1081 q 650 1057 629 1057 q 689 1076 672 1057 q 718 1131 706 1096 l 779 1131 q 726 1026 764 1068 q 642 985 689 985 q 597 997 615 985 q 564 1023 579 1008 q 533 1050 549 1038 q 497 1063 518 1063 q 458 1042 475 1063 q 429 988 442 1022 l 368 988 z "},"Ö":{"ha":879,"x_min":83,"x_max":842,"o":"m 399 -17 q 263 10 322 -17 q 165 88 204 38 q 104 208 125 138 q 83 365 83 279 q 116 570 83 469 q 207 751 149 671 q 347 879 265 831 q 526 928 428 928 q 662 901 603 928 q 760 824 721 874 q 821 703 800 774 q 842 547 842 633 q 809 342 842 443 q 718 160 776 240 q 578 32 660 81 q 399 -17 496 -17 m 521 835 q 387 793 447 835 q 283 685 326 751 q 217 536 240 618 q 193 374 193 454 q 206 252 193 307 q 244 158 218 197 q 310 98 269 119 q 404 76 350 76 q 538 119 478 76 q 642 228 599 161 q 708 376 685 294 q 732 538 732 458 q 681 753 732 672 q 521 835 629 835 m 453 993 q 413 1008 429 993 q 397 1049 397 1022 q 418 1102 397 1079 q 468 1125 439 1125 q 508 1110 492 1125 q 524 1068 524 1096 q 503 1016 524 1039 q 453 993 482 993 m 683 993 q 644 1008 660 993 q 628 1049 628 1022 q 649 1102 628 1079 q 699 1125 669 1125 q 738 1110 722 1125 q 753 1068 753 1096 q 733 1016 753 1039 q 683 993 713 993 z "},"Ō":{"ha":879,"x_min":83,"x_max":842,"o":"m 399 -17 q 263 10 322 -17 q 165 88 204 38 q 104 208 125 138 q 83 365 83 279 q 116 570 83 469 q 207 751 149 671 q 347 879 265 831 q 526 928 428 928 q 662 901 603 928 q 760 824 721 874 q 821 703 800 774 q 842 547 842 633 q 809 342 842 443 q 718 160 776 240 q 578 32 660 81 q 399 -17 496 -17 m 521 835 q 387 793 447 835 q 283 685 326 751 q 217 536 240 618 q 193 374 193 454 q 206 252 193 307 q 244 158 218 197 q 310 98 269 119 q 404 76 350 76 q 538 119 478 76 q 642 228 599 161 q 708 376 685 294 q 732 538 732 458 q 681 753 732 672 q 521 835 629 835 m 417 1088 l 744 1088 l 729 1013 l 401 1013 l 417 1088 z "},"Ő":{"ha":879,"x_min":83,"x_max":842,"o":"m 399 -17 q 263 10 322 -17 q 165 88 204 38 q 104 208 125 138 q 83 365 83 279 q 116 570 83 469 q 207 751 149 671 q 347 879 265 831 q 526 928 428 928 q 662 901 603 928 q 760 824 721 874 q 821 703 800 774 q 842 547 842 633 q 809 342 842 443 q 718 160 776 240 q 578 32 660 81 q 399 -17 496 -17 m 521 835 q 387 793 447 835 q 283 685 326 751 q 217 536 240 618 q 193 374 193 454 q 206 252 193 307 q 244 158 218 197 q 310 98 269 119 q 404 76 350 76 q 538 119 478 76 q 642 228 599 161 q 708 376 685 294 q 732 538 732 458 q 681 753 732 672 q 521 835 629 835 m 536 1135 l 635 1135 l 492 981 l 415 981 l 536 1135 m 743 1135 l 842 1135 l 699 981 l 622 981 l 743 1135 z "},"Ǒ":{"ha":879,"x_min":83,"x_max":842,"o":"m 399 -17 q 263 10 322 -17 q 165 88 204 38 q 104 208 125 138 q 83 365 83 279 q 116 570 83 469 q 207 751 149 671 q 347 879 265 831 q 526 928 428 928 q 662 901 603 928 q 760 824 721 874 q 821 703 800 774 q 842 547 842 633 q 809 342 842 443 q 718 160 776 240 q 578 32 660 81 q 399 -17 496 -17 m 521 835 q 387 793 447 835 q 283 685 326 751 q 217 536 240 618 q 193 374 193 454 q 206 252 193 307 q 244 158 218 197 q 310 98 269 119 q 404 76 350 76 q 538 119 478 76 q 642 228 599 161 q 708 376 685 294 q 732 538 732 458 q 681 753 732 672 q 521 835 629 835 m 611 981 l 511 981 l 413 1133 l 494 1133 l 565 1036 l 569 1036 l 678 1133 l 769 1133 l 611 981 z "},"Ọ":{"ha":879,"x_min":83,"x_max":842,"o":"m 399 -17 q 263 10 322 -17 q 165 88 204 38 q 104 208 125 138 q 83 365 83 279 q 116 570 83 469 q 207 751 149 671 q 347 879 265 831 q 526 928 428 928 q 662 901 603 928 q 760 824 721 874 q 821 703 800 774 q 842 547 842 633 q 809 342 842 443 q 718 160 776 240 q 578 32 660 81 q 399 -17 496 -17 m 521 835 q 387 793 447 835 q 283 685 326 751 q 217 536 240 618 q 193 374 193 454 q 206 252 193 307 q 244 158 218 197 q 310 98 269 119 q 404 76 350 76 q 538 119 478 76 q 642 228 599 161 q 708 376 685 294 q 732 538 732 458 q 681 753 732 672 q 521 835 629 835 m 344 -285 q 297 -269 317 -285 q 276 -222 276 -253 q 301 -165 276 -187 q 357 -142 325 -142 q 405 -158 385 -142 q 425 -206 425 -175 q 401 -262 425 -240 q 344 -285 376 -285 z "},"Ỏ":{"ha":879,"x_min":83,"x_max":842,"o":"m 399 -17 q 263 10 322 -17 q 165 88 204 38 q 104 208 125 138 q 83 365 83 279 q 116 570 83 469 q 207 751 149 671 q 347 879 265 831 q 526 928 428 928 q 662 901 603 928 q 760 824 721 874 q 821 703 800 774 q 842 547 842 633 q 809 342 842 443 q 718 160 776 240 q 578 32 660 81 q 399 -17 496 -17 m 521 835 q 387 793 447 835 q 283 685 326 751 q 217 536 240 618 q 193 374 193 454 q 206 252 193 307 q 244 158 218 197 q 310 98 269 119 q 404 76 350 76 q 538 119 478 76 q 642 228 599 161 q 708 376 685 294 q 732 538 732 458 q 681 753 732 672 q 521 835 629 835 m 514 1207 q 640 1176 603 1203 q 678 1111 678 1150 q 628 1016 678 1049 q 507 968 579 983 l 497 1017 q 568 1047 543 1031 q 593 1092 593 1064 q 572 1128 593 1115 q 493 1147 551 1142 l 514 1207 z "},"Ố":{"ha":879,"x_min":83,"x_max":914,"o":"m 399 -17 q 263 10 322 -17 q 165 88 204 38 q 104 208 125 138 q 83 365 83 279 q 116 570 83 469 q 207 751 149 671 q 347 879 265 831 q 526 928 428 928 q 662 901 603 928 q 760 824 721 874 q 821 703 800 774 q 842 547 842 633 q 809 342 842 443 q 718 160 776 240 q 578 32 660 81 q 399 -17 496 -17 m 521 835 q 387 793 447 835 q 283 685 326 751 q 217 536 240 618 q 193 374 193 454 q 206 252 193 307 q 244 158 218 197 q 310 98 269 119 q 404 76 350 76 q 538 119 478 76 q 642 228 599 161 q 708 376 685 294 q 732 538 732 458 q 681 753 732 672 q 521 835 629 835 m 825 1221 l 914 1221 l 776 1067 l 708 1067 l 825 1221 m 546 1125 l 638 1125 l 733 981 l 653 981 l 586 1069 l 581 1069 l 478 981 l 394 981 l 546 1125 z "},"Ồ":{"ha":879,"x_min":83,"x_max":842,"o":"m 399 -17 q 263 10 322 -17 q 165 88 204 38 q 104 208 125 138 q 83 365 83 279 q 116 570 83 469 q 207 751 149 671 q 347 879 265 831 q 526 928 428 928 q 662 901 603 928 q 760 824 721 874 q 821 703 800 774 q 842 547 842 633 q 809 342 842 443 q 718 160 776 240 q 578 32 660 81 q 399 -17 496 -17 m 521 835 q 387 793 447 835 q 283 685 326 751 q 217 536 240 618 q 193 374 193 454 q 206 252 193 307 q 244 158 218 197 q 310 98 269 119 q 404 76 350 76 q 538 119 478 76 q 642 228 599 161 q 708 376 685 294 q 732 538 732 458 q 681 753 732 672 q 521 835 629 835 m 828 1067 l 763 1067 l 676 1221 l 764 1221 l 828 1067 m 546 1125 l 638 1125 l 733 981 l 653 981 l 586 1069 l 581 1069 l 478 981 l 394 981 l 546 1125 z "},"Ổ":{"ha":879,"x_min":83,"x_max":879,"o":"m 399 -17 q 263 10 322 -17 q 165 88 204 38 q 104 208 125 138 q 83 365 83 279 q 116 570 83 469 q 207 751 149 671 q 347 879 265 831 q 526 928 428 928 q 662 901 603 928 q 760 824 721 874 q 821 703 800 774 q 842 547 842 633 q 809 342 842 443 q 718 160 776 240 q 578 32 660 81 q 399 -17 496 -17 m 521 835 q 387 793 447 835 q 283 685 326 751 q 217 536 240 618 q 193 374 193 454 q 206 252 193 307 q 244 158 218 197 q 310 98 269 119 q 404 76 350 76 q 538 119 478 76 q 642 228 599 161 q 708 376 685 294 q 732 538 732 458 q 681 753 732 672 q 521 835 629 835 m 546 1125 l 638 1125 l 733 981 l 653 981 l 586 1069 l 581 1069 l 478 981 l 394 981 l 546 1125 m 736 1256 q 846 1231 813 1254 q 879 1174 879 1207 q 840 1088 879 1117 q 733 1046 800 1058 l 725 1089 q 804 1158 804 1110 q 785 1190 804 1178 q 718 1204 767 1201 l 736 1256 z "},"Ỗ":{"ha":879,"x_min":83,"x_max":842,"o":"m 399 -17 q 263 10 322 -17 q 165 88 204 38 q 104 208 125 138 q 83 365 83 279 q 116 570 83 469 q 207 751 149 671 q 347 879 265 831 q 526 928 428 928 q 662 901 603 928 q 760 824 721 874 q 821 703 800 774 q 842 547 842 633 q 809 342 842 443 q 718 160 776 240 q 578 32 660 81 q 399 -17 496 -17 m 521 835 q 387 793 447 835 q 283 685 326 751 q 217 536 240 618 q 193 374 193 454 q 206 252 193 307 q 244 158 218 197 q 310 98 269 119 q 404 76 350 76 q 538 119 478 76 q 642 228 599 161 q 708 376 685 294 q 732 538 732 458 q 681 753 732 672 q 521 835 629 835 m 546 1125 l 638 1125 l 733 981 l 653 981 l 586 1069 l 581 1069 l 478 981 l 394 981 l 546 1125 m 424 1172 q 472 1267 439 1231 q 549 1303 506 1303 q 590 1292 572 1303 q 622 1268 607 1281 q 652 1244 638 1256 q 685 1233 667 1233 q 722 1251 707 1233 q 750 1301 738 1269 l 804 1301 q 755 1207 789 1243 q 679 1171 721 1171 q 638 1182 656 1171 q 606 1206 621 1193 q 576 1229 590 1218 q 543 1240 561 1240 q 478 1172 501 1240 l 424 1172 z "},"Ộ":{"ha":879,"x_min":83,"x_max":842,"o":"m 399 -17 q 263 10 322 -17 q 165 88 204 38 q 104 208 125 138 q 83 365 83 279 q 116 570 83 469 q 207 751 149 671 q 347 879 265 831 q 526 928 428 928 q 662 901 603 928 q 760 824 721 874 q 821 703 800 774 q 842 547 842 633 q 809 342 842 443 q 718 160 776 240 q 578 32 660 81 q 399 -17 496 -17 m 521 835 q 387 793 447 835 q 283 685 326 751 q 217 536 240 618 q 193 374 193 454 q 206 252 193 307 q 244 158 218 197 q 310 98 269 119 q 404 76 350 76 q 538 119 478 76 q 642 228 599 161 q 708 376 685 294 q 732 538 732 458 q 681 753 732 672 q 521 835 629 835 m 539 1133 l 639 1133 l 738 981 l 656 981 l 585 1078 l 581 1078 l 472 981 l 381 981 l 539 1133 m 344 -285 q 297 -269 317 -285 q 276 -222 276 -253 q 301 -165 276 -187 q 357 -142 325 -142 q 405 -158 385 -142 q 425 -206 425 -175 q 401 -262 425 -240 q 344 -285 376 -285 z "},"Ø":{"ha":879,"x_min":-4,"x_max":935,"o":"m 242 163 q 308 99 268 122 q 404 76 347 76 q 538 119 478 76 q 642 228 599 161 q 708 376 685 294 q 732 538 732 458 q 717 671 732 610 l 242 163 m 688 743 q 620 811 661 788 q 521 835 579 835 q 387 793 447 835 q 283 685 326 751 q 217 536 240 618 q 193 374 193 454 q 210 235 193 294 l 688 743 m 800 761 q 842 547 842 671 q 809 342 842 443 q 718 160 776 240 q 578 32 660 81 q 399 -17 496 -17 q 266 9 324 -17 q 168 83 208 35 l 51 -42 l -4 7 l 128 147 q 83 365 83 239 q 116 570 83 469 q 207 751 149 671 q 347 879 265 831 q 526 928 428 928 q 663 901 604 928 q 761 822 721 874 l 885 954 l 935 906 l 800 761 z "},"Œ":{"ha":1133,"x_min":83,"x_max":1168,"o":"m 83 356 q 117 583 83 481 q 214 758 150 685 q 369 871 278 831 q 576 911 461 911 l 1168 911 l 1149 821 l 781 821 l 721 525 l 1031 525 l 1011 433 l 704 433 l 633 92 l 1017 92 l 997 0 l 469 0 q 181 94 279 0 q 83 356 83 188 m 576 824 q 417 790 488 824 q 296 695 346 756 q 219 549 246 635 q 193 363 193 464 q 264 160 193 232 q 474 89 335 89 l 528 89 l 675 824 l 576 824 z "},"Ơ":{"ha":879,"x_min":83,"x_max":917,"o":"m 404 76 q 538 119 478 76 q 642 228 599 161 q 708 376 685 294 q 732 538 732 458 q 681 753 732 672 q 521 835 629 835 q 387 793 447 835 q 283 685 326 751 q 217 536 240 618 q 193 374 193 454 q 206 252 193 307 q 244 158 218 197 q 310 98 269 119 q 404 76 350 76 m 901 1063 q 917 997 917 1031 q 872 894 917 938 q 749 838 826 851 q 818 713 794 788 q 842 547 842 639 q 809 342 842 443 q 718 160 776 240 q 578 32 660 81 q 399 -17 496 -17 q 263 10 322 -17 q 165 88 204 38 q 104 208 125 138 q 83 365 83 279 q 116 570 83 469 q 207 751 149 671 q 347 879 265 831 q 526 928 428 928 q 690 885 621 928 q 788 917 750 889 q 826 989 826 944 q 825 1010 826 1000 q 819 1035 824 1019 l 901 1063 z "},"Ớ":{"ha":879,"x_min":83,"x_max":917,"o":"m 404 76 q 538 119 478 76 q 642 228 599 161 q 708 376 685 294 q 732 538 732 458 q 681 753 732 672 q 521 835 629 835 q 387 793 447 835 q 283 685 326 751 q 217 536 240 618 q 193 374 193 454 q 206 252 193 307 q 244 158 218 197 q 310 98 269 119 q 404 76 350 76 m 901 1063 q 917 997 917 1031 q 872 894 917 938 q 749 838 826 851 q 818 713 794 788 q 842 547 842 639 q 809 342 842 443 q 718 160 776 240 q 578 32 660 81 q 399 -17 496 -17 q 263 10 322 -17 q 165 88 204 38 q 104 208 125 138 q 83 365 83 279 q 116 570 83 469 q 207 751 149 671 q 347 879 265 831 q 526 928 428 928 q 690 885 621 928 q 788 917 750 889 q 826 989 826 944 q 825 1010 826 1000 q 819 1035 824 1019 l 901 1063 m 625 1133 l 746 1133 l 568 981 l 476 981 l 625 1133 z "},"Ờ":{"ha":879,"x_min":83,"x_max":917,"o":"m 404 76 q 538 119 478 76 q 642 228 599 161 q 708 376 685 294 q 732 538 732 458 q 681 753 732 672 q 521 835 629 835 q 387 793 447 835 q 283 685 326 751 q 217 536 240 618 q 193 374 193 454 q 206 252 193 307 q 244 158 218 197 q 310 98 269 119 q 404 76 350 76 m 901 1063 q 917 997 917 1031 q 872 894 917 938 q 749 838 826 851 q 818 713 794 788 q 842 547 842 639 q 809 342 842 443 q 718 160 776 240 q 578 32 660 81 q 399 -17 496 -17 q 263 10 322 -17 q 165 88 204 38 q 104 208 125 138 q 83 365 83 279 q 116 570 83 469 q 207 751 149 671 q 347 879 265 831 q 526 928 428 928 q 690 885 621 928 q 788 917 750 889 q 826 989 826 944 q 825 1010 826 1000 q 819 1035 824 1019 l 901 1063 m 403 1133 l 517 1133 l 611 981 l 526 981 l 403 1133 z "},"Ở":{"ha":879,"x_min":83,"x_max":917,"o":"m 404 76 q 538 119 478 76 q 642 228 599 161 q 708 376 685 294 q 732 538 732 458 q 681 753 732 672 q 521 835 629 835 q 387 793 447 835 q 283 685 326 751 q 217 536 240 618 q 193 374 193 454 q 206 252 193 307 q 244 158 218 197 q 310 98 269 119 q 404 76 350 76 m 901 1063 q 917 997 917 1031 q 872 894 917 938 q 749 838 826 851 q 818 713 794 788 q 842 547 842 639 q 809 342 842 443 q 718 160 776 240 q 578 32 660 81 q 399 -17 496 -17 q 263 10 322 -17 q 165 88 204 38 q 104 208 125 138 q 83 365 83 279 q 116 570 83 469 q 207 751 149 671 q 347 879 265 831 q 526 928 428 928 q 690 885 621 928 q 788 917 750 889 q 826 989 826 944 q 825 1010 826 1000 q 819 1035 824 1019 l 901 1063 m 500 1207 q 626 1176 589 1203 q 664 1111 664 1150 q 615 1016 664 1049 q 493 968 565 983 l 483 1017 q 554 1047 529 1031 q 579 1092 579 1064 q 558 1128 579 1115 q 479 1147 538 1142 l 500 1207 z "},"Ỡ":{"ha":879,"x_min":83,"x_max":917,"o":"m 404 76 q 538 119 478 76 q 642 228 599 161 q 708 376 685 294 q 732 538 732 458 q 681 753 732 672 q 521 835 629 835 q 387 793 447 835 q 283 685 326 751 q 217 536 240 618 q 193 374 193 454 q 206 252 193 307 q 244 158 218 197 q 310 98 269 119 q 404 76 350 76 m 901 1063 q 917 997 917 1031 q 872 894 917 938 q 749 838 826 851 q 818 713 794 788 q 842 547 842 639 q 809 342 842 443 q 718 160 776 240 q 578 32 660 81 q 399 -17 496 -17 q 263 10 322 -17 q 165 88 204 38 q 104 208 125 138 q 83 365 83 279 q 116 570 83 469 q 207 751 149 671 q 347 879 265 831 q 526 928 428 928 q 690 885 621 928 q 788 917 750 889 q 826 989 826 944 q 825 1010 826 1000 q 819 1035 824 1019 l 901 1063 m 354 988 q 375 1044 361 1018 q 407 1091 389 1071 q 446 1122 425 1111 q 490 1133 467 1133 q 535 1122 517 1133 q 569 1095 553 1110 q 600 1069 585 1081 q 636 1057 615 1057 q 675 1076 658 1057 q 704 1131 692 1096 l 765 1131 q 713 1026 750 1068 q 628 985 675 985 q 583 997 601 985 q 550 1023 565 1008 q 519 1050 535 1038 q 483 1063 504 1063 q 444 1042 461 1063 q 415 988 428 1022 l 354 988 z "},"Ợ":{"ha":879,"x_min":83,"x_max":917,"o":"m 404 76 q 538 119 478 76 q 642 228 599 161 q 708 376 685 294 q 732 538 732 458 q 681 753 732 672 q 521 835 629 835 q 387 793 447 835 q 283 685 326 751 q 217 536 240 618 q 193 374 193 454 q 206 252 193 307 q 244 158 218 197 q 310 98 269 119 q 404 76 350 76 m 901 1063 q 917 997 917 1031 q 872 894 917 938 q 749 838 826 851 q 818 713 794 788 q 842 547 842 639 q 809 342 842 443 q 718 160 776 240 q 578 32 660 81 q 399 -17 496 -17 q 263 10 322 -17 q 165 88 204 38 q 104 208 125 138 q 83 365 83 279 q 116 570 83 469 q 207 751 149 671 q 347 879 265 831 q 526 928 428 928 q 690 885 621 928 q 788 917 750 889 q 826 989 826 944 q 825 1010 826 1000 q 819 1035 824 1019 l 901 1063 m 339 -285 q 291 -269 311 -285 q 271 -222 271 -253 q 295 -165 271 -187 q 351 -142 319 -142 q 399 -158 379 -142 q 419 -206 419 -175 q 395 -262 419 -240 q 339 -285 371 -285 z "},"Ǫ":{"ha":879,"x_min":83,"x_max":842,"o":"m 521 835 q 387 793 447 835 q 283 685 326 751 q 217 536 240 618 q 193 374 193 454 q 206 252 193 307 q 244 158 218 197 q 310 98 269 119 q 404 76 350 76 q 538 119 478 76 q 642 228 599 161 q 708 376 685 294 q 732 538 732 458 q 681 753 732 672 q 521 835 629 835 m 842 547 q 819 372 842 457 q 752 213 796 286 q 644 83 708 139 q 496 -4 579 26 q 376 -80 413 -35 q 339 -165 339 -125 q 353 -204 339 -190 q 389 -218 368 -218 q 439 -203 414 -218 l 463 -261 q 410 -285 439 -276 q 357 -293 381 -293 q 278 -269 308 -293 q 249 -197 249 -244 q 260 -140 249 -168 q 290 -89 272 -112 q 327 -46 307 -65 q 365 -15 347 -26 q 156 98 228 -3 q 83 365 83 199 q 116 570 83 469 q 207 751 149 671 q 347 879 265 831 q 526 928 428 928 q 662 901 603 928 q 760 824 721 874 q 821 703 800 774 q 842 547 842 633 z "},"Ŕ":{"ha":771,"x_min":49,"x_max":765,"o":"m 389 474 q 589 531 519 474 q 658 685 658 588 q 606 792 658 760 q 454 825 554 825 l 321 825 l 251 474 l 389 474 m 481 911 q 597 899 544 911 q 686 862 649 888 q 744 796 724 836 q 765 699 765 756 q 745 585 765 636 q 689 495 725 533 q 604 432 653 457 q 497 396 556 407 l 657 0 l 542 0 l 392 386 l 233 386 l 157 0 l 49 0 l 231 911 l 481 911 m 582 1133 l 703 1133 l 525 981 l 433 981 l 582 1133 z "},"Ř":{"ha":771,"x_min":49,"x_max":765,"o":"m 389 474 q 589 531 519 474 q 658 685 658 588 q 606 792 658 760 q 454 825 554 825 l 321 825 l 251 474 l 389 474 m 481 911 q 597 899 544 911 q 686 862 649 888 q 744 796 724 836 q 765 699 765 756 q 745 585 765 636 q 689 495 725 533 q 604 432 653 457 q 497 396 556 407 l 657 0 l 542 0 l 392 386 l 233 386 l 157 0 l 49 0 l 231 911 l 481 911 m 554 981 l 454 981 l 356 1133 l 438 1133 l 508 1036 l 513 1036 l 621 1133 l 713 1133 l 554 981 z "},"Ŗ":{"ha":771,"x_min":49,"x_max":765,"o":"m 389 474 q 589 531 519 474 q 658 685 658 588 q 606 792 658 760 q 454 825 554 825 l 321 825 l 251 474 l 389 474 m 481 911 q 597 899 544 911 q 686 862 649 888 q 744 796 724 836 q 765 699 765 756 q 745 585 765 636 q 689 495 725 533 q 604 432 653 457 q 497 396 556 407 l 657 0 l 542 0 l 392 386 l 233 386 l 157 0 l 49 0 l 231 911 l 481 911 m 315 -74 q 390 -106 361 -85 q 418 -164 418 -126 q 401 -223 418 -199 q 354 -263 383 -247 q 288 -288 325 -279 q 210 -301 250 -297 l 204 -251 q 301 -224 265 -242 q 338 -172 338 -206 q 322 -138 338 -149 q 283 -121 306 -128 l 315 -74 z "},"Ṛ":{"ha":771,"x_min":49,"x_max":765,"o":"m 389 474 q 589 531 519 474 q 658 685 658 588 q 606 792 658 760 q 454 825 554 825 l 321 825 l 251 474 l 389 474 m 481 911 q 597 899 544 911 q 686 862 649 888 q 744 796 724 836 q 765 699 765 756 q 745 585 765 636 q 689 495 725 533 q 604 432 653 457 q 497 396 556 407 l 657 0 l 542 0 l 392 386 l 233 386 l 157 0 l 49 0 l 231 911 l 481 911 m 315 -296 q 267 -280 288 -296 q 247 -233 247 -264 q 272 -176 247 -199 q 328 -153 296 -153 q 376 -169 356 -153 q 396 -217 396 -186 q 372 -274 396 -251 q 315 -296 347 -296 z "},"Ṝ":{"ha":771,"x_min":49,"x_max":765,"o":"m 389 474 q 589 531 519 474 q 658 685 658 588 q 606 792 658 760 q 454 825 554 825 l 321 825 l 251 474 l 389 474 m 481 911 q 597 899 544 911 q 686 862 649 888 q 744 796 724 836 q 765 699 765 756 q 745 585 765 636 q 689 495 725 533 q 604 432 653 457 q 497 396 556 407 l 657 0 l 542 0 l 392 386 l 233 386 l 157 0 l 49 0 l 231 911 l 481 911 m 360 1088 l 688 1088 l 672 1013 l 344 1013 l 360 1088 m 315 -296 q 267 -280 288 -296 q 247 -233 247 -264 q 272 -176 247 -199 q 328 -153 296 -153 q 376 -169 356 -153 q 396 -217 396 -186 q 372 -274 396 -251 q 315 -296 347 -296 z "},"Ṟ":{"ha":771,"x_min":49,"x_max":765,"o":"m 389 474 q 589 531 519 474 q 658 685 658 588 q 606 792 658 760 q 454 825 554 825 l 321 825 l 251 474 l 389 474 m 481 911 q 597 899 544 911 q 686 862 649 888 q 744 796 724 836 q 765 699 765 756 q 745 585 765 636 q 689 495 725 533 q 604 432 653 457 q 497 396 556 407 l 657 0 l 542 0 l 392 386 l 233 386 l 157 0 l 49 0 l 231 911 l 481 911 m 169 -165 l 496 -165 l 482 -239 l 156 -239 l 169 -165 z "},"Ś":{"ha":703,"x_min":17,"x_max":708,"o":"m 96 204 q 195 109 136 143 q 331 75 254 75 q 408 88 372 75 q 470 122 444 100 q 511 176 496 144 q 526 247 526 208 q 495 331 526 297 q 413 397 464 365 l 307 461 q 208 547 249 497 q 167 675 167 597 q 188 772 167 726 q 247 853 210 818 q 337 908 285 888 q 450 928 389 928 q 599 892 532 928 q 708 800 665 856 l 638 736 q 553 806 601 778 q 442 835 506 835 q 372 822 403 835 q 320 789 342 810 q 288 742 299 768 q 276 688 276 715 q 310 602 276 635 q 394 539 344 569 l 500 476 q 602 388 567 438 q 638 263 638 339 q 614 150 638 201 q 549 62 590 99 q 449 4 507 25 q 321 -17 390 -17 q 149 23 226 -17 q 17 144 72 63 l 96 204 m 560 1136 l 681 1136 l 503 983 l 411 983 l 560 1136 z "},"Ŝ":{"ha":703,"x_min":17,"x_max":708,"o":"m 96 204 q 195 109 136 143 q 331 75 254 75 q 408 88 372 75 q 470 122 444 100 q 511 176 496 144 q 526 247 526 208 q 495 331 526 297 q 413 397 464 365 l 307 461 q 208 547 249 497 q 167 675 167 597 q 188 772 167 726 q 247 853 210 818 q 337 908 285 888 q 450 928 389 928 q 599 892 532 928 q 708 800 665 856 l 638 736 q 553 806 601 778 q 442 835 506 835 q 372 822 403 835 q 320 789 342 810 q 288 742 299 768 q 276 688 276 715 q 310 602 276 635 q 394 539 344 569 l 500 476 q 602 388 567 438 q 638 263 638 339 q 614 150 638 201 q 549 62 590 99 q 449 4 507 25 q 321 -17 390 -17 q 149 23 226 -17 q 17 144 72 63 l 96 204 m 460 1136 l 560 1136 l 658 983 l 576 983 l 506 1081 l 501 1081 l 393 983 l 301 983 l 460 1136 z "},"Š":{"ha":703,"x_min":17,"x_max":708,"o":"m 96 204 q 195 109 136 143 q 331 75 254 75 q 408 88 372 75 q 470 122 444 100 q 511 176 496 144 q 526 247 526 208 q 495 331 526 297 q 413 397 464 365 l 307 461 q 208 547 249 497 q 167 675 167 597 q 188 772 167 726 q 247 853 210 818 q 337 908 285 888 q 450 928 389 928 q 599 892 532 928 q 708 800 665 856 l 638 736 q 553 806 601 778 q 442 835 506 835 q 372 822 403 835 q 320 789 342 810 q 288 742 299 768 q 276 688 276 715 q 310 602 276 635 q 394 539 344 569 l 500 476 q 602 388 567 438 q 638 263 638 339 q 614 150 638 201 q 549 62 590 99 q 449 4 507 25 q 321 -17 390 -17 q 149 23 226 -17 q 17 144 72 63 l 96 204 m 532 983 l 432 983 l 333 1136 l 415 1136 l 486 1039 l 490 1039 l 599 1136 l 690 1136 l 532 983 z "},"Ş":{"ha":703,"x_min":17,"x_max":708,"o":"m 96 204 q 195 109 136 143 q 331 75 254 75 q 408 88 372 75 q 470 122 444 100 q 511 176 496 144 q 526 247 526 208 q 495 331 526 297 q 413 397 464 365 l 307 461 q 208 547 249 497 q 167 675 167 597 q 188 772 167 726 q 247 853 210 818 q 337 908 285 888 q 450 928 389 928 q 599 892 532 928 q 708 800 665 856 l 638 736 q 553 806 601 778 q 442 835 506 835 q 372 822 403 835 q 320 789 342 810 q 288 742 299 768 q 276 688 276 715 q 310 602 276 635 q 394 539 344 569 l 500 476 q 602 388 567 438 q 638 263 638 339 q 614 150 638 201 q 549 62 590 99 q 449 4 507 25 q 321 -17 390 -17 q 149 23 226 -17 q 17 144 72 63 l 96 204 m 286 4 l 358 4 l 306 -74 q 349 -102 331 -83 q 368 -153 368 -121 q 351 -211 368 -186 q 304 -253 333 -236 q 238 -281 275 -271 q 160 -296 200 -292 l 154 -247 q 247 -218 210 -237 q 285 -164 285 -199 q 268 -128 285 -140 q 211 -104 251 -115 l 286 4 z "},"Ș":{"ha":703,"x_min":17,"x_max":708,"o":"m 96 204 q 195 109 136 143 q 331 75 254 75 q 408 88 372 75 q 470 122 444 100 q 511 176 496 144 q 526 247 526 208 q 495 331 526 297 q 413 397 464 365 l 307 461 q 208 547 249 497 q 167 675 167 597 q 188 772 167 726 q 247 853 210 818 q 337 908 285 888 q 450 928 389 928 q 599 892 532 928 q 708 800 665 856 l 638 736 q 553 806 601 778 q 442 835 506 835 q 372 822 403 835 q 320 789 342 810 q 288 742 299 768 q 276 688 276 715 q 310 602 276 635 q 394 539 344 569 l 500 476 q 602 388 567 438 q 638 263 638 339 q 614 150 638 201 q 549 62 590 99 q 449 4 507 25 q 321 -17 390 -17 q 149 23 226 -17 q 17 144 72 63 l 96 204 m 267 -74 q 341 -106 313 -85 q 369 -164 369 -126 q 352 -223 369 -199 q 306 -263 335 -247 q 239 -288 276 -279 q 161 -301 201 -297 l 156 -251 q 253 -224 217 -242 q 289 -172 289 -206 q 273 -138 289 -149 q 235 -121 257 -128 l 267 -74 z "},"Ṡ":{"ha":703,"x_min":17,"x_max":708,"o":"m 96 204 q 195 109 136 143 q 331 75 254 75 q 408 88 372 75 q 470 122 444 100 q 511 176 496 144 q 526 247 526 208 q 495 331 526 297 q 413 397 464 365 l 307 461 q 208 547 249 497 q 167 675 167 597 q 188 772 167 726 q 247 853 210 818 q 337 908 285 888 q 450 928 389 928 q 599 892 532 928 q 708 800 665 856 l 638 736 q 553 806 601 778 q 442 835 506 835 q 372 822 403 835 q 320 789 342 810 q 288 742 299 768 q 276 688 276 715 q 310 602 276 635 q 394 539 344 569 l 500 476 q 602 388 567 438 q 638 263 638 339 q 614 150 638 201 q 549 62 590 99 q 449 4 507 25 q 321 -17 390 -17 q 149 23 226 -17 q 17 144 72 63 l 96 204 m 490 997 q 442 1013 463 997 q 422 1060 422 1029 q 447 1117 422 1093 q 503 1140 471 1140 q 551 1124 531 1140 q 571 1076 571 1107 q 547 1019 571 1042 q 490 997 522 997 z "},"Ṣ":{"ha":703,"x_min":17,"x_max":708,"o":"m 96 204 q 195 109 136 143 q 331 75 254 75 q 408 88 372 75 q 470 122 444 100 q 511 176 496 144 q 526 247 526 208 q 495 331 526 297 q 413 397 464 365 l 307 461 q 208 547 249 497 q 167 675 167 597 q 188 772 167 726 q 247 853 210 818 q 337 908 285 888 q 450 928 389 928 q 599 892 532 928 q 708 800 665 856 l 638 736 q 553 806 601 778 q 442 835 506 835 q 372 822 403 835 q 320 789 342 810 q 288 742 299 768 q 276 688 276 715 q 310 602 276 635 q 394 539 344 569 l 500 476 q 602 388 567 438 q 638 263 638 339 q 614 150 638 201 q 549 62 590 99 q 449 4 507 25 q 321 -17 390 -17 q 149 23 226 -17 q 17 144 72 63 l 96 204 m 267 -296 q 219 -280 239 -296 q 199 -233 199 -264 q 223 -176 199 -199 q 279 -153 247 -153 q 327 -169 307 -153 q 347 -217 347 -186 q 323 -274 347 -251 q 267 -296 299 -296 z "},"ẞ":{"ha":879,"x_min":49,"x_max":824,"o":"m 169 606 q 213 736 183 676 q 288 840 243 796 q 394 908 333 883 q 533 933 456 933 q 724 878 647 933 q 824 696 800 822 l 594 497 q 760 397 703 461 q 817 257 817 333 q 797 149 817 199 q 740 62 776 99 q 654 4 704 25 q 543 -17 604 -17 q 403 15 467 -17 q 297 104 340 46 l 364 169 q 435 99 394 125 q 539 72 476 72 q 604 86 574 72 q 658 124 635 100 q 694 179 681 147 q 707 247 707 211 q 695 301 707 274 q 656 355 683 329 q 585 403 629 381 q 478 442 542 425 l 486 510 l 715 713 q 645 813 693 781 q 526 844 597 844 q 365 778 433 844 q 269 575 297 711 l 157 0 l 49 0 l 169 606 z "},"Ť":{"ha":708,"x_min":129,"x_max":785,"o":"m 393 818 l 129 818 l 147 911 l 785 911 l 767 818 l 501 818 l 339 0 l 231 0 l 393 818 m 515 981 l 415 981 l 317 1133 l 399 1133 l 469 1036 l 474 1036 l 582 1133 l 674 1133 l 515 981 z "},"Ţ":{"ha":708,"x_min":113,"x_max":785,"o":"m 393 818 l 129 818 l 147 911 l 785 911 l 767 818 l 501 818 l 339 0 l 231 0 l 393 818 m 244 4 l 317 4 l 264 -74 q 308 -102 289 -83 q 326 -153 326 -121 q 309 -211 326 -186 q 263 -253 292 -236 q 196 -281 233 -271 q 118 -296 158 -292 l 113 -247 q 206 -218 168 -237 q 243 -164 243 -199 q 226 -128 243 -140 q 169 -104 210 -115 l 244 4 z "},"Ț":{"ha":708,"x_min":129,"x_max":785,"o":"m 393 818 l 129 818 l 147 911 l 785 911 l 767 818 l 501 818 l 339 0 l 231 0 l 393 818 m 244 -62 q 319 -94 290 -74 q 347 -153 347 -115 q 330 -212 347 -187 q 283 -252 313 -236 q 217 -277 254 -268 q 139 -290 179 -286 l 133 -240 q 231 -212 194 -231 q 267 -161 267 -194 q 251 -127 267 -137 q 213 -110 235 -117 l 244 -62 z "},"Ṭ":{"ha":708,"x_min":129,"x_max":785,"o":"m 393 818 l 129 818 l 147 911 l 785 911 l 767 818 l 501 818 l 339 0 l 231 0 l 393 818 m 244 -285 q 197 -269 217 -285 q 176 -222 176 -253 q 201 -165 176 -187 q 257 -142 225 -142 q 305 -158 285 -142 q 325 -206 325 -175 q 301 -262 325 -240 q 244 -285 276 -285 z "},"Ṯ":{"ha":708,"x_min":85,"x_max":785,"o":"m 393 818 l 129 818 l 147 911 l 785 911 l 767 818 l 501 818 l 339 0 l 231 0 l 393 818 m 99 -154 l 425 -154 l 411 -228 l 85 -228 l 99 -154 z "},"Ù":{"ha":856,"x_min":110,"x_max":853,"o":"m 226 911 l 335 911 l 231 390 q 218 281 218 328 q 263 129 218 182 q 403 76 307 76 q 477 92 442 76 q 543 140 513 107 q 597 226 574 174 q 635 353 619 278 l 747 911 l 853 911 l 739 349 q 687 181 719 250 q 610 67 654 111 q 512 3 565 24 q 397 -17 458 -17 q 184 56 258 -17 q 110 271 110 128 q 113 333 110 300 q 124 400 117 365 l 226 911 m 403 1133 l 517 1133 l 611 981 l 526 981 l 403 1133 z "},"Ú":{"ha":856,"x_min":110,"x_max":853,"o":"m 226 911 l 335 911 l 231 390 q 218 281 218 328 q 263 129 218 182 q 403 76 307 76 q 477 92 442 76 q 543 140 513 107 q 597 226 574 174 q 635 353 619 278 l 747 911 l 853 911 l 739 349 q 687 181 719 250 q 610 67 654 111 q 512 3 565 24 q 397 -17 458 -17 q 184 56 258 -17 q 110 271 110 128 q 113 333 110 300 q 124 400 117 365 l 226 911 m 625 1133 l 746 1133 l 568 981 l 476 981 l 625 1133 z "},"Û":{"ha":856,"x_min":110,"x_max":853,"o":"m 226 911 l 335 911 l 231 390 q 218 281 218 328 q 263 129 218 182 q 403 76 307 76 q 477 92 442 76 q 543 140 513 107 q 597 226 574 174 q 635 353 619 278 l 747 911 l 853 911 l 739 349 q 687 181 719 250 q 610 67 654 111 q 512 3 565 24 q 397 -17 458 -17 q 184 56 258 -17 q 110 271 110 128 q 113 333 110 300 q 124 400 117 365 l 226 911 m 525 1133 l 625 1133 l 724 981 l 642 981 l 571 1078 l 567 1078 l 458 981 l 367 981 l 525 1133 z "},"Ũ":{"ha":856,"x_min":110,"x_max":853,"o":"m 226 911 l 335 911 l 231 390 q 218 281 218 328 q 263 129 218 182 q 403 76 307 76 q 477 92 442 76 q 543 140 513 107 q 597 226 574 174 q 635 353 619 278 l 747 911 l 853 911 l 739 349 q 687 181 719 250 q 610 67 654 111 q 512 3 565 24 q 397 -17 458 -17 q 184 56 258 -17 q 110 271 110 128 q 113 333 110 300 q 124 400 117 365 l 226 911 m 354 988 q 375 1044 361 1018 q 407 1091 389 1071 q 446 1122 425 1111 q 490 1133 467 1133 q 535 1122 517 1133 q 569 1095 553 1110 q 600 1069 585 1081 q 636 1057 615 1057 q 675 1076 658 1057 q 704 1131 692 1096 l 765 1131 q 713 1026 750 1068 q 628 985 675 985 q 583 997 601 985 q 550 1023 565 1008 q 519 1050 535 1038 q 483 1063 504 1063 q 444 1042 461 1063 q 415 988 428 1022 l 354 988 z "},"Ü":{"ha":856,"x_min":110,"x_max":853,"o":"m 226 911 l 335 911 l 231 390 q 218 281 218 328 q 263 129 218 182 q 403 76 307 76 q 477 92 442 76 q 543 140 513 107 q 597 226 574 174 q 635 353 619 278 l 747 911 l 853 911 l 739 349 q 687 181 719 250 q 610 67 654 111 q 512 3 565 24 q 397 -17 458 -17 q 184 56 258 -17 q 110 271 110 128 q 113 333 110 300 q 124 400 117 365 l 226 911 m 439 993 q 399 1008 415 993 q 383 1049 383 1022 q 404 1102 383 1079 q 454 1125 425 1125 q 494 1110 478 1125 q 510 1068 510 1096 q 489 1016 510 1039 q 439 993 468 993 m 669 993 q 630 1008 646 993 q 614 1049 614 1022 q 635 1102 614 1079 q 685 1125 656 1125 q 724 1110 708 1125 q 739 1068 739 1096 q 719 1016 739 1039 q 669 993 699 993 z "},"Ū":{"ha":856,"x_min":110,"x_max":853,"o":"m 226 911 l 335 911 l 231 390 q 218 281 218 328 q 263 129 218 182 q 403 76 307 76 q 477 92 442 76 q 543 140 513 107 q 597 226 574 174 q 635 353 619 278 l 747 911 l 853 911 l 739 349 q 687 181 719 250 q 610 67 654 111 q 512 3 565 24 q 397 -17 458 -17 q 184 56 258 -17 q 110 271 110 128 q 113 333 110 300 q 124 400 117 365 l 226 911 m 403 1088 l 731 1088 l 715 1013 l 388 1013 l 403 1088 z "},"Ŭ":{"ha":856,"x_min":110,"x_max":853,"o":"m 226 911 l 335 911 l 231 390 q 218 281 218 328 q 263 129 218 182 q 403 76 307 76 q 477 92 442 76 q 543 140 513 107 q 597 226 574 174 q 635 353 619 278 l 747 911 l 853 911 l 739 349 q 687 181 719 250 q 610 67 654 111 q 512 3 565 24 q 397 -17 458 -17 q 184 56 258 -17 q 110 271 110 128 q 113 333 110 300 q 124 400 117 365 l 226 911 m 546 981 q 482 994 508 981 q 440 1028 456 1007 q 417 1078 424 1050 q 414 1133 411 1106 l 476 1133 q 492 1070 474 1097 q 557 1043 511 1043 q 629 1071 601 1043 q 671 1133 657 1099 l 736 1133 q 710 1076 726 1104 q 672 1028 694 1049 q 617 994 649 1007 q 546 981 586 981 z "},"Ů":{"ha":856,"x_min":110,"x_max":853,"o":"m 226 911 l 335 911 l 231 390 q 218 281 218 328 q 263 129 218 182 q 403 76 307 76 q 477 92 442 76 q 543 140 513 107 q 597 226 574 174 q 635 353 619 278 l 747 911 l 853 911 l 739 349 q 687 181 719 250 q 610 67 654 111 q 512 3 565 24 q 397 -17 458 -17 q 184 56 258 -17 q 110 271 110 128 q 113 333 110 300 q 124 400 117 365 l 226 911 m 556 968 q 473 994 507 968 q 439 1078 439 1021 q 450 1132 439 1107 q 480 1176 461 1157 q 524 1205 499 1194 q 576 1215 549 1215 q 659 1189 625 1215 q 693 1106 693 1163 q 682 1051 693 1076 q 652 1008 671 1026 q 608 978 633 989 q 556 968 583 968 m 574 1165 q 521 1142 543 1165 q 499 1083 499 1118 q 515 1036 499 1054 q 558 1018 531 1018 q 611 1042 589 1018 q 633 1101 633 1065 q 617 1148 633 1131 q 574 1165 601 1165 z "},"Ű":{"ha":856,"x_min":110,"x_max":853,"o":"m 226 911 l 335 911 l 231 390 q 218 281 218 328 q 263 129 218 182 q 403 76 307 76 q 477 92 442 76 q 543 140 513 107 q 597 226 574 174 q 635 353 619 278 l 747 911 l 853 911 l 739 349 q 687 181 719 250 q 610 67 654 111 q 512 3 565 24 q 397 -17 458 -17 q 184 56 258 -17 q 110 271 110 128 q 113 333 110 300 q 124 400 117 365 l 226 911 m 522 1135 l 621 1135 l 478 981 l 401 981 l 522 1135 m 729 1135 l 828 1135 l 685 981 l 608 981 l 729 1135 z "},"Ǔ":{"ha":856,"x_min":110,"x_max":853,"o":"m 226 911 l 335 911 l 231 390 q 218 281 218 328 q 263 129 218 182 q 403 76 307 76 q 477 92 442 76 q 543 140 513 107 q 597 226 574 174 q 635 353 619 278 l 747 911 l 853 911 l 739 349 q 687 181 719 250 q 610 67 654 111 q 512 3 565 24 q 397 -17 458 -17 q 184 56 258 -17 q 110 271 110 128 q 113 333 110 300 q 124 400 117 365 l 226 911 m 597 981 l 497 981 l 399 1133 l 481 1133 l 551 1036 l 556 1036 l 664 1133 l 756 1133 l 597 981 z "},"Ǖ":{"ha":856,"x_min":110,"x_max":853,"o":"m 226 911 l 335 911 l 231 390 q 218 281 218 328 q 263 129 218 182 q 403 76 307 76 q 477 92 442 76 q 543 140 513 107 q 597 226 574 174 q 635 353 619 278 l 747 911 l 853 911 l 739 349 q 687 181 719 250 q 610 67 654 111 q 512 3 565 24 q 397 -17 458 -17 q 184 56 258 -17 q 110 271 110 128 q 113 333 110 300 q 124 400 117 365 l 226 911 m 447 993 q 410 1007 424 993 q 396 1046 396 1021 q 415 1095 396 1072 q 463 1118 433 1118 q 500 1103 486 1118 q 514 1064 514 1088 q 495 1015 514 1036 q 447 993 476 993 m 674 993 q 638 1007 653 993 q 622 1046 622 1021 q 642 1095 622 1072 q 692 1118 661 1118 q 728 1103 713 1118 q 743 1064 743 1088 q 723 1015 743 1036 q 674 993 703 993 m 442 1254 l 769 1254 l 757 1193 l 429 1193 l 442 1254 z "},"Ǘ":{"ha":856,"x_min":110,"x_max":853,"o":"m 226 911 l 335 911 l 231 390 q 218 281 218 328 q 263 129 218 182 q 403 76 307 76 q 477 92 442 76 q 543 140 513 107 q 597 226 574 174 q 635 353 619 278 l 747 911 l 853 911 l 739 349 q 687 181 719 250 q 610 67 654 111 q 512 3 565 24 q 397 -17 458 -17 q 184 56 258 -17 q 110 271 110 128 q 113 333 110 300 q 124 400 117 365 l 226 911 m 667 1314 l 783 1314 l 608 1163 l 519 1163 l 667 1314 m 442 993 q 406 1007 421 993 q 390 1046 390 1021 q 410 1095 390 1072 q 458 1118 429 1118 q 495 1103 481 1118 q 510 1064 510 1088 q 491 1015 510 1036 q 442 993 472 993 m 671 993 q 633 1007 647 993 q 619 1046 619 1021 q 638 1095 619 1072 q 688 1118 657 1118 q 724 1103 710 1118 q 739 1064 739 1088 q 719 1015 739 1036 q 671 993 700 993 z "},"Ǚ":{"ha":856,"x_min":110,"x_max":853,"o":"m 226 911 l 335 911 l 231 390 q 218 281 218 328 q 263 129 218 182 q 403 76 307 76 q 477 92 442 76 q 543 140 513 107 q 597 226 574 174 q 635 353 619 278 l 747 911 l 853 911 l 739 349 q 687 181 719 250 q 610 67 654 111 q 512 3 565 24 q 397 -17 458 -17 q 184 56 258 -17 q 110 271 110 128 q 113 333 110 300 q 124 400 117 365 l 226 911 m 442 993 q 406 1007 421 993 q 390 1046 390 1021 q 410 1095 390 1072 q 458 1118 429 1118 q 495 1103 481 1118 q 510 1064 510 1088 q 491 1015 510 1036 q 442 993 472 993 m 671 993 q 633 1007 647 993 q 619 1046 619 1021 q 638 1095 619 1072 q 688 1118 657 1118 q 724 1103 710 1118 q 739 1064 739 1088 q 719 1015 739 1036 q 671 993 700 993 m 436 1314 l 522 1314 l 592 1217 l 596 1217 l 706 1314 l 793 1314 l 635 1163 l 535 1163 l 436 1314 z "},"Ǜ":{"ha":856,"x_min":110,"x_max":853,"o":"m 226 911 l 335 911 l 231 390 q 218 281 218 328 q 263 129 218 182 q 403 76 307 76 q 477 92 442 76 q 543 140 513 107 q 597 226 574 174 q 635 353 619 278 l 747 911 l 853 911 l 739 349 q 687 181 719 250 q 610 67 654 111 q 512 3 565 24 q 397 -17 458 -17 q 184 56 258 -17 q 110 271 110 128 q 113 333 110 300 q 124 400 117 365 l 226 911 m 444 1314 l 558 1314 l 656 1163 l 568 1163 l 444 1314 m 442 993 q 406 1007 421 993 q 390 1046 390 1021 q 410 1095 390 1072 q 458 1118 429 1118 q 495 1103 481 1118 q 510 1064 510 1088 q 491 1015 510 1036 q 442 993 472 993 m 671 993 q 633 1007 647 993 q 619 1046 619 1021 q 638 1095 619 1072 q 688 1118 657 1118 q 724 1103 710 1118 q 739 1064 739 1088 q 719 1015 739 1036 q 671 993 700 993 z "},"Ụ":{"ha":856,"x_min":110,"x_max":853,"o":"m 226 911 l 335 911 l 231 390 q 218 281 218 328 q 263 129 218 182 q 403 76 307 76 q 477 92 442 76 q 543 140 513 107 q 597 226 574 174 q 635 353 619 278 l 747 911 l 853 911 l 739 349 q 687 181 719 250 q 610 67 654 111 q 512 3 565 24 q 397 -17 458 -17 q 184 56 258 -17 q 110 271 110 128 q 113 333 110 300 q 124 400 117 365 l 226 911 m 321 -285 q 273 -269 293 -285 q 253 -222 253 -253 q 277 -165 253 -187 q 333 -142 301 -142 q 381 -158 361 -142 q 401 -206 401 -175 q 377 -262 401 -240 q 321 -285 353 -285 z "},"Ủ":{"ha":856,"x_min":110,"x_max":853,"o":"m 226 911 l 335 911 l 231 390 q 218 281 218 328 q 263 129 218 182 q 403 76 307 76 q 477 92 442 76 q 543 140 513 107 q 597 226 574 174 q 635 353 619 278 l 747 911 l 853 911 l 739 349 q 687 181 719 250 q 610 67 654 111 q 512 3 565 24 q 397 -17 458 -17 q 184 56 258 -17 q 110 271 110 128 q 113 333 110 300 q 124 400 117 365 l 226 911 m 500 1207 q 626 1176 589 1203 q 664 1111 664 1150 q 615 1016 664 1049 q 493 968 565 983 l 483 1017 q 554 1047 529 1031 q 579 1092 579 1064 q 558 1128 579 1115 q 479 1147 538 1142 l 500 1207 z "},"Ų":{"ha":856,"x_min":110,"x_max":853,"o":"m 739 349 q 699 206 724 265 q 642 105 675 147 q 566 35 608 63 q 471 -10 524 8 q 402 -42 431 -24 q 355 -83 374 -61 q 328 -126 336 -104 q 319 -165 319 -147 q 334 -204 319 -190 q 369 -218 349 -218 q 419 -203 394 -218 l 443 -261 q 390 -285 419 -276 q 338 -293 361 -293 q 259 -269 289 -293 q 229 -197 229 -244 q 240 -147 229 -172 q 267 -97 250 -121 q 304 -51 283 -72 q 346 -14 325 -29 q 170 73 231 1 q 110 271 110 144 q 113 333 110 300 q 124 400 117 365 l 226 911 l 335 911 l 231 390 q 218 281 218 328 q 263 129 218 182 q 403 76 307 76 q 477 92 442 76 q 543 140 513 107 q 597 226 574 174 q 635 353 619 278 l 747 911 l 853 911 l 739 349 z "},"Ư":{"ha":874,"x_min":110,"x_max":1021,"o":"m 1007 1089 q 1021 1024 1021 1056 q 978 921 1021 967 q 843 861 935 875 l 739 349 q 687 181 719 250 q 610 67 654 111 q 512 3 565 24 q 397 -17 458 -17 q 184 56 258 -17 q 110 271 110 128 q 113 333 110 300 q 124 400 117 365 l 226 911 l 335 911 l 231 390 q 218 281 218 328 q 263 129 218 182 q 403 76 307 76 q 477 92 442 76 q 543 140 513 107 q 597 226 574 174 q 635 353 619 278 l 747 911 l 796 911 q 892 942 854 914 q 931 1014 931 971 q 929 1035 931 1025 q 924 1060 928 1046 l 1007 1089 z "},"Ứ":{"ha":874,"x_min":110,"x_max":1021,"o":"m 1007 1089 q 1021 1024 1021 1056 q 978 921 1021 967 q 843 861 935 875 l 739 349 q 687 181 719 250 q 610 67 654 111 q 512 3 565 24 q 397 -17 458 -17 q 184 56 258 -17 q 110 271 110 128 q 113 333 110 300 q 124 400 117 365 l 226 911 l 335 911 l 231 390 q 218 281 218 328 q 263 129 218 182 q 403 76 307 76 q 477 92 442 76 q 543 140 513 107 q 597 226 574 174 q 635 353 619 278 l 747 911 l 796 911 q 892 942 854 914 q 931 1014 931 971 q 929 1035 931 1025 q 924 1060 928 1046 l 1007 1089 m 621 1133 l 742 1133 l 564 981 l 472 981 l 621 1133 z "},"Ừ":{"ha":874,"x_min":110,"x_max":1021,"o":"m 1007 1089 q 1021 1024 1021 1056 q 978 921 1021 967 q 843 861 935 875 l 739 349 q 687 181 719 250 q 610 67 654 111 q 512 3 565 24 q 397 -17 458 -17 q 184 56 258 -17 q 110 271 110 128 q 113 333 110 300 q 124 400 117 365 l 226 911 l 335 911 l 231 390 q 218 281 218 328 q 263 129 218 182 q 403 76 307 76 q 477 92 442 76 q 543 140 513 107 q 597 226 574 174 q 635 353 619 278 l 747 911 l 796 911 q 892 942 854 914 q 931 1014 931 971 q 929 1035 931 1025 q 924 1060 928 1046 l 1007 1089 m 399 1133 l 513 1133 l 607 981 l 522 981 l 399 1133 z "},"Ử":{"ha":874,"x_min":110,"x_max":1021,"o":"m 1007 1089 q 1021 1024 1021 1056 q 978 921 1021 967 q 843 861 935 875 l 739 349 q 687 181 719 250 q 610 67 654 111 q 512 3 565 24 q 397 -17 458 -17 q 184 56 258 -17 q 110 271 110 128 q 113 333 110 300 q 124 400 117 365 l 226 911 l 335 911 l 231 390 q 218 281 218 328 q 263 129 218 182 q 403 76 307 76 q 477 92 442 76 q 543 140 513 107 q 597 226 574 174 q 635 353 619 278 l 747 911 l 796 911 q 892 942 854 914 q 931 1014 931 971 q 929 1035 931 1025 q 924 1060 928 1046 l 1007 1089 m 496 1207 q 622 1176 585 1203 q 660 1111 660 1150 q 610 1016 660 1049 q 489 968 561 983 l 479 1017 q 550 1047 525 1031 q 575 1092 575 1064 q 554 1128 575 1115 q 475 1147 533 1142 l 496 1207 z "},"Ữ":{"ha":874,"x_min":110,"x_max":1021,"o":"m 1007 1089 q 1021 1024 1021 1056 q 978 921 1021 967 q 843 861 935 875 l 739 349 q 687 181 719 250 q 610 67 654 111 q 512 3 565 24 q 397 -17 458 -17 q 184 56 258 -17 q 110 271 110 128 q 113 333 110 300 q 124 400 117 365 l 226 911 l 335 911 l 231 390 q 218 281 218 328 q 263 129 218 182 q 403 76 307 76 q 477 92 442 76 q 543 140 513 107 q 597 226 574 174 q 635 353 619 278 l 747 911 l 796 911 q 892 942 854 914 q 931 1014 931 971 q 929 1035 931 1025 q 924 1060 928 1046 l 1007 1089 m 350 988 q 371 1044 357 1018 q 403 1091 385 1071 q 442 1122 421 1111 q 486 1133 463 1133 q 531 1122 513 1133 q 565 1095 549 1110 q 596 1069 581 1081 q 632 1057 611 1057 q 671 1076 654 1057 q 700 1131 688 1096 l 761 1131 q 708 1026 746 1068 q 624 985 671 985 q 579 997 597 985 q 546 1023 561 1008 q 515 1050 531 1038 q 479 1063 500 1063 q 440 1042 457 1063 q 411 988 424 1022 l 350 988 z "},"Ự":{"ha":874,"x_min":110,"x_max":1021,"o":"m 1007 1089 q 1021 1024 1021 1056 q 978 921 1021 967 q 843 861 935 875 l 739 349 q 687 181 719 250 q 610 67 654 111 q 512 3 565 24 q 397 -17 458 -17 q 184 56 258 -17 q 110 271 110 128 q 113 333 110 300 q 124 400 117 365 l 226 911 l 335 911 l 231 390 q 218 281 218 328 q 263 129 218 182 q 403 76 307 76 q 477 92 442 76 q 543 140 513 107 q 597 226 574 174 q 635 353 619 278 l 747 911 l 796 911 q 892 942 854 914 q 931 1014 931 971 q 929 1035 931 1025 q 924 1060 928 1046 l 1007 1089 m 322 -285 q 274 -269 294 -285 q 254 -222 254 -253 q 278 -165 254 -187 q 335 -142 303 -142 q 383 -158 363 -142 q 403 -206 403 -175 q 378 -262 403 -240 q 322 -285 354 -285 z "},"Ẁ":{"ha":1050,"x_min":132,"x_max":1128,"o":"m 144 911 l 256 911 l 242 410 q 235 263 238 336 q 228 114 233 189 l 233 114 q 299 263 265 189 q 363 410 332 336 l 590 911 l 689 911 l 701 410 q 703 263 703 338 q 703 114 703 189 l 708 114 q 766 263 736 189 q 824 410 796 336 l 1021 911 l 1128 911 l 753 0 l 615 0 l 606 557 q 606 662 606 607 q 610 771 607 717 l 604 771 q 562 664 585 717 q 515 557 539 611 l 267 0 l 132 0 l 144 911 m 493 1133 l 607 1133 l 701 981 l 617 981 l 493 1133 z "},"Ẃ":{"ha":1050,"x_min":132,"x_max":1128,"o":"m 144 911 l 256 911 l 242 410 q 235 263 238 336 q 228 114 233 189 l 233 114 q 299 263 265 189 q 363 410 332 336 l 590 911 l 689 911 l 701 410 q 703 263 703 338 q 703 114 703 189 l 708 114 q 766 263 736 189 q 824 410 796 336 l 1021 911 l 1128 911 l 753 0 l 615 0 l 606 557 q 606 662 606 607 q 610 771 607 717 l 604 771 q 562 664 585 717 q 515 557 539 611 l 267 0 l 132 0 l 144 911 m 715 1133 l 836 1133 l 658 981 l 567 981 l 715 1133 z "},"Ŵ":{"ha":1050,"x_min":132,"x_max":1128,"o":"m 144 911 l 256 911 l 242 410 q 235 263 238 336 q 228 114 233 189 l 233 114 q 299 263 265 189 q 363 410 332 336 l 590 911 l 689 911 l 701 410 q 703 263 703 338 q 703 114 703 189 l 708 114 q 766 263 736 189 q 824 410 796 336 l 1021 911 l 1128 911 l 753 0 l 615 0 l 606 557 q 606 662 606 607 q 610 771 607 717 l 604 771 q 562 664 585 717 q 515 557 539 611 l 267 0 l 132 0 l 144 911 m 615 1133 l 715 1133 l 814 981 l 732 981 l 661 1078 l 657 1078 l 549 981 l 457 981 l 615 1133 z "},"Ẅ":{"ha":1050,"x_min":132,"x_max":1128,"o":"m 144 911 l 256 911 l 242 410 q 235 263 238 336 q 228 114 233 189 l 233 114 q 299 263 265 189 q 363 410 332 336 l 590 911 l 689 911 l 701 410 q 703 263 703 338 q 703 114 703 189 l 708 114 q 766 263 736 189 q 824 410 796 336 l 1021 911 l 1128 911 l 753 0 l 615 0 l 606 557 q 606 662 606 607 q 610 771 607 717 l 604 771 q 562 664 585 717 q 515 557 539 611 l 267 0 l 132 0 l 144 911 m 529 993 q 490 1008 506 993 q 474 1049 474 1022 q 494 1102 474 1079 q 544 1125 515 1125 q 584 1110 568 1125 q 600 1068 600 1096 q 579 1016 600 1039 q 529 993 558 993 m 760 993 q 720 1008 736 993 q 704 1049 704 1022 q 725 1102 704 1079 q 775 1125 746 1125 q 814 1110 799 1125 q 829 1068 829 1096 q 809 1016 829 1039 q 760 993 789 993 z "},"Ỳ":{"ha":640,"x_min":115,"x_max":753,"o":"m 264 356 l 115 911 l 226 911 l 289 649 q 312 551 301 599 q 335 451 322 504 l 340 451 q 402 551 372 503 q 465 650 432 600 l 638 911 l 753 911 l 372 356 l 300 0 l 193 0 l 264 356 m 283 1133 l 397 1133 l 492 981 l 407 981 l 283 1133 z "},"Ý":{"ha":640,"x_min":115,"x_max":753,"o":"m 264 356 l 115 911 l 226 911 l 289 649 q 312 551 301 599 q 335 451 322 504 l 340 451 q 402 551 372 503 q 465 650 432 600 l 638 911 l 753 911 l 372 356 l 300 0 l 193 0 l 264 356 m 506 1133 l 626 1133 l 449 981 l 357 981 l 506 1133 z "},"Ŷ":{"ha":640,"x_min":115,"x_max":753,"o":"m 264 356 l 115 911 l 226 911 l 289 649 q 312 551 301 599 q 335 451 322 504 l 340 451 q 402 551 372 503 q 465 650 432 600 l 638 911 l 753 911 l 372 356 l 300 0 l 193 0 l 264 356 m 406 1133 l 506 1133 l 604 981 l 522 981 l 451 1078 l 447 1078 l 339 981 l 247 981 l 406 1133 z "},"Ÿ":{"ha":640,"x_min":115,"x_max":753,"o":"m 264 356 l 115 911 l 226 911 l 289 649 q 312 551 301 599 q 335 451 322 504 l 340 451 q 402 551 372 503 q 465 650 432 600 l 638 911 l 753 911 l 372 356 l 300 0 l 193 0 l 264 356 m 319 993 q 280 1008 296 993 q 264 1049 264 1022 q 285 1102 264 1079 q 335 1125 306 1125 q 374 1110 358 1125 q 390 1068 390 1096 q 369 1016 390 1039 q 319 993 349 993 m 550 993 q 510 1008 526 993 q 494 1049 494 1022 q 515 1102 494 1079 q 565 1125 536 1125 q 604 1110 589 1125 q 619 1068 619 1096 q 599 1016 619 1039 q 550 993 579 993 z "},"Ẏ":{"ha":640,"x_min":115,"x_max":753,"o":"m 264 356 l 115 911 l 226 911 l 289 649 q 312 551 301 599 q 335 451 322 504 l 340 451 q 402 551 372 503 q 465 650 432 600 l 638 911 l 753 911 l 372 356 l 300 0 l 193 0 l 264 356 m 436 994 q 388 1010 408 994 q 368 1057 368 1026 q 392 1114 368 1090 q 449 1138 417 1138 q 497 1121 476 1138 q 517 1074 517 1104 q 492 1017 517 1039 q 436 994 468 994 z "},"Ỵ":{"ha":640,"x_min":115,"x_max":753,"o":"m 264 356 l 115 911 l 226 911 l 289 649 q 312 551 301 599 q 335 451 322 504 l 340 451 q 402 551 372 503 q 465 650 432 600 l 638 911 l 753 911 l 372 356 l 300 0 l 193 0 l 264 356 m 210 -296 q 162 -280 182 -296 q 142 -233 142 -264 q 166 -176 142 -199 q 222 -153 190 -153 q 270 -169 250 -153 q 290 -217 290 -186 q 266 -274 290 -251 q 210 -296 242 -296 z "},"Ỷ":{"ha":640,"x_min":115,"x_max":753,"o":"m 264 356 l 115 911 l 226 911 l 289 649 q 312 551 301 599 q 335 451 322 504 l 340 451 q 402 551 372 503 q 465 650 432 600 l 638 911 l 753 911 l 372 356 l 300 0 l 193 0 l 264 356 m 381 1207 q 507 1176 469 1203 q 544 1111 544 1150 q 495 1016 544 1049 q 374 968 446 983 l 364 1017 q 435 1047 410 1031 q 460 1092 460 1064 q 439 1128 460 1115 q 360 1147 418 1142 l 381 1207 z "},"Ỹ":{"ha":640,"x_min":115,"x_max":753,"o":"m 264 356 l 115 911 l 226 911 l 289 649 q 312 551 301 599 q 335 451 322 504 l 340 451 q 402 551 372 503 q 465 650 432 600 l 638 911 l 753 911 l 372 356 l 300 0 l 193 0 l 264 356 m 235 988 q 256 1044 242 1018 q 288 1091 269 1071 q 326 1122 306 1111 q 371 1133 347 1133 q 415 1122 397 1133 q 449 1095 433 1110 q 481 1069 465 1081 q 517 1057 496 1057 q 556 1076 539 1057 q 585 1131 572 1096 l 646 1131 q 593 1026 631 1068 q 508 985 556 985 q 464 997 482 985 q 431 1023 446 1008 q 400 1050 415 1038 q 364 1063 385 1063 q 325 1042 342 1063 q 296 988 308 1022 l 235 988 z "},"Ź":{"ha":711,"x_min":-1,"x_max":751,"o":"m 13 65 l 603 821 l 186 821 l 206 911 l 751 911 l 738 847 l 151 92 l 611 92 l 590 0 l -1 0 l 13 65 m 558 1133 l 679 1133 l 501 981 l 410 981 l 558 1133 z "},"Ž":{"ha":711,"x_min":-1,"x_max":751,"o":"m 13 65 l 603 821 l 186 821 l 206 911 l 751 911 l 738 847 l 151 92 l 611 92 l 590 0 l -1 0 l 13 65 m 531 981 l 431 981 l 332 1133 l 414 1133 l 485 1036 l 489 1036 l 597 1133 l 689 1133 l 531 981 z "},"Ż":{"ha":711,"x_min":-1,"x_max":751,"o":"m 13 65 l 603 821 l 186 821 l 206 911 l 751 911 l 738 847 l 151 92 l 611 92 l 590 0 l -1 0 l 13 65 m 489 994 q 441 1010 461 994 q 421 1057 421 1026 q 445 1114 421 1090 q 501 1138 469 1138 q 549 1121 529 1138 q 569 1074 569 1104 q 545 1017 569 1039 q 489 994 521 994 z "},"Ẓ":{"ha":711,"x_min":-1,"x_max":751,"o":"m 13 65 l 603 821 l 186 821 l 206 911 l 751 911 l 738 847 l 151 92 l 611 92 l 590 0 l -1 0 l 13 65 m 247 -296 q 199 -280 219 -296 q 179 -233 179 -264 q 203 -176 179 -199 q 260 -153 228 -153 q 308 -169 288 -153 q 328 -217 328 -186 q 303 -274 328 -251 q 247 -296 279 -296 z "},"Ð":{"ha":847,"x_min":65,"x_max":811,"o":"m 318 89 q 478 123 407 89 q 599 217 549 157 q 675 363 649 278 q 701 549 701 447 q 631 751 701 679 q 421 824 560 824 l 346 824 l 283 511 l 492 511 l 478 450 l 271 450 l 199 89 l 318 89 m 425 911 q 713 817 615 911 q 811 556 811 724 q 777 329 811 432 q 680 153 743 226 q 525 40 617 81 q 318 0 433 0 l 74 0 l 164 450 l 65 450 l 78 507 l 175 511 l 256 911 l 425 911 z "},"Þ":{"ha":781,"x_min":49,"x_max":743,"o":"m 231 917 l 339 917 l 307 757 l 467 757 q 580 744 529 757 q 667 705 631 732 q 723 635 703 678 q 743 535 743 593 q 713 390 743 451 q 631 290 683 329 q 505 231 578 250 q 344 211 432 211 l 197 211 l 156 0 l 49 0 l 231 917 m 347 299 q 563 355 490 299 q 636 519 636 411 q 585 634 636 599 q 435 669 533 669 l 289 669 l 217 299 l 347 299 z "},"Ə":{"ha":883,"x_min":88,"x_max":847,"o":"m 193 397 q 192 263 182 322 q 230 161 203 203 q 299 97 257 119 q 393 75 340 75 q 503 99 451 75 q 599 165 556 122 q 675 266 643 207 q 724 397 707 325 l 193 397 m 267 824 q 388 902 318 871 q 542 933 458 933 q 677 906 619 933 q 772 830 735 879 q 828 710 810 781 q 847 554 847 640 q 810 325 847 429 q 711 144 774 221 q 565 26 649 68 q 386 -17 481 -17 q 260 8 315 -17 q 166 78 204 33 q 108 187 128 124 q 88 325 88 250 q 93 404 88 369 q 110 479 99 439 l 738 479 q 740 510 739 494 q 740 542 740 526 q 729 665 740 610 q 693 760 718 721 q 628 820 668 799 q 531 842 589 842 q 413 815 465 842 q 315 750 360 789 l 267 824 z "},"à":{"ha":746,"x_min":54,"x_max":700,"o":"m 54 228 q 85 410 54 325 q 167 557 115 494 q 283 656 218 619 q 419 692 349 692 q 516 664 474 692 q 582 590 558 636 l 588 590 l 614 675 l 700 675 l 565 0 l 478 0 l 489 100 l 483 100 q 374 15 435 47 q 249 -17 313 -17 q 107 46 160 -17 q 54 228 54 108 m 288 72 q 395 103 340 72 q 500 201 450 135 l 561 503 q 497 579 532 556 q 424 603 463 603 q 326 573 374 603 q 243 493 279 543 q 185 378 207 443 q 164 244 164 314 q 197 115 164 157 q 288 72 231 72 m 349 989 l 453 989 l 535 793 l 457 793 l 349 989 z "},"á":{"ha":746,"x_min":54,"x_max":700,"o":"m 54 228 q 85 410 54 325 q 167 557 115 494 q 283 656 218 619 q 419 692 349 692 q 516 664 474 692 q 582 590 558 636 l 588 590 l 614 675 l 700 675 l 565 0 l 478 0 l 489 100 l 483 100 q 374 15 435 47 q 249 -17 313 -17 q 107 46 160 -17 q 54 228 54 108 m 288 72 q 395 103 340 72 q 500 201 450 135 l 561 503 q 497 579 532 556 q 424 603 463 603 q 326 573 374 603 q 243 493 279 543 q 185 378 207 443 q 164 244 164 314 q 197 115 164 157 q 288 72 231 72 m 522 989 l 636 989 l 447 793 l 361 793 l 522 989 z "},"â":{"ha":746,"x_min":54,"x_max":700,"o":"m 54 228 q 85 410 54 325 q 167 557 115 494 q 283 656 218 619 q 419 692 349 692 q 516 664 474 692 q 582 590 558 636 l 588 590 l 614 675 l 700 675 l 565 0 l 478 0 l 489 100 l 483 100 q 374 15 435 47 q 249 -17 313 -17 q 107 46 160 -17 q 54 228 54 108 m 288 72 q 395 103 340 72 q 500 201 450 135 l 561 503 q 497 579 532 556 q 424 603 463 603 q 326 573 374 603 q 243 493 279 543 q 185 378 207 443 q 164 244 164 314 q 197 115 164 157 q 288 72 231 72 m 451 989 l 531 989 l 622 793 l 549 793 l 483 921 l 478 921 l 363 793 l 282 793 l 451 989 z "},"ã":{"ha":746,"x_min":54,"x_max":700,"o":"m 54 228 q 85 410 54 325 q 167 557 115 494 q 283 656 218 619 q 419 692 349 692 q 516 664 474 692 q 582 590 558 636 l 588 590 l 614 675 l 700 675 l 565 0 l 478 0 l 489 100 l 483 100 q 374 15 435 47 q 249 -17 313 -17 q 107 46 160 -17 q 54 228 54 108 m 288 72 q 395 103 340 72 q 500 201 450 135 l 561 503 q 497 579 532 556 q 424 603 463 603 q 326 573 374 603 q 243 493 279 543 q 185 378 207 443 q 164 244 164 314 q 197 115 164 157 q 288 72 231 72 m 269 806 q 322 908 288 868 q 400 947 356 947 q 449 935 429 947 q 483 910 468 924 q 513 885 499 897 q 550 874 528 874 q 583 893 568 874 q 613 944 599 913 l 674 944 q 622 842 656 882 q 543 803 588 803 q 494 815 513 803 q 460 840 475 826 q 429 865 444 853 q 392 876 414 876 q 360 857 375 876 q 331 806 344 838 l 269 806 z "},"ä":{"ha":746,"x_min":54,"x_max":700,"o":"m 54 228 q 85 410 54 325 q 167 557 115 494 q 283 656 218 619 q 419 692 349 692 q 516 664 474 692 q 582 590 558 636 l 588 590 l 614 675 l 700 675 l 565 0 l 478 0 l 489 100 l 483 100 q 374 15 435 47 q 249 -17 313 -17 q 107 46 160 -17 q 54 228 54 108 m 288 72 q 395 103 340 72 q 500 201 450 135 l 561 503 q 497 579 532 556 q 424 603 463 603 q 326 573 374 603 q 243 493 279 543 q 185 378 207 443 q 164 244 164 314 q 197 115 164 157 q 288 72 231 72 m 347 818 q 308 833 324 818 q 292 874 292 847 q 313 928 292 906 q 363 950 333 950 q 403 935 388 950 q 419 892 419 919 q 398 839 419 860 q 347 818 376 818 m 578 818 q 538 833 554 818 q 522 874 522 847 q 543 928 522 906 q 593 950 564 950 q 633 935 618 950 q 649 892 649 919 q 628 839 649 860 q 578 818 607 818 z "},"ā":{"ha":746,"x_min":54,"x_max":700,"o":"m 54 228 q 85 410 54 325 q 167 557 115 494 q 283 656 218 619 q 419 692 349 692 q 516 664 474 692 q 582 590 558 636 l 588 590 l 614 675 l 700 675 l 565 0 l 478 0 l 489 100 l 483 100 q 374 15 435 47 q 249 -17 313 -17 q 107 46 160 -17 q 54 228 54 108 m 288 72 q 395 103 340 72 q 500 201 450 135 l 561 503 q 497 579 532 556 q 424 603 463 603 q 326 573 374 603 q 243 493 279 543 q 185 378 207 443 q 164 244 164 314 q 197 115 164 157 q 288 72 231 72 m 311 910 l 636 910 l 624 835 l 297 835 l 311 910 z "},"ă":{"ha":746,"x_min":54,"x_max":700,"o":"m 54 228 q 85 410 54 325 q 167 557 115 494 q 283 656 218 619 q 419 692 349 692 q 516 664 474 692 q 582 590 558 636 l 588 590 l 614 675 l 700 675 l 565 0 l 478 0 l 489 100 l 483 100 q 374 15 435 47 q 249 -17 313 -17 q 107 46 160 -17 q 54 228 54 108 m 288 72 q 395 103 340 72 q 500 201 450 135 l 561 503 q 497 579 532 556 q 424 603 463 603 q 326 573 374 603 q 243 493 279 543 q 185 378 207 443 q 164 244 164 314 q 197 115 164 157 q 288 72 231 72 m 453 799 q 384 814 411 799 q 342 853 357 829 q 322 909 326 878 q 322 972 318 940 l 385 972 q 399 893 381 924 q 463 863 417 863 q 542 894 510 863 q 589 972 574 926 l 656 972 q 629 909 646 940 q 588 853 613 878 q 529 814 563 829 q 453 799 496 799 z "},"å":{"ha":746,"x_min":54,"x_max":700,"o":"m 54 228 q 85 410 54 325 q 167 557 115 494 q 283 656 218 619 q 419 692 349 692 q 516 664 474 692 q 582 590 558 636 l 588 590 l 614 675 l 700 675 l 565 0 l 478 0 l 489 100 l 483 100 q 374 15 435 47 q 249 -17 313 -17 q 107 46 160 -17 q 54 228 54 108 m 288 72 q 395 103 340 72 q 500 201 450 135 l 561 503 q 497 579 532 556 q 424 603 463 603 q 326 573 374 603 q 243 493 279 543 q 185 378 207 443 q 164 244 164 314 q 197 115 164 157 q 288 72 231 72 m 460 750 q 376 779 410 750 q 343 864 343 808 q 353 919 343 893 q 383 964 364 944 q 426 994 401 983 q 479 1006 451 1006 q 562 976 529 1006 q 594 892 594 947 q 584 837 594 863 q 556 792 574 811 q 513 761 538 772 q 460 750 488 750 m 476 956 q 426 930 447 956 q 404 868 404 904 q 419 819 404 838 q 463 800 435 800 q 513 826 492 800 q 535 889 535 853 q 519 937 535 918 q 476 956 504 956 z "},"ǎ":{"ha":746,"x_min":54,"x_max":700,"o":"m 54 228 q 85 410 54 325 q 167 557 115 494 q 283 656 218 619 q 419 692 349 692 q 516 664 474 692 q 582 590 558 636 l 588 590 l 614 675 l 700 675 l 565 0 l 478 0 l 489 100 l 483 100 q 374 15 435 47 q 249 -17 313 -17 q 107 46 160 -17 q 54 228 54 108 m 288 72 q 395 103 340 72 q 500 201 450 135 l 561 503 q 497 579 532 556 q 424 603 463 603 q 326 573 374 603 q 243 493 279 543 q 185 378 207 443 q 164 244 164 314 q 197 115 164 157 q 288 72 231 72 m 494 793 l 414 793 l 322 989 l 396 989 l 461 863 l 467 863 l 582 989 l 664 989 l 494 793 z "},"ạ":{"ha":746,"x_min":54,"x_max":700,"o":"m 54 228 q 85 410 54 325 q 167 557 115 494 q 283 656 218 619 q 419 692 349 692 q 516 664 474 692 q 582 590 558 636 l 588 590 l 614 675 l 700 675 l 565 0 l 478 0 l 489 100 l 483 100 q 374 15 435 47 q 249 -17 313 -17 q 107 46 160 -17 q 54 228 54 108 m 288 72 q 395 103 340 72 q 500 201 450 135 l 561 503 q 497 579 532 556 q 424 603 463 603 q 326 573 374 603 q 243 493 279 543 q 185 378 207 443 q 164 244 164 314 q 197 115 164 157 q 288 72 231 72 m 279 -285 q 231 -269 251 -285 q 211 -222 211 -253 q 235 -165 211 -187 q 292 -142 260 -142 q 340 -158 319 -142 q 360 -206 360 -175 q 335 -262 360 -240 q 279 -285 311 -285 z "},"ả":{"ha":746,"x_min":54,"x_max":700,"o":"m 54 228 q 85 410 54 325 q 167 557 115 494 q 283 656 218 619 q 419 692 349 692 q 516 664 474 692 q 582 590 558 636 l 588 590 l 614 675 l 700 675 l 565 0 l 478 0 l 489 100 l 483 100 q 374 15 435 47 q 249 -17 313 -17 q 107 46 160 -17 q 54 228 54 108 m 288 72 q 395 103 340 72 q 500 201 450 135 l 561 503 q 497 579 532 556 q 424 603 463 603 q 326 573 374 603 q 243 493 279 543 q 185 378 207 443 q 164 244 164 314 q 197 115 164 157 q 288 72 231 72 m 431 1006 q 558 976 521 1003 q 594 911 594 950 q 581 856 594 879 q 545 815 568 832 q 492 786 522 797 q 425 767 461 775 l 417 817 q 486 847 461 831 q 511 892 511 864 q 490 928 511 915 q 411 947 469 942 l 431 1006 z "},"ấ":{"ha":746,"x_min":54,"x_max":813,"o":"m 54 228 q 85 410 54 325 q 167 557 115 494 q 283 656 218 619 q 419 692 349 692 q 516 664 474 692 q 582 590 558 636 l 588 590 l 614 675 l 700 675 l 565 0 l 478 0 l 489 100 l 483 100 q 374 15 435 47 q 249 -17 313 -17 q 107 46 160 -17 q 54 228 54 108 m 288 72 q 395 103 340 72 q 500 201 450 135 l 561 503 q 497 579 532 556 q 424 603 463 603 q 326 573 374 603 q 243 493 279 543 q 185 378 207 443 q 164 244 164 314 q 197 115 164 157 q 288 72 231 72 m 444 958 l 525 958 l 603 793 l 535 793 l 478 894 l 472 894 l 375 793 l 299 793 l 444 958 m 721 1044 l 813 1044 l 664 886 l 594 886 l 721 1044 z "},"ầ":{"ha":746,"x_min":54,"x_max":733,"o":"m 54 228 q 85 410 54 325 q 167 557 115 494 q 283 656 218 619 q 419 692 349 692 q 516 664 474 692 q 582 590 558 636 l 588 590 l 614 675 l 700 675 l 565 0 l 478 0 l 489 100 l 483 100 q 374 15 435 47 q 249 -17 313 -17 q 107 46 160 -17 q 54 228 54 108 m 288 72 q 395 103 340 72 q 500 201 450 135 l 561 503 q 497 579 532 556 q 424 603 463 603 q 326 573 374 603 q 243 493 279 543 q 185 378 207 443 q 164 244 164 314 q 197 115 164 157 q 288 72 231 72 m 733 886 l 668 886 l 581 1044 l 667 1044 l 733 886 m 444 958 l 525 958 l 603 793 l 535 793 l 478 894 l 472 894 l 375 793 l 299 793 l 444 958 z "},"ẩ":{"ha":746,"x_min":54,"x_max":771,"o":"m 54 228 q 85 410 54 325 q 167 557 115 494 q 283 656 218 619 q 419 692 349 692 q 516 664 474 692 q 582 590 558 636 l 588 590 l 614 675 l 700 675 l 565 0 l 478 0 l 489 100 l 483 100 q 374 15 435 47 q 249 -17 313 -17 q 107 46 160 -17 q 54 228 54 108 m 288 72 q 395 103 340 72 q 500 201 450 135 l 561 503 q 497 579 532 556 q 424 603 463 603 q 326 573 374 603 q 243 493 279 543 q 185 378 207 443 q 164 244 164 314 q 197 115 164 157 q 288 72 231 72 m 626 1090 q 737 1063 703 1086 q 771 1003 771 1039 q 730 915 771 943 q 622 871 689 886 l 615 915 q 675 942 657 926 q 693 985 693 958 q 675 1020 693 1008 q 608 1038 657 1032 l 626 1090 m 444 958 l 525 958 l 603 793 l 535 793 l 478 894 l 472 894 l 375 793 l 299 793 l 444 958 z "},"ẫ":{"ha":746,"x_min":54,"x_max":700,"o":"m 54 228 q 85 410 54 325 q 167 557 115 494 q 283 656 218 619 q 419 692 349 692 q 516 664 474 692 q 582 590 558 636 l 588 590 l 614 675 l 700 675 l 565 0 l 478 0 l 489 100 l 483 100 q 374 15 435 47 q 249 -17 313 -17 q 107 46 160 -17 q 54 228 54 108 m 288 72 q 395 103 340 72 q 500 201 450 135 l 561 503 q 497 579 532 556 q 424 603 463 603 q 326 573 374 603 q 243 493 279 543 q 185 378 207 443 q 164 244 164 314 q 197 115 164 157 q 288 72 231 72 m 618 793 l 546 793 l 475 879 l 469 879 l 367 793 l 286 793 l 432 933 l 528 933 l 618 793 m 318 985 q 368 1074 335 1040 q 438 1108 401 1108 q 481 1099 464 1108 q 513 1077 499 1089 q 540 1056 526 1065 q 571 1046 553 1046 q 605 1063 588 1046 q 632 1107 622 1079 l 686 1107 q 636 1017 669 1051 q 567 983 603 983 q 523 993 540 983 q 492 1015 506 1003 q 465 1036 478 1026 q 433 1046 451 1046 q 401 1029 418 1046 q 374 985 383 1013 l 318 985 z "},"ậ":{"ha":746,"x_min":54,"x_max":700,"o":"m 54 228 q 85 410 54 325 q 167 557 115 494 q 283 656 218 619 q 419 692 349 692 q 516 664 474 692 q 582 590 558 636 l 588 590 l 614 675 l 700 675 l 565 0 l 478 0 l 489 100 l 483 100 q 374 15 435 47 q 249 -17 313 -17 q 107 46 160 -17 q 54 228 54 108 m 288 72 q 395 103 340 72 q 500 201 450 135 l 561 503 q 497 579 532 556 q 424 603 463 603 q 326 573 374 603 q 243 493 279 543 q 185 378 207 443 q 164 244 164 314 q 197 115 164 157 q 288 72 231 72 m 451 989 l 531 989 l 622 793 l 549 793 l 483 921 l 478 921 l 363 793 l 282 793 l 451 989 m 279 -285 q 231 -269 251 -285 q 211 -222 211 -253 q 235 -165 211 -187 q 292 -142 260 -142 q 340 -158 319 -142 q 360 -206 360 -175 q 335 -262 360 -240 q 279 -285 311 -285 z "},"ắ":{"ha":746,"x_min":54,"x_max":700,"o":"m 54 228 q 85 410 54 325 q 167 557 115 494 q 283 656 218 619 q 419 692 349 692 q 516 664 474 692 q 582 590 558 636 l 588 590 l 614 675 l 700 675 l 565 0 l 478 0 l 489 100 l 483 100 q 374 15 435 47 q 249 -17 313 -17 q 107 46 160 -17 q 54 228 54 108 m 288 72 q 395 103 340 72 q 500 201 450 135 l 561 503 q 497 579 532 556 q 424 603 463 603 q 326 573 374 603 q 243 493 279 543 q 185 378 207 443 q 164 244 164 314 q 197 115 164 157 q 288 72 231 72 m 547 1093 l 636 1093 l 493 938 l 428 938 l 547 1093 m 453 799 q 383 814 411 799 q 340 853 356 829 q 322 909 325 878 q 322 972 318 940 l 376 972 q 392 890 371 921 q 463 860 413 860 q 546 892 511 860 q 596 972 581 924 l 654 972 q 628 909 644 940 q 587 853 611 878 q 529 814 563 829 q 453 799 496 799 z "},"ằ":{"ha":746,"x_min":54,"x_max":700,"o":"m 54 228 q 85 410 54 325 q 167 557 115 494 q 283 656 218 619 q 419 692 349 692 q 516 664 474 692 q 582 590 558 636 l 588 590 l 614 675 l 700 675 l 565 0 l 478 0 l 489 100 l 483 100 q 374 15 435 47 q 249 -17 313 -17 q 107 46 160 -17 q 54 228 54 108 m 288 72 q 395 103 340 72 q 500 201 450 135 l 561 503 q 497 579 532 556 q 424 603 463 603 q 326 573 374 603 q 243 493 279 543 q 185 378 207 443 q 164 244 164 314 q 197 115 164 157 q 288 72 231 72 m 453 799 q 383 814 411 799 q 340 853 356 829 q 322 909 325 878 q 322 972 318 940 l 376 972 q 392 890 371 921 q 463 860 413 860 q 546 892 511 860 q 596 972 581 924 l 654 972 q 628 909 644 940 q 587 853 611 878 q 529 814 563 829 q 453 799 496 799 m 529 938 l 468 938 l 389 1093 l 472 1093 l 529 938 z "},"ẳ":{"ha":746,"x_min":54,"x_max":700,"o":"m 54 228 q 85 410 54 325 q 167 557 115 494 q 283 656 218 619 q 419 692 349 692 q 516 664 474 692 q 582 590 558 636 l 588 590 l 614 675 l 700 675 l 565 0 l 478 0 l 489 100 l 483 100 q 374 15 435 47 q 249 -17 313 -17 q 107 46 160 -17 q 54 228 54 108 m 288 72 q 395 103 340 72 q 500 201 450 135 l 561 503 q 497 579 532 556 q 424 603 463 603 q 326 573 374 603 q 243 493 279 543 q 185 378 207 443 q 164 244 164 314 q 197 115 164 157 q 288 72 231 72 m 454 1164 q 561 1138 529 1161 q 593 1079 593 1115 q 554 992 593 1021 q 453 949 515 964 l 446 993 q 501 1021 483 1006 q 518 1061 518 1036 q 501 1095 518 1085 q 436 1111 483 1106 l 454 1164 m 453 799 q 383 814 411 799 q 340 853 356 829 q 322 909 325 878 q 322 972 318 940 l 376 972 q 392 890 371 921 q 463 860 413 860 q 546 892 511 860 q 596 972 581 924 l 654 972 q 628 909 644 940 q 587 853 611 878 q 529 814 563 829 q 453 799 496 799 z "},"ẵ":{"ha":746,"x_min":54,"x_max":700,"o":"m 54 228 q 85 410 54 325 q 167 557 115 494 q 283 656 218 619 q 419 692 349 692 q 516 664 474 692 q 582 590 558 636 l 588 590 l 614 675 l 700 675 l 565 0 l 478 0 l 489 100 l 483 100 q 374 15 435 47 q 249 -17 313 -17 q 107 46 160 -17 q 54 228 54 108 m 288 72 q 395 103 340 72 q 500 201 450 135 l 561 503 q 497 579 532 556 q 424 603 463 603 q 326 573 374 603 q 243 493 279 543 q 185 378 207 443 q 164 244 164 314 q 197 115 164 157 q 288 72 231 72 m 453 799 q 384 812 411 799 q 342 847 357 825 q 322 894 326 868 q 319 947 317 921 l 374 947 q 394 884 374 910 q 463 858 415 858 q 544 885 508 858 q 594 947 579 911 l 651 947 q 626 894 643 921 q 585 847 610 868 q 527 812 560 825 q 453 799 494 799 m 318 985 q 368 1074 335 1040 q 438 1108 401 1108 q 481 1099 464 1108 q 513 1077 499 1089 q 540 1056 526 1065 q 571 1046 553 1046 q 605 1063 588 1046 q 632 1107 622 1079 l 686 1107 q 636 1017 669 1051 q 567 983 603 983 q 523 993 540 983 q 492 1015 506 1003 q 465 1036 478 1026 q 433 1046 451 1046 q 401 1029 418 1046 q 374 985 383 1013 l 318 985 z "},"ặ":{"ha":746,"x_min":54,"x_max":700,"o":"m 54 228 q 85 410 54 325 q 167 557 115 494 q 283 656 218 619 q 419 692 349 692 q 516 664 474 692 q 582 590 558 636 l 588 590 l 614 675 l 700 675 l 565 0 l 478 0 l 489 100 l 483 100 q 374 15 435 47 q 249 -17 313 -17 q 107 46 160 -17 q 54 228 54 108 m 288 72 q 395 103 340 72 q 500 201 450 135 l 561 503 q 497 579 532 556 q 424 603 463 603 q 326 573 374 603 q 243 493 279 543 q 185 378 207 443 q 164 244 164 314 q 197 115 164 157 q 288 72 231 72 m 453 799 q 384 814 411 799 q 342 853 357 829 q 322 909 326 878 q 322 972 318 940 l 385 972 q 399 893 381 924 q 463 863 417 863 q 542 894 510 863 q 589 972 574 926 l 656 972 q 629 909 646 940 q 588 853 613 878 q 529 814 563 829 q 453 799 496 799 m 279 -285 q 231 -269 251 -285 q 211 -222 211 -253 q 235 -165 211 -187 q 292 -142 260 -142 q 340 -158 319 -142 q 360 -206 360 -175 q 335 -262 360 -240 q 279 -285 311 -285 z "},"ą":{"ha":746,"x_min":54,"x_max":700,"o":"m 54 228 q 85 410 54 325 q 167 557 115 494 q 283 656 218 619 q 419 692 349 692 q 517 663 474 692 q 585 588 561 635 l 588 588 l 614 675 l 700 675 l 565 0 q 453 -75 494 -32 q 413 -164 413 -118 q 427 -201 413 -187 q 463 -215 442 -215 q 490 -211 478 -215 q 515 -199 501 -207 l 538 -251 q 485 -276 514 -267 q 432 -286 456 -286 q 357 -262 386 -286 q 328 -193 328 -239 q 342 -133 328 -162 q 377 -76 356 -103 q 426 -28 399 -50 q 479 8 453 -7 l 489 101 l 486 101 q 374 17 436 50 q 249 -17 313 -17 q 107 46 160 -17 q 54 228 54 108 m 288 72 q 392 103 335 72 q 500 201 450 135 l 561 504 q 497 580 532 557 q 424 603 463 603 q 326 573 374 603 q 243 493 279 543 q 185 378 207 443 q 164 244 164 314 q 197 115 164 157 q 288 72 231 72 z "},"æ":{"ha":1057,"x_min":44,"x_max":1011,"o":"m 44 147 q 77 269 44 219 q 168 351 110 319 q 308 399 226 383 q 486 418 389 415 q 492 451 490 438 q 493 479 493 464 q 466 574 493 542 q 376 606 439 606 q 284 589 332 606 q 188 544 236 572 l 158 622 q 274 672 211 651 q 399 692 336 692 q 513 659 468 692 q 569 560 558 626 q 677 657 617 622 q 801 692 738 692 q 898 673 858 692 q 963 622 938 654 q 999 544 988 589 q 1011 447 1011 499 q 1002 371 1011 407 q 986 315 993 335 l 565 315 q 565 214 557 260 q 596 136 574 168 q 652 86 618 104 q 731 68 686 68 q 810 85 771 68 q 882 126 850 103 l 924 56 q 829 5 883 26 q 710 -17 775 -17 q 578 22 636 -17 q 497 117 521 60 q 362 19 431 54 q 218 -17 293 -17 q 151 -6 182 -17 q 96 25 119 4 q 58 76 72 46 q 44 147 44 107 m 913 388 q 917 422 915 407 q 919 457 919 438 q 913 513 919 486 q 890 561 906 540 q 850 594 875 582 q 789 607 825 607 q 724 592 757 607 q 663 547 692 576 q 612 478 635 518 q 576 388 589 438 l 913 388 m 472 347 q 235 299 321 343 q 149 169 149 254 q 179 94 149 121 q 257 68 210 68 q 356 97 300 68 q 469 188 411 126 q 465 267 464 232 q 472 347 465 303 z "},"ç":{"ha":604,"x_min":51,"x_max":603,"o":"m 51 254 q 83 428 51 349 q 166 567 114 508 q 286 658 218 625 q 428 692 354 692 q 531 668 489 692 q 603 610 572 644 l 540 543 q 488 590 514 575 q 421 604 461 604 q 324 576 371 604 q 240 502 276 549 q 181 393 203 456 q 160 261 160 331 q 199 121 160 169 q 319 72 239 72 q 401 90 364 72 q 469 132 438 108 l 517 63 q 428 9 481 35 q 300 -17 375 -17 q 120 53 189 -17 q 51 254 51 124 m 253 4 l 325 4 l 272 -74 q 316 -102 297 -83 q 335 -153 335 -121 q 317 -211 335 -186 q 271 -253 300 -236 q 204 -281 242 -271 q 126 -296 167 -292 l 121 -247 q 214 -218 176 -237 q 251 -164 251 -199 q 235 -128 251 -140 q 178 -104 218 -115 l 253 4 z "},"ć":{"ha":604,"x_min":51,"x_max":621,"o":"m 51 254 q 83 428 51 349 q 166 567 114 508 q 286 658 218 625 q 428 692 354 692 q 531 668 489 692 q 603 610 572 644 l 540 543 q 488 590 514 575 q 421 604 461 604 q 324 576 371 604 q 240 502 276 549 q 181 393 203 456 q 160 261 160 331 q 199 121 160 169 q 319 72 239 72 q 401 90 364 72 q 469 132 438 108 l 517 63 q 428 9 481 35 q 300 -17 375 -17 q 120 53 189 -17 q 51 254 51 124 m 507 989 l 621 989 l 432 793 l 346 793 l 507 989 z "},"ĉ":{"ha":604,"x_min":51,"x_max":607,"o":"m 51 254 q 83 428 51 349 q 166 567 114 508 q 286 658 218 625 q 428 692 354 692 q 531 668 489 692 q 603 610 572 644 l 540 543 q 488 590 514 575 q 421 604 461 604 q 324 576 371 604 q 240 502 276 549 q 181 393 203 456 q 160 261 160 331 q 199 121 160 169 q 319 72 239 72 q 401 90 364 72 q 469 132 438 108 l 517 63 q 428 9 481 35 q 300 -17 375 -17 q 120 53 189 -17 q 51 254 51 124 m 436 989 l 515 989 l 607 793 l 533 793 l 468 921 l 463 921 l 347 793 l 267 793 l 436 989 z "},"č":{"ha":604,"x_min":51,"x_max":649,"o":"m 51 254 q 83 428 51 349 q 166 567 114 508 q 286 658 218 625 q 428 692 354 692 q 531 668 489 692 q 603 610 572 644 l 540 543 q 488 590 514 575 q 421 604 461 604 q 324 576 371 604 q 240 502 276 549 q 181 393 203 456 q 160 261 160 331 q 199 121 160 169 q 319 72 239 72 q 401 90 364 72 q 469 132 438 108 l 517 63 q 428 9 481 35 q 300 -17 375 -17 q 120 53 189 -17 q 51 254 51 124 m 479 793 l 399 793 l 307 989 l 381 989 l 446 863 l 451 863 l 567 989 l 649 989 l 479 793 z "},"ċ":{"ha":604,"x_min":51,"x_max":603,"o":"m 51 254 q 83 428 51 349 q 166 567 114 508 q 286 658 218 625 q 428 692 354 692 q 531 668 489 692 q 603 610 572 644 l 540 543 q 488 590 514 575 q 421 604 461 604 q 324 576 371 604 q 240 502 276 549 q 181 393 203 456 q 160 261 160 331 q 199 121 160 169 q 319 72 239 72 q 401 90 364 72 q 469 132 438 108 l 517 63 q 428 9 481 35 q 300 -17 375 -17 q 120 53 189 -17 q 51 254 51 124 m 447 815 q 399 831 419 815 q 379 878 379 847 q 403 935 379 913 q 460 958 428 958 q 508 942 488 958 q 528 894 528 925 q 503 838 528 860 q 447 815 479 815 z "},"ď":{"ha":753,"x_min":54,"x_max":917,"o":"m 606 725 l 658 989 l 765 989 l 565 0 l 478 0 l 489 100 l 483 100 q 374 15 435 47 q 249 -17 313 -17 q 107 46 160 -17 q 54 228 54 108 q 85 410 54 325 q 167 557 115 494 q 283 656 218 619 q 419 692 349 692 q 514 665 474 692 q 579 593 554 638 l 583 593 l 606 725 m 288 72 q 394 103 340 72 q 500 201 449 135 l 561 503 q 497 579 532 556 q 424 603 463 603 q 326 573 374 603 q 243 493 279 543 q 185 378 207 443 q 164 244 164 314 q 197 115 164 157 q 288 72 231 72 m 786 761 l 842 1056 l 917 1056 l 901 976 l 840 761 l 786 761 z "},"ḍ":{"ha":743,"x_min":54,"x_max":765,"o":"m 606 725 l 658 989 l 765 989 l 565 0 l 478 0 l 489 100 l 483 100 q 374 15 435 47 q 249 -17 313 -17 q 107 46 160 -17 q 54 228 54 108 q 85 410 54 325 q 167 557 115 494 q 283 656 218 619 q 419 692 349 692 q 514 665 474 692 q 579 593 554 638 l 583 593 l 606 725 m 288 72 q 394 103 340 72 q 500 201 449 135 l 561 503 q 497 579 532 556 q 424 603 463 603 q 326 573 374 603 q 243 493 279 543 q 185 378 207 443 q 164 244 164 314 q 197 115 164 157 q 288 72 231 72 m 274 -285 q 226 -269 246 -285 q 206 -222 206 -253 q 230 -165 206 -187 q 286 -142 254 -142 q 334 -158 314 -142 q 354 -206 354 -175 q 330 -262 354 -240 q 274 -285 306 -285 z "},"ḏ":{"ha":743,"x_min":54,"x_max":765,"o":"m 606 725 l 658 989 l 765 989 l 565 0 l 478 0 l 489 100 l 483 100 q 374 15 435 47 q 249 -17 313 -17 q 107 46 160 -17 q 54 228 54 108 q 85 410 54 325 q 167 557 115 494 q 283 656 218 619 q 419 692 349 692 q 514 665 474 692 q 579 593 554 638 l 583 593 l 606 725 m 288 72 q 394 103 340 72 q 500 201 449 135 l 561 503 q 497 579 532 556 q 424 603 463 603 q 326 573 374 603 q 243 493 279 543 q 185 378 207 443 q 164 244 164 314 q 197 115 164 157 q 288 72 231 72 m 128 -154 l 454 -154 l 440 -228 l 114 -228 l 128 -154 z "},"đ":{"ha":743,"x_min":54,"x_max":838,"o":"m 556 475 q 494 551 528 528 q 421 575 460 575 q 324 546 371 575 q 242 469 278 517 q 185 363 207 422 q 164 244 164 304 q 197 115 164 157 q 288 72 231 72 q 394 103 340 72 q 500 201 449 135 l 556 475 m 824 801 l 726 794 l 565 0 l 478 0 l 489 100 l 483 100 q 374 15 435 47 q 249 -17 313 -17 q 107 46 160 -17 q 54 228 54 108 q 85 393 54 314 q 166 533 115 472 q 282 628 217 593 q 417 664 347 664 q 510 637 471 664 q 574 565 550 610 l 578 565 l 600 697 l 619 794 l 404 794 l 415 857 l 632 857 l 658 989 l 765 989 l 739 857 l 838 857 l 824 801 z "},"è":{"ha":668,"x_min":51,"x_max":621,"o":"m 51 265 q 83 440 51 361 q 166 574 115 518 q 281 661 217 631 q 413 692 346 692 q 509 673 469 692 q 574 622 549 654 q 610 544 599 589 q 621 447 621 499 q 613 371 621 407 q 597 315 604 335 l 158 315 q 160 203 149 250 q 197 126 171 157 q 260 82 222 96 q 342 68 297 68 q 422 85 382 68 q 493 126 461 103 l 535 56 q 439 5 494 26 q 317 -17 383 -17 q 124 56 196 -17 q 51 265 51 129 m 524 388 q 528 421 526 404 q 531 457 531 438 q 524 513 531 486 q 501 561 517 540 q 461 594 486 582 q 400 607 436 607 q 327 592 363 607 q 261 547 292 576 q 206 478 231 518 q 169 388 182 438 l 524 388 m 328 989 l 432 989 l 514 793 l 436 793 l 328 989 z "},"é":{"ha":668,"x_min":51,"x_max":621,"o":"m 51 265 q 83 440 51 361 q 166 574 115 518 q 281 661 217 631 q 413 692 346 692 q 509 673 469 692 q 574 622 549 654 q 610 544 599 589 q 621 447 621 499 q 613 371 621 407 q 597 315 604 335 l 158 315 q 160 203 149 250 q 197 126 171 157 q 260 82 222 96 q 342 68 297 68 q 422 85 382 68 q 493 126 461 103 l 535 56 q 439 5 494 26 q 317 -17 383 -17 q 124 56 196 -17 q 51 265 51 129 m 524 388 q 528 421 526 404 q 531 457 531 438 q 524 513 531 486 q 501 561 517 540 q 461 594 486 582 q 400 607 436 607 q 327 592 363 607 q 261 547 292 576 q 206 478 231 518 q 169 388 182 438 l 524 388 m 501 989 l 615 989 l 426 793 l 340 793 l 501 989 z "},"ê":{"ha":668,"x_min":51,"x_max":621,"o":"m 51 265 q 83 440 51 361 q 166 574 115 518 q 281 661 217 631 q 413 692 346 692 q 509 673 469 692 q 574 622 549 654 q 610 544 599 589 q 621 447 621 499 q 613 371 621 407 q 597 315 604 335 l 158 315 q 160 203 149 250 q 197 126 171 157 q 260 82 222 96 q 342 68 297 68 q 422 85 382 68 q 493 126 461 103 l 535 56 q 439 5 494 26 q 317 -17 383 -17 q 124 56 196 -17 q 51 265 51 129 m 524 388 q 528 421 526 404 q 531 457 531 438 q 524 513 531 486 q 501 561 517 540 q 461 594 486 582 q 400 607 436 607 q 327 592 363 607 q 261 547 292 576 q 206 478 231 518 q 169 388 182 438 l 524 388 m 431 989 l 510 989 l 601 793 l 528 793 l 463 921 l 457 921 l 342 793 l 261 793 l 431 989 z "},"ě":{"ha":668,"x_min":51,"x_max":643,"o":"m 51 265 q 83 440 51 361 q 166 574 115 518 q 281 661 217 631 q 413 692 346 692 q 509 673 469 692 q 574 622 549 654 q 610 544 599 589 q 621 447 621 499 q 613 371 621 407 q 597 315 604 335 l 158 315 q 160 203 149 250 q 197 126 171 157 q 260 82 222 96 q 342 68 297 68 q 422 85 382 68 q 493 126 461 103 l 535 56 q 439 5 494 26 q 317 -17 383 -17 q 124 56 196 -17 q 51 265 51 129 m 524 388 q 528 421 526 404 q 531 457 531 438 q 524 513 531 486 q 501 561 517 540 q 461 594 486 582 q 400 607 436 607 q 327 592 363 607 q 261 547 292 576 q 206 478 231 518 q 169 388 182 438 l 524 388 m 474 793 l 393 793 l 301 989 l 375 989 l 440 863 l 446 863 l 561 989 l 643 989 l 474 793 z "},"ë":{"ha":668,"x_min":51,"x_max":628,"o":"m 51 265 q 83 440 51 361 q 166 574 115 518 q 281 661 217 631 q 413 692 346 692 q 509 673 469 692 q 574 622 549 654 q 610 544 599 589 q 621 447 621 499 q 613 371 621 407 q 597 315 604 335 l 158 315 q 160 203 149 250 q 197 126 171 157 q 260 82 222 96 q 342 68 297 68 q 422 85 382 68 q 493 126 461 103 l 535 56 q 439 5 494 26 q 317 -17 383 -17 q 124 56 196 -17 q 51 265 51 129 m 524 388 q 528 421 526 404 q 531 457 531 438 q 524 513 531 486 q 501 561 517 540 q 461 594 486 582 q 400 607 436 607 q 327 592 363 607 q 261 547 292 576 q 206 478 231 518 q 169 388 182 438 l 524 388 m 326 818 q 287 833 303 818 q 271 874 271 847 q 292 928 271 906 q 342 950 313 950 q 383 935 367 950 q 399 892 399 919 q 377 839 399 860 q 326 818 356 818 m 557 818 q 517 833 533 818 q 501 874 501 847 q 522 928 501 906 q 572 950 543 950 q 613 935 597 950 q 628 892 628 919 q 607 839 628 860 q 557 818 586 818 z "},"ē":{"ha":668,"x_min":51,"x_max":621,"o":"m 51 265 q 83 440 51 361 q 166 574 115 518 q 281 661 217 631 q 413 692 346 692 q 509 673 469 692 q 574 622 549 654 q 610 544 599 589 q 621 447 621 499 q 613 371 621 407 q 597 315 604 335 l 158 315 q 160 203 149 250 q 197 126 171 157 q 260 82 222 96 q 342 68 297 68 q 422 85 382 68 q 493 126 461 103 l 535 56 q 439 5 494 26 q 317 -17 383 -17 q 124 56 196 -17 q 51 265 51 129 m 524 388 q 528 421 526 404 q 531 457 531 438 q 524 513 531 486 q 501 561 517 540 q 461 594 486 582 q 400 607 436 607 q 327 592 363 607 q 261 547 292 576 q 206 478 231 518 q 169 388 182 438 l 524 388 m 290 910 l 615 910 l 603 835 l 276 835 l 290 910 z "},"ĕ":{"ha":668,"x_min":51,"x_max":635,"o":"m 51 265 q 83 440 51 361 q 166 574 115 518 q 281 661 217 631 q 413 692 346 692 q 509 673 469 692 q 574 622 549 654 q 610 544 599 589 q 621 447 621 499 q 613 371 621 407 q 597 315 604 335 l 158 315 q 160 203 149 250 q 197 126 171 157 q 260 82 222 96 q 342 68 297 68 q 422 85 382 68 q 493 126 461 103 l 535 56 q 439 5 494 26 q 317 -17 383 -17 q 124 56 196 -17 q 51 265 51 129 m 524 388 q 528 421 526 404 q 531 457 531 438 q 524 513 531 486 q 501 561 517 540 q 461 594 486 582 q 400 607 436 607 q 327 592 363 607 q 261 547 292 576 q 206 478 231 518 q 169 388 182 438 l 524 388 m 432 799 q 363 814 390 799 q 321 853 336 829 q 301 909 306 878 q 301 972 297 940 l 364 972 q 378 893 360 924 q 442 863 396 863 q 521 894 489 863 q 568 972 553 926 l 635 972 q 608 909 625 940 q 567 853 592 878 q 508 814 542 829 q 432 799 475 799 z "},"ė":{"ha":668,"x_min":51,"x_max":621,"o":"m 51 265 q 83 440 51 361 q 166 574 115 518 q 281 661 217 631 q 413 692 346 692 q 509 673 469 692 q 574 622 549 654 q 610 544 599 589 q 621 447 621 499 q 613 371 621 407 q 597 315 604 335 l 158 315 q 160 203 149 250 q 197 126 171 157 q 260 82 222 96 q 342 68 297 68 q 422 85 382 68 q 493 126 461 103 l 535 56 q 439 5 494 26 q 317 -17 383 -17 q 124 56 196 -17 q 51 265 51 129 m 524 388 q 528 421 526 404 q 531 457 531 438 q 524 513 531 486 q 501 561 517 540 q 461 594 486 582 q 400 607 436 607 q 327 592 363 607 q 261 547 292 576 q 206 478 231 518 q 169 388 182 438 l 524 388 m 442 815 q 394 831 414 815 q 374 878 374 847 q 398 935 374 913 q 454 958 422 958 q 502 942 482 958 q 522 894 522 925 q 498 838 522 860 q 442 815 474 815 z "},"ẹ":{"ha":668,"x_min":51,"x_max":621,"o":"m 51 265 q 83 440 51 361 q 166 574 115 518 q 281 661 217 631 q 413 692 346 692 q 509 673 469 692 q 574 622 549 654 q 610 544 599 589 q 621 447 621 499 q 613 371 621 407 q 597 315 604 335 l 158 315 q 160 203 149 250 q 197 126 171 157 q 260 82 222 96 q 342 68 297 68 q 422 85 382 68 q 493 126 461 103 l 535 56 q 439 5 494 26 q 317 -17 383 -17 q 124 56 196 -17 q 51 265 51 129 m 524 388 q 528 421 526 404 q 531 457 531 438 q 524 513 531 486 q 501 561 517 540 q 461 594 486 582 q 400 607 436 607 q 327 592 363 607 q 261 547 292 576 q 206 478 231 518 q 169 388 182 438 l 524 388 m 256 -285 q 208 -269 228 -285 q 188 -222 188 -253 q 212 -165 188 -187 q 268 -142 236 -142 q 316 -158 296 -142 q 336 -206 336 -175 q 312 -262 336 -240 q 256 -285 288 -285 z "},"ẻ":{"ha":668,"x_min":51,"x_max":621,"o":"m 51 265 q 83 440 51 361 q 166 574 115 518 q 281 661 217 631 q 413 692 346 692 q 509 673 469 692 q 574 622 549 654 q 610 544 599 589 q 621 447 621 499 q 613 371 621 407 q 597 315 604 335 l 158 315 q 160 203 149 250 q 197 126 171 157 q 260 82 222 96 q 342 68 297 68 q 422 85 382 68 q 493 126 461 103 l 535 56 q 439 5 494 26 q 317 -17 383 -17 q 124 56 196 -17 q 51 265 51 129 m 524 388 q 528 421 526 404 q 531 457 531 438 q 524 513 531 486 q 501 561 517 540 q 461 594 486 582 q 400 607 436 607 q 327 592 363 607 q 261 547 292 576 q 206 478 231 518 q 169 388 182 438 l 524 388 m 417 1006 q 544 976 507 1003 q 581 911 581 950 q 567 856 581 879 q 531 815 554 832 q 478 786 508 797 q 411 767 447 775 l 403 817 q 472 847 447 831 q 497 892 497 864 q 476 928 497 915 q 397 947 456 942 l 417 1006 z "},"ẽ":{"ha":668,"x_min":51,"x_max":653,"o":"m 51 265 q 83 440 51 361 q 166 574 115 518 q 281 661 217 631 q 413 692 346 692 q 509 673 469 692 q 574 622 549 654 q 610 544 599 589 q 621 447 621 499 q 613 371 621 407 q 597 315 604 335 l 158 315 q 160 203 149 250 q 197 126 171 157 q 260 82 222 96 q 342 68 297 68 q 422 85 382 68 q 493 126 461 103 l 535 56 q 439 5 494 26 q 317 -17 383 -17 q 124 56 196 -17 q 51 265 51 129 m 524 388 q 528 421 526 404 q 531 457 531 438 q 524 513 531 486 q 501 561 517 540 q 461 594 486 582 q 400 607 436 607 q 327 592 363 607 q 261 547 292 576 q 206 478 231 518 q 169 388 182 438 l 524 388 m 249 806 q 301 908 267 868 q 379 947 335 947 q 428 935 408 947 q 463 910 447 924 q 492 885 478 897 q 529 874 507 874 q 563 893 547 874 q 592 944 578 913 l 653 944 q 601 842 635 882 q 522 803 567 803 q 473 815 492 803 q 439 840 454 826 q 408 865 424 853 q 371 876 393 876 q 339 857 354 876 q 310 806 324 838 l 249 806 z "},"ế":{"ha":668,"x_min":51,"x_max":789,"o":"m 51 265 q 83 440 51 361 q 166 574 115 518 q 281 661 217 631 q 413 692 346 692 q 509 673 469 692 q 574 622 549 654 q 610 544 599 589 q 621 447 621 499 q 613 371 621 407 q 597 315 604 335 l 158 315 q 160 203 149 250 q 197 126 171 157 q 260 82 222 96 q 342 68 297 68 q 422 85 382 68 q 493 126 461 103 l 535 56 q 439 5 494 26 q 317 -17 383 -17 q 124 56 196 -17 q 51 265 51 129 m 524 388 q 528 421 526 404 q 531 457 531 438 q 524 513 531 486 q 501 561 517 540 q 461 594 486 582 q 400 607 436 607 q 327 592 363 607 q 261 547 292 576 q 206 478 231 518 q 169 388 182 438 l 524 388 m 421 958 l 501 958 l 579 793 l 511 793 l 454 894 l 449 894 l 351 793 l 275 793 l 421 958 m 697 1044 l 789 1044 l 640 886 l 571 886 l 697 1044 z "},"ề":{"ha":668,"x_min":51,"x_max":710,"o":"m 51 265 q 83 440 51 361 q 166 574 115 518 q 281 661 217 631 q 413 692 346 692 q 509 673 469 692 q 574 622 549 654 q 610 544 599 589 q 621 447 621 499 q 613 371 621 407 q 597 315 604 335 l 158 315 q 160 203 149 250 q 197 126 171 157 q 260 82 222 96 q 342 68 297 68 q 422 85 382 68 q 493 126 461 103 l 535 56 q 439 5 494 26 q 317 -17 383 -17 q 124 56 196 -17 q 51 265 51 129 m 524 388 q 528 421 526 404 q 531 457 531 438 q 524 513 531 486 q 501 561 517 540 q 461 594 486 582 q 400 607 436 607 q 327 592 363 607 q 261 547 292 576 q 206 478 231 518 q 169 388 182 438 l 524 388 m 710 886 l 644 886 l 557 1044 l 643 1044 l 710 886 m 421 958 l 501 958 l 579 793 l 511 793 l 454 894 l 449 894 l 351 793 l 275 793 l 421 958 z "},"ể":{"ha":668,"x_min":51,"x_max":747,"o":"m 51 265 q 83 440 51 361 q 166 574 115 518 q 281 661 217 631 q 413 692 346 692 q 509 673 469 692 q 574 622 549 654 q 610 544 599 589 q 621 447 621 499 q 613 371 621 407 q 597 315 604 335 l 158 315 q 160 203 149 250 q 197 126 171 157 q 260 82 222 96 q 342 68 297 68 q 422 85 382 68 q 493 126 461 103 l 535 56 q 439 5 494 26 q 317 -17 383 -17 q 124 56 196 -17 q 51 265 51 129 m 524 388 q 528 421 526 404 q 531 457 531 438 q 524 513 531 486 q 501 561 517 540 q 461 594 486 582 q 400 607 436 607 q 327 592 363 607 q 261 547 292 576 q 206 478 231 518 q 169 388 182 438 l 524 388 m 603 1090 q 713 1063 679 1086 q 747 1003 747 1039 q 706 915 747 943 q 599 871 665 886 l 592 915 q 651 942 633 926 q 669 985 669 958 q 651 1020 669 1008 q 585 1038 633 1032 l 603 1090 m 421 958 l 501 958 l 579 793 l 511 793 l 454 894 l 449 894 l 351 793 l 275 793 l 421 958 z "},"ễ":{"ha":668,"x_min":51,"x_max":663,"o":"m 51 265 q 83 440 51 361 q 166 574 115 518 q 281 661 217 631 q 413 692 346 692 q 509 673 469 692 q 574 622 549 654 q 610 544 599 589 q 621 447 621 499 q 613 371 621 407 q 597 315 604 335 l 158 315 q 160 203 149 250 q 197 126 171 157 q 260 82 222 96 q 342 68 297 68 q 422 85 382 68 q 493 126 461 103 l 535 56 q 439 5 494 26 q 317 -17 383 -17 q 124 56 196 -17 q 51 265 51 129 m 524 388 q 528 421 526 404 q 531 457 531 438 q 524 513 531 486 q 501 561 517 540 q 461 594 486 582 q 400 607 436 607 q 327 592 363 607 q 261 547 292 576 q 206 478 231 518 q 169 388 182 438 l 524 388 m 594 793 l 522 793 l 451 879 l 446 879 l 343 793 l 263 793 l 408 933 l 504 933 l 594 793 m 294 985 q 344 1074 311 1040 q 414 1108 378 1108 q 458 1099 440 1108 q 489 1077 475 1089 q 516 1056 503 1065 q 547 1046 529 1046 q 581 1063 564 1046 q 608 1107 599 1079 l 663 1107 q 613 1017 646 1051 q 543 983 579 983 q 499 993 517 983 q 468 1015 482 1003 q 441 1036 454 1026 q 410 1046 428 1046 q 377 1029 394 1046 q 350 985 360 1013 l 294 985 z "},"ệ":{"ha":668,"x_min":51,"x_max":621,"o":"m 51 265 q 83 440 51 361 q 166 574 115 518 q 281 661 217 631 q 413 692 346 692 q 509 673 469 692 q 574 622 549 654 q 610 544 599 589 q 621 447 621 499 q 613 371 621 407 q 597 315 604 335 l 158 315 q 160 203 149 250 q 197 126 171 157 q 260 82 222 96 q 342 68 297 68 q 422 85 382 68 q 493 126 461 103 l 535 56 q 439 5 494 26 q 317 -17 383 -17 q 124 56 196 -17 q 51 265 51 129 m 524 388 q 528 421 526 404 q 531 457 531 438 q 524 513 531 486 q 501 561 517 540 q 461 594 486 582 q 400 607 436 607 q 327 592 363 607 q 261 547 292 576 q 206 478 231 518 q 169 388 182 438 l 524 388 m 431 989 l 510 989 l 601 793 l 528 793 l 463 921 l 457 921 l 342 793 l 261 793 l 431 989 m 256 -285 q 208 -269 228 -285 q 188 -222 188 -253 q 212 -165 188 -187 q 268 -142 236 -142 q 316 -158 296 -142 q 336 -206 336 -175 q 312 -262 336 -240 q 256 -285 288 -285 z "},"ę":{"ha":668,"x_min":51,"x_max":621,"o":"m 249 -193 q 260 -135 249 -162 q 290 -83 272 -107 q 326 -42 307 -60 q 360 -11 344 -24 q 337 -15 349 -14 q 317 -17 325 -17 q 124 56 196 -17 q 51 265 51 129 q 83 440 51 361 q 166 574 115 518 q 281 661 217 631 q 413 692 346 692 q 509 673 469 692 q 574 622 549 654 q 610 544 599 589 q 621 447 621 499 q 613 371 621 407 q 597 315 604 335 l 158 315 q 160 203 149 250 q 197 126 171 157 q 260 82 222 96 q 342 68 297 68 q 422 85 382 68 q 493 126 461 103 l 535 56 q 438 -10 476 21 q 376 -67 399 -40 q 343 -119 353 -94 q 333 -164 333 -143 q 348 -201 333 -187 q 383 -215 363 -215 q 410 -211 399 -215 q 436 -199 422 -207 l 458 -251 q 406 -276 435 -267 q 351 -286 376 -286 q 278 -262 307 -286 q 249 -193 249 -239 m 524 388 q 528 421 526 404 q 531 457 531 438 q 524 513 531 486 q 501 561 517 540 q 461 594 486 582 q 400 607 436 607 q 327 592 363 607 q 261 547 292 576 q 206 478 231 518 q 169 388 182 438 l 524 388 z "},"ĝ":{"ha":738,"x_min":-3,"x_max":692,"o":"m 692 675 l 550 -32 q 442 -239 522 -167 q 233 -311 361 -311 q 106 -285 165 -311 q -3 -218 46 -258 l 47 -144 q 133 -201 86 -178 q 238 -225 181 -225 q 376 -170 325 -225 q 450 -24 428 -115 l 483 115 l 479 115 q 372 37 429 67 q 250 7 315 7 q 109 67 164 7 q 54 244 54 126 q 84 419 54 338 q 164 560 114 500 q 278 656 214 621 q 411 692 343 692 q 507 664 464 692 q 574 590 550 636 l 578 590 l 604 675 l 692 675 m 285 96 q 389 126 333 96 q 493 214 444 156 l 553 503 q 488 579 521 556 q 415 603 454 603 q 321 574 367 603 q 240 498 275 546 q 185 388 206 450 q 164 260 164 326 q 196 136 164 176 q 285 96 228 96 m 444 989 l 524 989 l 615 793 l 542 793 l 476 921 l 471 921 l 356 793 l 275 793 l 444 989 z "},"ğ":{"ha":738,"x_min":-3,"x_max":692,"o":"m 692 675 l 550 -32 q 442 -239 522 -167 q 233 -311 361 -311 q 106 -285 165 -311 q -3 -218 46 -258 l 47 -144 q 133 -201 86 -178 q 238 -225 181 -225 q 376 -170 325 -225 q 450 -24 428 -115 l 483 115 l 479 115 q 372 37 429 67 q 250 7 315 7 q 109 67 164 7 q 54 244 54 126 q 84 419 54 338 q 164 560 114 500 q 278 656 214 621 q 411 692 343 692 q 507 664 464 692 q 574 590 550 636 l 578 590 l 604 675 l 692 675 m 285 96 q 389 126 333 96 q 493 214 444 156 l 553 503 q 488 579 521 556 q 415 603 454 603 q 321 574 367 603 q 240 498 275 546 q 185 388 206 450 q 164 260 164 326 q 196 136 164 176 q 285 96 228 96 m 446 799 q 377 814 404 799 q 335 853 350 829 q 315 909 319 878 q 315 972 311 940 l 378 972 q 392 893 374 924 q 456 863 410 863 q 535 894 503 863 q 582 972 567 926 l 649 972 q 622 909 639 940 q 581 853 606 878 q 522 814 556 829 q 446 799 489 799 z "},"ġ":{"ha":738,"x_min":-3,"x_max":692,"o":"m 692 675 l 550 -32 q 442 -239 522 -167 q 233 -311 361 -311 q 106 -285 165 -311 q -3 -218 46 -258 l 47 -144 q 133 -201 86 -178 q 238 -225 181 -225 q 376 -170 325 -225 q 450 -24 428 -115 l 483 115 l 479 115 q 372 37 429 67 q 250 7 315 7 q 109 67 164 7 q 54 244 54 126 q 84 419 54 338 q 164 560 114 500 q 278 656 214 621 q 411 692 343 692 q 507 664 464 692 q 574 590 550 636 l 578 590 l 604 675 l 692 675 m 285 96 q 389 126 333 96 q 493 214 444 156 l 553 503 q 488 579 521 556 q 415 603 454 603 q 321 574 367 603 q 240 498 275 546 q 185 388 206 450 q 164 260 164 326 q 196 136 164 176 q 285 96 228 96 m 456 815 q 408 831 428 815 q 388 878 388 847 q 412 935 388 913 q 468 958 436 958 q 516 942 496 958 q 536 894 536 925 q 512 838 536 860 q 456 815 488 815 z "},"ģ":{"ha":738,"x_min":-3,"x_max":692,"o":"m 692 675 l 550 -32 q 442 -239 522 -167 q 233 -311 361 -311 q 106 -285 165 -311 q -3 -218 46 -258 l 47 -144 q 133 -201 86 -178 q 238 -225 181 -225 q 376 -170 325 -225 q 450 -24 428 -115 l 483 115 l 479 115 q 372 37 429 67 q 250 7 315 7 q 109 67 164 7 q 54 244 54 126 q 84 419 54 338 q 164 560 114 500 q 278 656 214 621 q 411 692 343 692 q 507 664 464 692 q 574 590 550 636 l 578 590 l 604 675 l 692 675 m 285 96 q 389 126 333 96 q 493 214 444 156 l 553 503 q 488 579 521 556 q 415 603 454 603 q 321 574 367 603 q 240 498 275 546 q 185 388 206 450 q 164 260 164 326 q 196 136 164 176 q 285 96 228 96 m 475 754 q 401 786 429 765 q 372 844 372 807 q 390 903 372 879 q 436 944 407 928 q 503 969 465 960 q 581 982 540 978 l 586 932 q 489 904 525 922 q 453 853 453 886 q 469 819 453 829 q 507 801 485 808 l 475 754 z "},"ǧ":{"ha":738,"x_min":-3,"x_max":692,"o":"m 692 675 l 550 -32 q 442 -239 522 -167 q 233 -311 361 -311 q 106 -285 165 -311 q -3 -218 46 -258 l 47 -144 q 133 -201 86 -178 q 238 -225 181 -225 q 376 -170 325 -225 q 450 -24 428 -115 l 483 115 l 479 115 q 372 37 429 67 q 250 7 315 7 q 109 67 164 7 q 54 244 54 126 q 84 419 54 338 q 164 560 114 500 q 278 656 214 621 q 411 692 343 692 q 507 664 464 692 q 574 590 550 636 l 578 590 l 604 675 l 692 675 m 285 96 q 389 126 333 96 q 493 214 444 156 l 553 503 q 488 579 521 556 q 415 603 454 603 q 321 574 367 603 q 240 498 275 546 q 185 388 206 450 q 164 260 164 326 q 196 136 164 176 q 285 96 228 96 m 488 793 l 407 793 l 315 989 l 389 989 l 454 863 l 460 863 l 575 989 l 657 989 l 488 793 z "},"ḡ":{"ha":738,"x_min":-3,"x_max":692,"o":"m 692 675 l 550 -32 q 442 -239 522 -167 q 233 -311 361 -311 q 106 -285 165 -311 q -3 -218 46 -258 l 47 -144 q 133 -201 86 -178 q 238 -225 181 -225 q 376 -170 325 -225 q 450 -24 428 -115 l 483 115 l 479 115 q 372 37 429 67 q 250 7 315 7 q 109 67 164 7 q 54 244 54 126 q 84 419 54 338 q 164 560 114 500 q 278 656 214 621 q 411 692 343 692 q 507 664 464 692 q 574 590 550 636 l 578 590 l 604 675 l 692 675 m 285 96 q 389 126 333 96 q 493 214 444 156 l 553 503 q 488 579 521 556 q 415 603 454 603 q 321 574 367 603 q 240 498 275 546 q 185 388 206 450 q 164 260 164 326 q 196 136 164 176 q 285 96 228 96 m 304 910 l 629 910 l 617 835 l 290 835 l 304 910 z "},"ĥ":{"ha":721,"x_min":43,"x_max":656,"o":"m 240 989 l 347 989 l 281 663 l 258 578 l 264 578 q 378 659 322 626 q 496 692 433 692 q 619 647 582 692 q 656 524 656 603 q 653 479 656 500 q 644 431 651 458 l 558 0 l 453 0 l 536 417 q 544 461 542 444 q 547 496 547 478 q 524 574 547 547 q 447 600 500 600 q 358 571 407 600 q 244 478 308 542 l 149 0 l 43 0 l 240 989 m 276 1199 l 376 1199 l 475 1046 l 393 1046 l 322 1143 l 318 1143 l 210 1046 l 118 1046 l 276 1199 z "},"ḥ":{"ha":721,"x_min":43,"x_max":656,"o":"m 240 989 l 347 989 l 281 663 l 258 578 l 264 578 q 378 659 322 626 q 496 692 433 692 q 619 647 582 692 q 656 524 656 603 q 653 479 656 500 q 644 431 651 458 l 558 0 l 453 0 l 536 417 q 544 461 542 444 q 547 496 547 478 q 524 574 547 547 q 447 600 500 600 q 358 571 407 600 q 244 478 308 542 l 149 0 l 43 0 l 240 989 m 269 -285 q 222 -269 242 -285 q 201 -222 201 -253 q 226 -165 201 -187 q 282 -142 250 -142 q 330 -158 310 -142 q 350 -206 350 -175 q 326 -262 350 -240 q 269 -285 301 -285 z "},"ḫ":{"ha":721,"x_min":43,"x_max":656,"o":"m 240 989 l 347 989 l 281 663 l 258 578 l 264 578 q 378 659 322 626 q 496 692 433 692 q 619 647 582 692 q 656 524 656 603 q 653 479 656 500 q 644 431 651 458 l 558 0 l 453 0 l 536 417 q 544 461 542 444 q 547 496 547 478 q 524 574 547 547 q 447 600 500 600 q 358 571 407 600 q 244 478 308 542 l 149 0 l 43 0 l 240 989 m 257 -287 q 188 -272 215 -287 q 146 -233 161 -257 q 126 -177 131 -208 q 126 -114 122 -146 l 189 -114 q 203 -193 185 -162 q 267 -224 221 -224 q 346 -192 314 -224 q 393 -114 378 -160 l 460 -114 q 433 -177 450 -146 q 392 -233 417 -208 q 333 -272 367 -257 q 257 -287 300 -287 z "},"ħ":{"ha":721,"x_min":43,"x_max":650,"o":"m 258 550 q 372 631 317 599 q 490 664 428 664 q 613 619 576 664 q 650 496 650 575 q 648 451 650 472 q 639 403 646 431 l 558 0 l 453 0 l 531 389 q 539 433 536 417 q 542 468 542 450 q 518 546 542 519 q 442 572 494 572 q 352 543 401 572 q 239 450 303 514 l 149 0 l 43 0 l 201 794 l 104 794 l 114 850 l 214 857 l 240 989 l 347 989 l 321 857 l 564 857 l 550 794 l 307 794 l 275 635 l 253 550 l 258 550 z "},"ì":{"ha":329,"x_min":43,"x_max":336,"o":"m 178 675 l 285 675 l 149 0 l 43 0 l 178 675 m 150 989 l 254 989 l 336 793 l 258 793 l 150 989 z "},"í":{"ha":329,"x_min":43,"x_max":438,"o":"m 178 675 l 285 675 l 149 0 l 43 0 l 178 675 m 324 989 l 438 989 l 249 793 l 163 793 l 324 989 z "},"î":{"ha":329,"x_min":43,"x_max":424,"o":"m 178 675 l 285 675 l 149 0 l 43 0 l 178 675 m 253 989 l 332 989 l 424 793 l 350 793 l 285 921 l 279 921 l 164 793 l 83 793 l 253 989 z "},"ĩ":{"ha":329,"x_min":43,"x_max":475,"o":"m 178 675 l 285 675 l 149 0 l 43 0 l 178 675 m 71 806 q 123 908 89 868 q 201 947 157 947 q 250 935 231 947 q 285 910 269 924 q 315 885 300 897 q 351 874 329 874 q 385 893 369 874 q 414 944 400 913 l 475 944 q 423 842 457 882 q 344 803 389 803 q 295 815 314 803 q 261 840 276 826 q 231 865 246 853 q 193 876 215 876 q 161 857 176 876 q 132 806 146 838 l 71 806 z "},"ï":{"ha":329,"x_min":43,"x_max":450,"o":"m 178 675 l 285 675 l 149 0 l 43 0 l 178 675 m 149 818 q 109 833 125 818 q 93 874 93 847 q 114 928 93 906 q 164 950 135 950 q 205 935 189 950 q 221 892 221 919 q 199 839 221 860 q 149 818 178 818 m 379 818 q 340 833 356 818 q 324 874 324 847 q 344 928 324 906 q 394 950 365 950 q 435 935 419 950 q 450 892 450 919 q 429 839 450 860 q 379 818 408 818 z "},"ī":{"ha":329,"x_min":43,"x_max":438,"o":"m 178 675 l 285 675 l 149 0 l 43 0 l 178 675 m 113 910 l 438 910 l 425 835 l 99 835 l 113 910 z "},"ǐ":{"ha":329,"x_min":43,"x_max":465,"o":"m 178 675 l 285 675 l 149 0 l 43 0 l 178 675 m 296 793 l 215 793 l 124 989 l 197 989 l 263 863 l 268 863 l 383 989 l 465 989 l 296 793 z "},"ỉ":{"ha":329,"x_min":43,"x_max":403,"o":"m 178 675 l 285 675 l 149 0 l 43 0 l 178 675 m 239 1006 q 366 976 329 1003 q 403 911 403 950 q 390 856 403 879 q 353 815 376 832 q 300 786 331 797 q 233 767 269 775 l 225 817 q 294 847 269 831 q 319 892 319 864 q 299 928 319 915 q 219 947 278 942 l 239 1006 z "},"ị":{"ha":329,"x_min":-11,"x_max":349,"o":"m 178 675 l 285 675 l 149 0 l 43 0 l 178 675 m 268 815 q 220 831 240 815 q 200 878 200 847 q 224 935 200 913 q 281 958 249 958 q 328 942 308 958 q 349 894 349 925 q 324 838 349 860 q 268 815 300 815 m 57 -285 q 9 -269 29 -285 q -11 -222 -11 -253 q 13 -165 -11 -187 q 69 -142 38 -142 q 117 -158 97 -142 q 138 -206 138 -175 q 113 -262 138 -240 q 57 -285 89 -285 z "},"į":{"ha":329,"x_min":-58,"x_max":349,"o":"m 178 675 l 285 675 l 149 0 q 58 -78 90 -37 q 26 -164 26 -119 q 41 -201 26 -187 q 78 -215 56 -215 q 129 -199 104 -215 l 151 -251 q 99 -276 128 -267 q 46 -286 69 -286 q -28 -262 1 -286 q -58 -193 -58 -239 q -46 -134 -58 -162 q -15 -80 -33 -106 q 26 -34 4 -54 q 68 0 49 -14 l 43 0 l 178 675 m 268 815 q 220 831 240 815 q 200 878 200 847 q 224 935 200 913 q 281 958 249 958 q 328 942 308 958 q 349 894 349 925 q 324 838 349 860 q 268 815 300 815 z "},"ı":{"ha":329,"x_min":43,"x_max":285,"o":"m 178 675 l 285 675 l 149 0 l 43 0 l 178 675 z "},"ĵ":{"ha":331,"x_min":-172,"x_max":419,"o":"m 132 -85 q 66 -242 113 -182 q -68 -301 19 -301 q -124 -294 -100 -301 q -172 -275 -149 -287 l -137 -196 q -110 -209 -124 -204 q -74 -214 -96 -214 q -12 -181 -35 -214 q 25 -86 11 -147 l 179 675 l 286 675 l 132 -85 m 249 989 l 328 989 l 419 793 l 346 793 l 281 921 l 275 921 l 160 793 l 79 793 l 249 989 z "},"ķ":{"ha":661,"x_min":43,"x_max":685,"o":"m 240 989 l 347 989 l 214 318 l 217 318 l 563 675 l 685 675 l 415 393 l 578 0 l 469 0 l 340 329 l 185 171 l 149 0 l 43 0 l 240 989 m 261 -62 q 335 -94 307 -74 q 364 -153 364 -115 q 347 -212 364 -187 q 300 -252 329 -236 q 233 -277 271 -268 q 156 -290 196 -286 l 150 -240 q 247 -212 211 -231 q 283 -161 283 -194 q 267 -127 283 -137 q 229 -110 251 -117 l 261 -62 z "},"ĸ":{"ha":661,"x_min":43,"x_max":685,"o":"m 176 675 l 283 675 l 214 318 l 217 318 l 563 675 l 685 675 l 415 393 l 578 0 l 469 0 l 340 329 l 185 171 l 149 0 l 43 0 l 176 675 z "},"ĺ":{"ha":344,"x_min":61,"x_max":504,"o":"m 240 989 l 347 989 l 174 124 q 171 107 171 113 q 171 97 171 101 q 194 72 171 72 q 203 73 199 72 q 217 76 207 74 l 218 -6 q 189 -14 204 -11 q 151 -17 174 -17 q 84 6 107 -17 q 61 71 61 29 q 69 129 61 93 l 240 989 m 383 1206 l 504 1206 l 326 1053 l 235 1053 l 383 1206 z "},"ľ":{"ha":336,"x_min":61,"x_max":500,"o":"m 240 989 l 347 989 l 174 124 q 171 107 171 113 q 171 97 171 101 q 194 72 171 72 q 203 73 199 72 q 217 76 207 74 l 218 -6 q 189 -14 204 -11 q 151 -17 174 -17 q 84 6 107 -17 q 61 71 61 29 q 69 129 61 93 l 240 989 m 369 761 l 425 1056 l 500 1056 l 485 976 l 424 761 l 369 761 z "},"ŀ":{"ha":460,"x_min":61,"x_max":496,"o":"m 240 989 l 347 989 l 174 124 q 171 107 171 113 q 171 97 171 101 q 194 72 171 72 q 203 73 199 72 q 217 76 207 74 l 218 -6 q 189 -14 204 -11 q 151 -17 174 -17 q 84 6 107 -17 q 61 71 61 29 q 69 129 61 93 l 240 989 m 404 376 q 356 396 374 376 q 339 446 339 415 q 365 513 339 482 q 432 543 392 543 q 479 523 463 543 q 496 472 496 503 q 470 406 496 436 q 404 376 444 376 z "},"ļ":{"ha":344,"x_min":-57,"x_max":347,"o":"m 240 989 l 347 989 l 174 124 q 171 107 171 113 q 171 97 171 101 q 194 72 171 72 q 203 73 199 72 q 217 76 207 74 l 218 -6 q 189 -14 204 -11 q 151 -17 174 -17 q 84 6 107 -17 q 61 71 61 29 q 69 129 61 93 l 240 989 m 54 -62 q 128 -94 100 -74 q 157 -153 157 -115 q 140 -212 157 -187 q 93 -252 122 -236 q 26 -277 64 -268 q -51 -290 -11 -286 l -57 -240 q 40 -212 4 -231 q 76 -161 76 -194 q 60 -127 76 -137 q 22 -110 44 -117 l 54 -62 z "},"ḷ":{"ha":344,"x_min":-14,"x_max":347,"o":"m 240 989 l 347 989 l 174 124 q 171 107 171 113 q 171 97 171 101 q 194 72 171 72 q 203 73 199 72 q 217 76 207 74 l 218 -6 q 189 -14 204 -11 q 151 -17 174 -17 q 84 6 107 -17 q 61 71 61 29 q 69 129 61 93 l 240 989 m 54 -285 q 6 -269 26 -285 q -14 -222 -14 -253 q 10 -165 -14 -187 q 67 -142 35 -142 q 115 -158 94 -142 q 135 -206 135 -175 q 110 -262 135 -240 q 54 -285 86 -285 z "},"ḹ":{"ha":344,"x_min":-14,"x_max":494,"o":"m 240 989 l 347 989 l 174 124 q 171 107 171 113 q 171 97 171 101 q 194 72 171 72 q 203 73 199 72 q 217 76 207 74 l 218 -6 q 189 -14 204 -11 q 151 -17 174 -17 q 84 6 107 -17 q 61 71 61 29 q 69 129 61 93 l 240 989 m 169 1217 l 494 1217 l 482 1142 l 156 1142 l 169 1217 m 54 -285 q 6 -269 26 -285 q -14 -222 -14 -253 q 10 -165 -14 -187 q 67 -142 35 -142 q 115 -158 94 -142 q 135 -206 135 -175 q 110 -262 135 -240 q 54 -285 86 -285 z "},"ḻ":{"ha":344,"x_min":-106,"x_max":347,"o":"m 240 989 l 347 989 l 174 124 q 171 107 171 113 q 171 97 171 101 q 194 72 171 72 q 203 73 199 72 q 217 76 207 74 l 218 -6 q 189 -14 204 -11 q 151 -17 174 -17 q 84 6 107 -17 q 61 71 61 29 q 69 129 61 93 l 240 989 m -92 -154 l 235 -154 l 221 -228 l -106 -228 l -92 -154 z "},"ł":{"ha":350,"x_min":44,"x_max":386,"o":"m 181 124 q 178 107 178 113 q 178 97 178 101 q 200 72 178 72 q 210 73 206 72 q 224 76 214 74 l 224 -6 q 194 -14 210 -11 q 157 -17 179 -17 q 90 6 113 -17 q 68 71 68 29 q 75 129 68 90 l 142 465 l 44 410 l 64 504 l 161 558 l 247 989 l 353 989 l 279 617 l 386 682 l 369 588 l 260 524 l 181 124 z "},"ṃ":{"ha":1110,"x_min":43,"x_max":1036,"o":"m 176 675 l 264 675 l 254 574 l 260 574 q 371 658 313 624 q 482 692 429 692 q 550 681 522 692 q 596 653 578 671 q 624 612 614 636 q 638 560 633 588 q 763 657 703 622 q 876 692 824 692 q 999 647 961 692 q 1036 524 1036 603 q 1033 479 1036 500 q 1025 431 1031 458 l 939 0 l 832 0 l 917 417 q 925 461 922 444 q 928 496 928 478 q 829 600 928 600 q 750 571 800 600 q 639 478 700 542 l 543 0 l 438 0 l 521 417 q 529 461 526 444 q 532 496 532 478 q 435 600 532 600 q 354 571 404 600 q 244 478 304 542 l 149 0 l 43 0 l 176 675 m 457 -285 q 409 -269 429 -285 q 389 -222 389 -253 q 413 -165 389 -187 q 469 -142 438 -142 q 517 -158 497 -142 q 538 -206 538 -175 q 513 -262 538 -240 q 457 -285 489 -285 z "},"ń":{"ha":729,"x_min":43,"x_max":658,"o":"m 176 675 l 264 675 l 254 574 l 260 574 q 375 658 318 624 q 496 692 432 692 q 619 647 582 692 q 656 524 656 603 q 653 479 656 500 q 644 431 651 458 l 558 0 l 453 0 l 536 417 q 544 461 542 444 q 547 496 547 478 q 524 574 547 547 q 447 600 500 600 q 358 571 407 600 q 244 478 308 542 l 149 0 l 43 0 l 176 675 m 544 989 l 658 989 l 469 793 l 383 793 l 544 989 z "},"ň":{"ha":729,"x_min":43,"x_max":686,"o":"m 176 675 l 264 675 l 254 574 l 260 574 q 375 658 318 624 q 496 692 432 692 q 619 647 582 692 q 656 524 656 603 q 653 479 656 500 q 644 431 651 458 l 558 0 l 453 0 l 536 417 q 544 461 542 444 q 547 496 547 478 q 524 574 547 547 q 447 600 500 600 q 358 571 407 600 q 244 478 308 542 l 149 0 l 43 0 l 176 675 m 517 793 l 436 793 l 344 989 l 418 989 l 483 863 l 489 863 l 604 989 l 686 989 l 517 793 z "},"ñ":{"ha":729,"x_min":43,"x_max":696,"o":"m 176 675 l 264 675 l 254 574 l 260 574 q 375 658 318 624 q 496 692 432 692 q 619 647 582 692 q 656 524 656 603 q 653 479 656 500 q 644 431 651 458 l 558 0 l 453 0 l 536 417 q 544 461 542 444 q 547 496 547 478 q 524 574 547 547 q 447 600 500 600 q 358 571 407 600 q 244 478 308 542 l 149 0 l 43 0 l 176 675 m 292 806 q 344 908 310 868 q 422 947 378 947 q 471 935 451 947 q 506 910 490 924 q 535 885 521 897 q 572 874 550 874 q 606 893 590 874 q 635 944 621 913 l 696 944 q 644 842 678 882 q 565 803 610 803 q 516 815 535 803 q 482 840 497 826 q 451 865 467 853 q 414 876 436 876 q 382 857 397 876 q 353 806 367 838 l 292 806 z "},"ņ":{"ha":729,"x_min":43,"x_max":656,"o":"m 176 675 l 264 675 l 254 574 l 260 574 q 375 658 318 624 q 496 692 432 692 q 619 647 582 692 q 656 524 656 603 q 653 479 656 500 q 644 431 651 458 l 558 0 l 453 0 l 536 417 q 544 461 542 444 q 547 496 547 478 q 524 574 547 547 q 447 600 500 600 q 358 571 407 600 q 244 478 308 542 l 149 0 l 43 0 l 176 675 m 269 -62 q 344 -94 315 -74 q 372 -153 372 -115 q 355 -212 372 -187 q 308 -252 338 -236 q 242 -277 279 -268 q 164 -290 204 -286 l 158 -240 q 256 -212 219 -231 q 292 -161 292 -194 q 276 -127 292 -137 q 238 -110 260 -117 l 269 -62 z "},"ṅ":{"ha":729,"x_min":43,"x_max":656,"o":"m 176 675 l 264 675 l 254 574 l 260 574 q 375 658 318 624 q 496 692 432 692 q 619 647 582 692 q 656 524 656 603 q 653 479 656 500 q 644 431 651 458 l 558 0 l 453 0 l 536 417 q 544 461 542 444 q 547 496 547 478 q 524 574 547 547 q 447 600 500 600 q 358 571 407 600 q 244 478 308 542 l 149 0 l 43 0 l 176 675 m 485 815 q 437 831 457 815 q 417 878 417 847 q 441 935 417 913 q 497 958 465 958 q 545 942 525 958 q 565 894 565 925 q 541 838 565 860 q 485 815 517 815 z "},"ṇ":{"ha":729,"x_min":43,"x_max":656,"o":"m 176 675 l 264 675 l 254 574 l 260 574 q 375 658 318 624 q 496 692 432 692 q 619 647 582 692 q 656 524 656 603 q 653 479 656 500 q 644 431 651 458 l 558 0 l 453 0 l 536 417 q 544 461 542 444 q 547 496 547 478 q 524 574 547 547 q 447 600 500 600 q 358 571 407 600 q 244 478 308 542 l 149 0 l 43 0 l 176 675 m 269 -285 q 222 -269 242 -285 q 201 -222 201 -253 q 226 -165 201 -187 q 282 -142 250 -142 q 330 -158 310 -142 q 350 -206 350 -175 q 326 -262 350 -240 q 269 -285 301 -285 z "},"ṉ":{"ha":729,"x_min":43,"x_max":656,"o":"m 176 675 l 264 675 l 254 574 l 260 574 q 375 658 318 624 q 496 692 432 692 q 619 647 582 692 q 656 524 656 603 q 653 479 656 500 q 644 431 651 458 l 558 0 l 453 0 l 536 417 q 544 461 542 444 q 547 496 547 478 q 524 574 547 547 q 447 600 500 600 q 358 571 407 600 q 244 478 308 542 l 149 0 l 43 0 l 176 675 m 124 -154 l 450 -154 l 436 -228 l 110 -228 l 124 -154 z "},"ŉ":{"ha":1026,"x_min":154,"x_max":957,"o":"m 154 667 q 252 745 218 699 q 288 831 286 792 l 281 831 q 231 847 250 831 q 211 893 211 863 q 232 949 211 925 q 288 972 253 972 q 340 947 319 972 q 361 878 361 922 q 347 789 361 829 q 308 715 333 749 q 249 657 283 682 q 176 615 215 632 l 154 667 m 478 675 l 565 675 l 556 574 l 561 574 q 676 658 619 624 q 797 692 733 692 q 920 647 883 692 q 957 524 957 603 q 955 479 957 500 q 946 431 953 458 l 860 0 l 754 0 l 838 417 q 846 461 843 444 q 849 496 849 478 q 825 574 849 547 q 749 600 801 600 q 659 571 708 600 q 546 478 610 542 l 450 0 l 344 0 l 478 675 z "},"ò":{"ha":715,"x_min":54,"x_max":660,"o":"m 294 -17 q 119 56 185 -17 q 54 254 54 128 q 85 431 54 350 q 167 569 115 511 q 283 659 218 626 q 418 692 349 692 q 594 619 528 692 q 660 421 660 547 q 628 244 660 325 q 547 106 597 164 q 430 16 496 49 q 294 -17 364 -17 m 407 604 q 317 577 361 604 q 238 503 272 550 q 182 394 203 457 q 161 261 161 332 q 198 121 161 169 q 306 72 235 72 q 397 99 353 72 q 475 172 440 126 q 531 281 510 218 q 551 414 551 343 q 515 555 551 506 q 407 604 478 604 m 353 989 l 457 989 l 539 793 l 461 793 l 353 989 z "},"ó":{"ha":715,"x_min":54,"x_max":660,"o":"m 294 -17 q 119 56 185 -17 q 54 254 54 128 q 85 431 54 350 q 167 569 115 511 q 283 659 218 626 q 418 692 349 692 q 594 619 528 692 q 660 421 660 547 q 628 244 660 325 q 547 106 597 164 q 430 16 496 49 q 294 -17 364 -17 m 407 604 q 317 577 361 604 q 238 503 272 550 q 182 394 203 457 q 161 261 161 332 q 198 121 161 169 q 306 72 235 72 q 397 99 353 72 q 475 172 440 126 q 531 281 510 218 q 551 414 551 343 q 515 555 551 506 q 407 604 478 604 m 526 989 l 640 989 l 451 793 l 365 793 l 526 989 z "},"ô":{"ha":715,"x_min":54,"x_max":660,"o":"m 294 -17 q 119 56 185 -17 q 54 254 54 128 q 85 431 54 350 q 167 569 115 511 q 283 659 218 626 q 418 692 349 692 q 594 619 528 692 q 660 421 660 547 q 628 244 660 325 q 547 106 597 164 q 430 16 496 49 q 294 -17 364 -17 m 407 604 q 317 577 361 604 q 238 503 272 550 q 182 394 203 457 q 161 261 161 332 q 198 121 161 169 q 306 72 235 72 q 397 99 353 72 q 475 172 440 126 q 531 281 510 218 q 551 414 551 343 q 515 555 551 506 q 407 604 478 604 m 456 989 l 535 989 l 626 793 l 553 793 l 488 921 l 482 921 l 367 793 l 286 793 l 456 989 z "},"õ":{"ha":715,"x_min":54,"x_max":678,"o":"m 294 -17 q 119 56 185 -17 q 54 254 54 128 q 85 431 54 350 q 167 569 115 511 q 283 659 218 626 q 418 692 349 692 q 594 619 528 692 q 660 421 660 547 q 628 244 660 325 q 547 106 597 164 q 430 16 496 49 q 294 -17 364 -17 m 407 604 q 317 577 361 604 q 238 503 272 550 q 182 394 203 457 q 161 261 161 332 q 198 121 161 169 q 306 72 235 72 q 397 99 353 72 q 475 172 440 126 q 531 281 510 218 q 551 414 551 343 q 515 555 551 506 q 407 604 478 604 m 274 806 q 326 908 292 868 q 404 947 360 947 q 453 935 433 947 q 488 910 472 924 q 517 885 503 897 q 554 874 532 874 q 588 893 572 874 q 617 944 603 913 l 678 944 q 626 842 660 882 q 547 803 592 803 q 498 815 517 803 q 464 840 479 826 q 433 865 449 853 q 396 876 418 876 q 364 857 379 876 q 335 806 349 838 l 274 806 z "},"ö":{"ha":715,"x_min":54,"x_max":660,"o":"m 294 -17 q 119 56 185 -17 q 54 254 54 128 q 85 431 54 350 q 167 569 115 511 q 283 659 218 626 q 418 692 349 692 q 594 619 528 692 q 660 421 660 547 q 628 244 660 325 q 547 106 597 164 q 430 16 496 49 q 294 -17 364 -17 m 407 604 q 317 577 361 604 q 238 503 272 550 q 182 394 203 457 q 161 261 161 332 q 198 121 161 169 q 306 72 235 72 q 397 99 353 72 q 475 172 440 126 q 531 281 510 218 q 551 414 551 343 q 515 555 551 506 q 407 604 478 604 m 351 818 q 312 833 328 818 q 296 874 296 847 q 317 928 296 906 q 367 950 338 950 q 408 935 392 950 q 424 892 424 919 q 402 839 424 860 q 351 818 381 818 m 582 818 q 542 833 558 818 q 526 874 526 847 q 547 928 526 906 q 597 950 568 950 q 638 935 622 950 q 653 892 653 919 q 632 839 653 860 q 582 818 611 818 z "},"ō":{"ha":715,"x_min":54,"x_max":660,"o":"m 294 -17 q 119 56 185 -17 q 54 254 54 128 q 85 431 54 350 q 167 569 115 511 q 283 659 218 626 q 418 692 349 692 q 594 619 528 692 q 660 421 660 547 q 628 244 660 325 q 547 106 597 164 q 430 16 496 49 q 294 -17 364 -17 m 407 604 q 317 577 361 604 q 238 503 272 550 q 182 394 203 457 q 161 261 161 332 q 198 121 161 169 q 306 72 235 72 q 397 99 353 72 q 475 172 440 126 q 531 281 510 218 q 551 414 551 343 q 515 555 551 506 q 407 604 478 604 m 315 910 l 640 910 l 628 835 l 301 835 l 315 910 z "},"ő":{"ha":715,"x_min":54,"x_max":754,"o":"m 294 -17 q 119 56 185 -17 q 54 254 54 128 q 85 431 54 350 q 167 569 115 511 q 283 659 218 626 q 418 692 349 692 q 594 619 528 692 q 660 421 660 547 q 628 244 660 325 q 547 106 597 164 q 430 16 496 49 q 294 -17 364 -17 m 407 604 q 317 577 361 604 q 238 503 272 550 q 182 394 203 457 q 161 261 161 332 q 198 121 161 169 q 306 72 235 72 q 397 99 353 72 q 475 172 440 126 q 531 281 510 218 q 551 414 551 343 q 515 555 551 506 q 407 604 478 604 m 460 990 l 558 990 l 393 793 l 318 793 l 460 990 m 657 990 l 754 990 l 589 793 l 515 793 l 657 990 z "},"ǒ":{"ha":715,"x_min":54,"x_max":668,"o":"m 294 -17 q 119 56 185 -17 q 54 254 54 128 q 85 431 54 350 q 167 569 115 511 q 283 659 218 626 q 418 692 349 692 q 594 619 528 692 q 660 421 660 547 q 628 244 660 325 q 547 106 597 164 q 430 16 496 49 q 294 -17 364 -17 m 407 604 q 317 577 361 604 q 238 503 272 550 q 182 394 203 457 q 161 261 161 332 q 198 121 161 169 q 306 72 235 72 q 397 99 353 72 q 475 172 440 126 q 531 281 510 218 q 551 414 551 343 q 515 555 551 506 q 407 604 478 604 m 499 793 l 418 793 l 326 989 l 400 989 l 465 863 l 471 863 l 586 989 l 668 989 l 499 793 z "},"ọ":{"ha":715,"x_min":54,"x_max":660,"o":"m 294 -17 q 119 56 185 -17 q 54 254 54 128 q 85 431 54 350 q 167 569 115 511 q 283 659 218 626 q 418 692 349 692 q 594 619 528 692 q 660 421 660 547 q 628 244 660 325 q 547 106 597 164 q 430 16 496 49 q 294 -17 364 -17 m 407 604 q 317 577 361 604 q 238 503 272 550 q 182 394 203 457 q 161 261 161 332 q 198 121 161 169 q 306 72 235 72 q 397 99 353 72 q 475 172 440 126 q 531 281 510 218 q 551 414 551 343 q 515 555 551 506 q 407 604 478 604 m 224 -285 q 176 -269 196 -285 q 156 -222 156 -253 q 180 -165 156 -187 q 236 -142 204 -142 q 284 -158 264 -142 q 304 -206 304 -175 q 280 -262 304 -240 q 224 -285 256 -285 z "},"ỏ":{"ha":715,"x_min":54,"x_max":660,"o":"m 294 -17 q 119 56 185 -17 q 54 254 54 128 q 85 431 54 350 q 167 569 115 511 q 283 659 218 626 q 418 692 349 692 q 594 619 528 692 q 660 421 660 547 q 628 244 660 325 q 547 106 597 164 q 430 16 496 49 q 294 -17 364 -17 m 407 604 q 317 577 361 604 q 238 503 272 550 q 182 394 203 457 q 161 261 161 332 q 198 121 161 169 q 306 72 235 72 q 397 99 353 72 q 475 172 440 126 q 531 281 510 218 q 551 414 551 343 q 515 555 551 506 q 407 604 478 604 m 435 1006 q 562 976 525 1003 q 599 911 599 950 q 585 856 599 879 q 549 815 572 832 q 496 786 526 797 q 429 767 465 775 l 421 817 q 490 847 465 831 q 515 892 515 864 q 494 928 515 915 q 415 947 474 942 l 435 1006 z "},"ố":{"ha":715,"x_min":54,"x_max":815,"o":"m 294 -17 q 119 56 185 -17 q 54 254 54 128 q 85 431 54 350 q 167 569 115 511 q 283 659 218 626 q 418 692 349 692 q 594 619 528 692 q 660 421 660 547 q 628 244 660 325 q 547 106 597 164 q 430 16 496 49 q 294 -17 364 -17 m 407 604 q 317 577 361 604 q 238 503 272 550 q 182 394 203 457 q 161 261 161 332 q 198 121 161 169 q 306 72 235 72 q 397 99 353 72 q 475 172 440 126 q 531 281 510 218 q 551 414 551 343 q 515 555 551 506 q 407 604 478 604 m 447 958 l 528 958 l 606 793 l 538 793 l 481 894 l 475 894 l 378 793 l 301 793 l 447 958 m 724 1044 l 815 1044 l 667 886 l 597 886 l 724 1044 z "},"ồ":{"ha":715,"x_min":54,"x_max":736,"o":"m 294 -17 q 119 56 185 -17 q 54 254 54 128 q 85 431 54 350 q 167 569 115 511 q 283 659 218 626 q 418 692 349 692 q 594 619 528 692 q 660 421 660 547 q 628 244 660 325 q 547 106 597 164 q 430 16 496 49 q 294 -17 364 -17 m 407 604 q 317 577 361 604 q 238 503 272 550 q 182 394 203 457 q 161 261 161 332 q 198 121 161 169 q 306 72 235 72 q 397 99 353 72 q 475 172 440 126 q 531 281 510 218 q 551 414 551 343 q 515 555 551 506 q 407 604 478 604 m 736 886 l 671 886 l 583 1044 l 669 1044 l 736 886 m 447 958 l 528 958 l 606 793 l 538 793 l 481 894 l 475 894 l 378 793 l 301 793 l 447 958 z "},"ổ":{"ha":715,"x_min":54,"x_max":774,"o":"m 294 -17 q 119 56 185 -17 q 54 254 54 128 q 85 431 54 350 q 167 569 115 511 q 283 659 218 626 q 418 692 349 692 q 594 619 528 692 q 660 421 660 547 q 628 244 660 325 q 547 106 597 164 q 430 16 496 49 q 294 -17 364 -17 m 407 604 q 317 577 361 604 q 238 503 272 550 q 182 394 203 457 q 161 261 161 332 q 198 121 161 169 q 306 72 235 72 q 397 99 353 72 q 475 172 440 126 q 531 281 510 218 q 551 414 551 343 q 515 555 551 506 q 407 604 478 604 m 629 1090 q 740 1063 706 1086 q 774 1003 774 1039 q 733 915 774 943 q 625 871 692 886 l 618 915 q 678 942 660 926 q 696 985 696 958 q 678 1020 696 1008 q 611 1038 660 1032 l 629 1090 m 447 958 l 528 958 l 606 793 l 538 793 l 481 894 l 475 894 l 378 793 l 301 793 l 447 958 z "},"ỗ":{"ha":715,"x_min":54,"x_max":689,"o":"m 294 -17 q 119 56 185 -17 q 54 254 54 128 q 85 431 54 350 q 167 569 115 511 q 283 659 218 626 q 418 692 349 692 q 594 619 528 692 q 660 421 660 547 q 628 244 660 325 q 547 106 597 164 q 430 16 496 49 q 294 -17 364 -17 m 407 604 q 317 577 361 604 q 238 503 272 550 q 182 394 203 457 q 161 261 161 332 q 198 121 161 169 q 306 72 235 72 q 397 99 353 72 q 475 172 440 126 q 531 281 510 218 q 551 414 551 343 q 515 555 551 506 q 407 604 478 604 m 621 793 l 549 793 l 478 879 l 472 879 l 369 793 l 289 793 l 435 933 l 531 933 l 621 793 m 321 985 q 371 1074 338 1040 q 440 1108 404 1108 q 484 1099 467 1108 q 515 1077 501 1089 q 542 1056 529 1065 q 574 1046 556 1046 q 608 1063 590 1046 q 635 1107 625 1079 l 689 1107 q 639 1017 672 1051 q 569 983 606 983 q 526 993 543 983 q 494 1015 508 1003 q 467 1036 481 1026 q 436 1046 454 1046 q 403 1029 421 1046 q 376 985 386 1013 l 321 985 z "},"ộ":{"ha":715,"x_min":54,"x_max":660,"o":"m 294 -17 q 119 56 185 -17 q 54 254 54 128 q 85 431 54 350 q 167 569 115 511 q 283 659 218 626 q 418 692 349 692 q 594 619 528 692 q 660 421 660 547 q 628 244 660 325 q 547 106 597 164 q 430 16 496 49 q 294 -17 364 -17 m 407 604 q 317 577 361 604 q 238 503 272 550 q 182 394 203 457 q 161 261 161 332 q 198 121 161 169 q 306 72 235 72 q 397 99 353 72 q 475 172 440 126 q 531 281 510 218 q 551 414 551 343 q 515 555 551 506 q 407 604 478 604 m 456 989 l 535 989 l 626 793 l 553 793 l 488 921 l 482 921 l 367 793 l 286 793 l 456 989 m 224 -285 q 176 -269 196 -285 q 156 -222 156 -253 q 180 -165 156 -187 q 236 -142 204 -142 q 284 -158 264 -142 q 304 -206 304 -175 q 280 -262 304 -240 q 224 -285 256 -285 z "},"ø":{"ha":715,"x_min":0,"x_max":721,"o":"m 190 122 q 303 69 228 69 q 401 99 354 69 q 483 176 447 128 q 538 285 518 224 q 558 413 558 347 q 550 490 558 457 l 190 122 m 525 547 q 410 606 486 606 q 312 576 358 606 q 231 499 265 547 q 176 389 196 451 q 156 261 156 326 q 165 178 156 211 l 525 547 m 628 571 q 660 421 660 507 q 628 244 660 325 q 547 106 597 164 q 430 15 496 47 q 294 -17 364 -17 q 122 53 188 -17 l 40 -32 l 0 7 l 89 99 q 54 254 54 164 q 85 431 54 350 q 167 569 115 511 q 283 659 218 626 q 418 692 349 692 q 594 618 529 692 l 679 706 l 721 667 l 628 571 z "},"œ":{"ha":1128,"x_min":54,"x_max":1082,"o":"m 289 -17 q 118 56 182 -17 q 54 254 54 128 q 85 431 54 350 q 165 569 115 511 q 280 659 215 626 q 413 692 344 692 q 549 647 497 692 q 621 517 601 601 q 672 591 643 558 q 735 646 701 624 q 803 680 768 668 q 872 692 838 692 q 969 673 929 692 q 1035 622 1010 654 q 1071 544 1060 589 q 1082 447 1082 499 q 1073 371 1082 407 q 1057 315 1064 335 l 640 315 q 642 203 632 250 q 676 126 653 157 q 731 82 699 96 q 803 68 764 68 q 883 85 843 68 q 954 126 922 103 l 994 56 q 899 5 954 26 q 776 -17 843 -17 q 640 30 696 -17 q 565 168 585 76 q 444 32 518 81 q 289 -17 371 -17 m 403 604 q 315 577 358 604 q 237 503 271 550 q 182 394 203 457 q 161 261 161 332 q 198 121 161 169 q 306 72 235 72 q 394 99 351 72 q 472 172 438 126 q 526 281 506 218 q 547 414 547 343 q 510 555 547 506 q 403 604 474 604 m 983 388 q 992 457 992 421 q 985 513 992 486 q 963 561 978 540 q 922 594 947 582 q 861 607 897 607 q 795 592 828 607 q 735 547 763 576 q 685 478 707 518 q 651 388 664 438 l 983 388 z "},"ơ":{"ha":718,"x_min":54,"x_max":760,"o":"m 306 72 q 397 99 353 72 q 475 172 440 126 q 531 281 510 218 q 551 414 551 343 q 515 555 551 506 q 407 604 478 604 q 317 577 361 604 q 238 503 272 550 q 182 394 203 457 q 161 261 161 332 q 198 121 161 169 q 306 72 235 72 m 746 839 q 757 805 754 821 q 760 774 760 789 q 721 674 760 717 q 599 614 682 631 q 644 531 628 579 q 660 421 660 482 q 628 244 660 325 q 547 106 597 164 q 430 16 496 49 q 294 -17 364 -17 q 119 56 185 -17 q 54 254 54 128 q 85 431 54 350 q 167 569 115 511 q 283 659 218 626 q 418 692 349 692 q 542 661 488 692 q 634 693 597 667 q 671 764 671 719 q 669 785 671 775 q 663 810 668 796 l 746 839 z "},"ớ":{"ha":718,"x_min":54,"x_max":760,"o":"m 306 72 q 397 99 353 72 q 475 172 440 126 q 531 281 510 218 q 551 414 551 343 q 515 555 551 506 q 407 604 478 604 q 317 577 361 604 q 238 503 272 550 q 182 394 203 457 q 161 261 161 332 q 198 121 161 169 q 306 72 235 72 m 746 839 q 757 805 754 821 q 760 774 760 789 q 721 674 760 717 q 599 614 682 631 q 644 531 628 579 q 660 421 660 482 q 628 244 660 325 q 547 106 597 164 q 430 16 496 49 q 294 -17 364 -17 q 119 56 185 -17 q 54 254 54 128 q 85 431 54 350 q 167 569 115 511 q 283 659 218 626 q 418 692 349 692 q 542 661 488 692 q 634 693 597 667 q 671 764 671 719 q 669 785 671 775 q 663 810 668 796 l 746 839 m 511 989 l 625 989 l 436 793 l 350 793 l 511 989 z "},"ờ":{"ha":718,"x_min":54,"x_max":760,"o":"m 306 72 q 397 99 353 72 q 475 172 440 126 q 531 281 510 218 q 551 414 551 343 q 515 555 551 506 q 407 604 478 604 q 317 577 361 604 q 238 503 272 550 q 182 394 203 457 q 161 261 161 332 q 198 121 161 169 q 306 72 235 72 m 746 839 q 757 805 754 821 q 760 774 760 789 q 721 674 760 717 q 599 614 682 631 q 644 531 628 579 q 660 421 660 482 q 628 244 660 325 q 547 106 597 164 q 430 16 496 49 q 294 -17 364 -17 q 119 56 185 -17 q 54 254 54 128 q 85 431 54 350 q 167 569 115 511 q 283 659 218 626 q 418 692 349 692 q 542 661 488 692 q 634 693 597 667 q 671 764 671 719 q 669 785 671 775 q 663 810 668 796 l 746 839 m 338 989 l 442 989 l 524 793 l 446 793 l 338 989 z "},"ở":{"ha":718,"x_min":54,"x_max":760,"o":"m 306 72 q 397 99 353 72 q 475 172 440 126 q 531 281 510 218 q 551 414 551 343 q 515 555 551 506 q 407 604 478 604 q 317 577 361 604 q 238 503 272 550 q 182 394 203 457 q 161 261 161 332 q 198 121 161 169 q 306 72 235 72 m 746 839 q 757 805 754 821 q 760 774 760 789 q 721 674 760 717 q 599 614 682 631 q 644 531 628 579 q 660 421 660 482 q 628 244 660 325 q 547 106 597 164 q 430 16 496 49 q 294 -17 364 -17 q 119 56 185 -17 q 54 254 54 128 q 85 431 54 350 q 167 569 115 511 q 283 659 218 626 q 418 692 349 692 q 542 661 488 692 q 634 693 597 667 q 671 764 671 719 q 669 785 671 775 q 663 810 668 796 l 746 839 m 419 1006 q 547 976 510 1003 q 583 911 583 950 q 570 856 583 879 q 534 815 557 832 q 481 786 511 797 q 414 767 450 775 l 406 817 q 475 847 450 831 q 500 892 500 864 q 479 928 500 915 q 400 947 458 942 l 419 1006 z "},"ỡ":{"ha":718,"x_min":54,"x_max":760,"o":"m 306 72 q 397 99 353 72 q 475 172 440 126 q 531 281 510 218 q 551 414 551 343 q 515 555 551 506 q 407 604 478 604 q 317 577 361 604 q 238 503 272 550 q 182 394 203 457 q 161 261 161 332 q 198 121 161 169 q 306 72 235 72 m 746 839 q 757 805 754 821 q 760 774 760 789 q 721 674 760 717 q 599 614 682 631 q 644 531 628 579 q 660 421 660 482 q 628 244 660 325 q 547 106 597 164 q 430 16 496 49 q 294 -17 364 -17 q 119 56 185 -17 q 54 254 54 128 q 85 431 54 350 q 167 569 115 511 q 283 659 218 626 q 418 692 349 692 q 542 661 488 692 q 634 693 597 667 q 671 764 671 719 q 669 785 671 775 q 663 810 668 796 l 746 839 m 258 806 q 310 908 276 868 q 389 947 344 947 q 438 935 418 947 q 472 910 457 924 q 502 885 488 897 q 539 874 517 874 q 572 893 557 874 q 601 944 588 913 l 663 944 q 610 842 644 882 q 532 803 576 803 q 483 815 501 803 q 449 840 464 826 q 418 865 433 853 q 381 876 403 876 q 349 857 364 876 q 319 806 333 838 l 258 806 z "},"ợ":{"ha":718,"x_min":54,"x_max":760,"o":"m 306 72 q 397 99 353 72 q 475 172 440 126 q 531 281 510 218 q 551 414 551 343 q 515 555 551 506 q 407 604 478 604 q 317 577 361 604 q 238 503 272 550 q 182 394 203 457 q 161 261 161 332 q 198 121 161 169 q 306 72 235 72 m 746 839 q 757 805 754 821 q 760 774 760 789 q 721 674 760 717 q 599 614 682 631 q 644 531 628 579 q 660 421 660 482 q 628 244 660 325 q 547 106 597 164 q 430 16 496 49 q 294 -17 364 -17 q 119 56 185 -17 q 54 254 54 128 q 85 431 54 350 q 167 569 115 511 q 283 659 218 626 q 418 692 349 692 q 542 661 488 692 q 634 693 597 667 q 671 764 671 719 q 669 785 671 775 q 663 810 668 796 l 746 839 m 219 -285 q 172 -269 192 -285 q 151 -222 151 -253 q 176 -165 151 -187 q 232 -142 200 -142 q 280 -158 260 -142 q 300 -206 300 -175 q 276 -262 300 -240 q 219 -285 251 -285 z "},"ǫ":{"ha":715,"x_min":54,"x_max":660,"o":"m 153 -193 q 165 -134 153 -162 q 194 -82 176 -106 q 233 -40 213 -58 q 268 -14 253 -22 q 111 65 168 -3 q 54 254 54 132 q 85 431 54 350 q 167 569 115 511 q 283 659 218 626 q 418 692 349 692 q 515 674 471 692 q 592 621 560 656 q 642 535 624 586 q 660 421 660 485 q 639 272 660 339 q 581 151 618 204 q 493 58 544 97 q 381 -7 442 19 q 274 -83 310 -37 q 238 -164 238 -128 q 252 -201 238 -187 q 288 -215 267 -215 q 315 -211 303 -215 q 340 -199 326 -207 l 363 -251 q 310 -276 339 -267 q 257 -286 281 -286 q 183 -262 213 -286 q 153 -193 153 -239 m 407 604 q 317 577 361 604 q 238 503 272 550 q 182 394 203 457 q 161 261 161 332 q 198 121 161 169 q 306 72 235 72 q 397 99 353 72 q 475 172 440 126 q 531 281 510 218 q 551 414 551 343 q 515 555 551 506 q 407 604 478 604 z "},"ŕ":{"ha":475,"x_min":43,"x_max":546,"o":"m 176 675 l 264 675 l 249 546 l 254 546 q 348 650 294 608 q 464 692 401 692 q 528 679 499 692 l 490 585 q 432 596 468 596 q 329 553 382 596 q 233 426 276 510 l 149 0 l 43 0 l 176 675 m 432 989 l 546 989 l 357 793 l 271 793 l 432 989 z "},"ŗ":{"ha":475,"x_min":-53,"x_max":528,"o":"m 176 675 l 264 675 l 249 546 l 254 546 q 348 650 294 608 q 464 692 401 692 q 528 679 499 692 l 490 585 q 432 596 468 596 q 329 553 382 596 q 233 426 276 510 l 149 0 l 43 0 l 176 675 m 58 -62 q 133 -94 104 -74 q 161 -153 161 -115 q 144 -212 161 -187 q 97 -252 126 -236 q 31 -277 68 -268 q -47 -290 -7 -286 l -53 -240 q 44 -212 8 -231 q 81 -161 81 -194 q 65 -127 81 -137 q 26 -110 49 -117 l 58 -62 z "},"ř":{"ha":475,"x_min":43,"x_max":574,"o":"m 176 675 l 264 675 l 249 546 l 254 546 q 348 650 294 608 q 464 692 401 692 q 528 679 499 692 l 490 585 q 432 596 468 596 q 329 553 382 596 q 233 426 276 510 l 149 0 l 43 0 l 176 675 m 404 793 l 324 793 l 232 989 l 306 989 l 371 863 l 376 863 l 492 989 l 574 989 l 404 793 z "},"ṛ":{"ha":475,"x_min":-10,"x_max":528,"o":"m 176 675 l 264 675 l 249 546 l 254 546 q 348 650 294 608 q 464 692 401 692 q 528 679 499 692 l 490 585 q 432 596 468 596 q 329 553 382 596 q 233 426 276 510 l 149 0 l 43 0 l 176 675 m 58 -285 q 10 -269 31 -285 q -10 -222 -10 -253 q 15 -165 -10 -187 q 71 -142 39 -142 q 119 -158 99 -142 q 139 -206 139 -175 q 115 -262 139 -240 q 58 -285 90 -285 z "},"ṝ":{"ha":475,"x_min":-10,"x_max":546,"o":"m 176 675 l 264 675 l 249 546 l 254 546 q 348 650 294 608 q 464 692 401 692 q 528 679 499 692 l 490 585 q 432 596 468 596 q 329 553 382 596 q 233 426 276 510 l 149 0 l 43 0 l 176 675 m 221 910 l 546 910 l 533 835 l 207 835 l 221 910 m 58 -285 q 10 -269 31 -285 q -10 -222 -10 -253 q 15 -165 -10 -187 q 71 -142 39 -142 q 119 -158 99 -142 q 139 -206 139 -175 q 115 -262 139 -240 q 58 -285 90 -285 z "},"ṟ":{"ha":475,"x_min":-101,"x_max":528,"o":"m 176 675 l 264 675 l 249 546 l 254 546 q 348 650 294 608 q 464 692 401 692 q 528 679 499 692 l 490 585 q 432 596 468 596 q 329 553 382 596 q 233 426 276 510 l 149 0 l 43 0 l 176 675 m -87 -154 l 239 -154 l 225 -228 l -101 -228 l -87 -154 z "},"ś":{"ha":558,"x_min":-6,"x_max":554,"o":"m 61 164 q 138 92 93 119 q 235 65 182 65 q 290 74 264 65 q 335 99 315 83 q 367 134 356 114 q 378 178 378 154 q 372 211 378 196 q 351 241 365 226 q 313 271 338 256 q 254 306 289 286 q 138 390 175 349 q 100 490 100 432 q 119 572 100 535 q 169 636 138 610 q 242 677 200 663 q 332 692 285 692 q 444 667 394 692 q 531 601 493 642 l 469 542 q 408 589 442 569 q 329 608 375 608 q 238 577 275 608 q 201 503 201 546 q 211 465 201 482 q 238 435 221 449 q 276 408 254 421 q 321 383 297 396 q 397 335 367 358 q 445 290 426 313 q 472 243 464 267 q 479 192 479 219 q 460 106 479 144 q 408 40 442 67 q 327 -2 374 13 q 226 -17 281 -17 q 159 -7 193 -17 q 94 20 125 3 q 37 61 63 38 q -6 111 11 85 l 61 164 m 440 989 l 554 989 l 365 793 l 279 793 l 440 989 z "},"ŝ":{"ha":558,"x_min":-6,"x_max":540,"o":"m 61 164 q 138 92 93 119 q 235 65 182 65 q 290 74 264 65 q 335 99 315 83 q 367 134 356 114 q 378 178 378 154 q 372 211 378 196 q 351 241 365 226 q 313 271 338 256 q 254 306 289 286 q 138 390 175 349 q 100 490 100 432 q 119 572 100 535 q 169 636 138 610 q 242 677 200 663 q 332 692 285 692 q 444 667 394 692 q 531 601 493 642 l 469 542 q 408 589 442 569 q 329 608 375 608 q 238 577 275 608 q 201 503 201 546 q 211 465 201 482 q 238 435 221 449 q 276 408 254 421 q 321 383 297 396 q 397 335 367 358 q 445 290 426 313 q 472 243 464 267 q 479 192 479 219 q 460 106 479 144 q 408 40 442 67 q 327 -2 374 13 q 226 -17 281 -17 q 159 -7 193 -17 q 94 20 125 3 q 37 61 63 38 q -6 111 11 85 l 61 164 m 369 989 l 449 989 l 540 793 l 467 793 l 401 921 l 396 921 l 281 793 l 200 793 l 369 989 z "},"š":{"ha":558,"x_min":-6,"x_max":582,"o":"m 61 164 q 138 92 93 119 q 235 65 182 65 q 290 74 264 65 q 335 99 315 83 q 367 134 356 114 q 378 178 378 154 q 372 211 378 196 q 351 241 365 226 q 313 271 338 256 q 254 306 289 286 q 138 390 175 349 q 100 490 100 432 q 119 572 100 535 q 169 636 138 610 q 242 677 200 663 q 332 692 285 692 q 444 667 394 692 q 531 601 493 642 l 469 542 q 408 589 442 569 q 329 608 375 608 q 238 577 275 608 q 201 503 201 546 q 211 465 201 482 q 238 435 221 449 q 276 408 254 421 q 321 383 297 396 q 397 335 367 358 q 445 290 426 313 q 472 243 464 267 q 479 192 479 219 q 460 106 479 144 q 408 40 442 67 q 327 -2 374 13 q 226 -17 281 -17 q 159 -7 193 -17 q 94 20 125 3 q 37 61 63 38 q -6 111 11 85 l 61 164 m 413 793 l 332 793 l 240 989 l 314 989 l 379 863 l 385 863 l 500 989 l 582 989 l 413 793 z "},"ş":{"ha":558,"x_min":-6,"x_max":531,"o":"m 61 164 q 138 92 93 119 q 235 65 182 65 q 290 74 264 65 q 335 99 315 83 q 367 134 356 114 q 378 178 378 154 q 372 211 378 196 q 351 241 365 226 q 313 271 338 256 q 254 306 289 286 q 138 390 175 349 q 100 490 100 432 q 119 572 100 535 q 169 636 138 610 q 242 677 200 663 q 332 692 285 692 q 444 667 394 692 q 531 601 493 642 l 469 542 q 408 589 442 569 q 329 608 375 608 q 238 577 275 608 q 201 503 201 546 q 211 465 201 482 q 238 435 221 449 q 276 408 254 421 q 321 383 297 396 q 397 335 367 358 q 445 290 426 313 q 472 243 464 267 q 479 192 479 219 q 460 106 479 144 q 408 40 442 67 q 327 -2 374 13 q 226 -17 281 -17 q 159 -7 193 -17 q 94 20 125 3 q 37 61 63 38 q -6 111 11 85 l 61 164 m 207 4 l 279 4 l 226 -74 q 270 -102 251 -83 q 289 -153 289 -121 q 272 -211 289 -186 q 225 -253 254 -236 q 158 -281 196 -271 q 81 -296 121 -292 l 75 -247 q 168 -218 131 -237 q 206 -164 206 -199 q 189 -128 206 -140 q 132 -104 172 -115 l 207 4 z "},"ș":{"ha":558,"x_min":-6,"x_max":531,"o":"m 61 164 q 138 92 93 119 q 235 65 182 65 q 290 74 264 65 q 335 99 315 83 q 367 134 356 114 q 378 178 378 154 q 372 211 378 196 q 351 241 365 226 q 313 271 338 256 q 254 306 289 286 q 138 390 175 349 q 100 490 100 432 q 119 572 100 535 q 169 636 138 610 q 242 677 200 663 q 332 692 285 692 q 444 667 394 692 q 531 601 493 642 l 469 542 q 408 589 442 569 q 329 608 375 608 q 238 577 275 608 q 201 503 201 546 q 211 465 201 482 q 238 435 221 449 q 276 408 254 421 q 321 383 297 396 q 397 335 367 358 q 445 290 426 313 q 472 243 464 267 q 479 192 479 219 q 460 106 479 144 q 408 40 442 67 q 327 -2 374 13 q 226 -17 281 -17 q 159 -7 193 -17 q 94 20 125 3 q 37 61 63 38 q -6 111 11 85 l 61 164 m 196 -62 q 270 -94 242 -74 q 299 -153 299 -115 q 281 -212 299 -187 q 235 -252 264 -236 q 168 -277 206 -268 q 90 -290 131 -286 l 85 -240 q 182 -212 146 -231 q 218 -161 218 -194 q 202 -127 218 -137 q 164 -110 186 -117 l 196 -62 z "},"ṡ":{"ha":558,"x_min":-6,"x_max":531,"o":"m 61 164 q 138 92 93 119 q 235 65 182 65 q 290 74 264 65 q 335 99 315 83 q 367 134 356 114 q 378 178 378 154 q 372 211 378 196 q 351 241 365 226 q 313 271 338 256 q 254 306 289 286 q 138 390 175 349 q 100 490 100 432 q 119 572 100 535 q 169 636 138 610 q 242 677 200 663 q 332 692 285 692 q 444 667 394 692 q 531 601 493 642 l 469 542 q 408 589 442 569 q 329 608 375 608 q 238 577 275 608 q 201 503 201 546 q 211 465 201 482 q 238 435 221 449 q 276 408 254 421 q 321 383 297 396 q 397 335 367 358 q 445 290 426 313 q 472 243 464 267 q 479 192 479 219 q 460 106 479 144 q 408 40 442 67 q 327 -2 374 13 q 226 -17 281 -17 q 159 -7 193 -17 q 94 20 125 3 q 37 61 63 38 q -6 111 11 85 l 61 164 m 381 815 q 333 831 353 815 q 313 878 313 847 q 337 935 313 913 q 393 958 361 958 q 441 942 421 958 q 461 894 461 925 q 437 838 461 860 q 381 815 413 815 z "},"ṣ":{"ha":558,"x_min":-6,"x_max":531,"o":"m 61 164 q 138 92 93 119 q 235 65 182 65 q 290 74 264 65 q 335 99 315 83 q 367 134 356 114 q 378 178 378 154 q 372 211 378 196 q 351 241 365 226 q 313 271 338 256 q 254 306 289 286 q 138 390 175 349 q 100 490 100 432 q 119 572 100 535 q 169 636 138 610 q 242 677 200 663 q 332 692 285 692 q 444 667 394 692 q 531 601 493 642 l 469 542 q 408 589 442 569 q 329 608 375 608 q 238 577 275 608 q 201 503 201 546 q 211 465 201 482 q 238 435 221 449 q 276 408 254 421 q 321 383 297 396 q 397 335 367 358 q 445 290 426 313 q 472 243 464 267 q 479 192 479 219 q 460 106 479 144 q 408 40 442 67 q 327 -2 374 13 q 226 -17 281 -17 q 159 -7 193 -17 q 94 20 125 3 q 37 61 63 38 q -6 111 11 85 l 61 164 m 196 -285 q 148 -269 168 -285 q 128 -222 128 -253 q 152 -165 128 -187 q 208 -142 176 -142 q 256 -158 236 -142 q 276 -206 276 -175 q 252 -262 276 -240 q 196 -285 228 -285 z "},"ß":{"ha":771,"x_min":43,"x_max":701,"o":"m 189 729 q 226 836 201 786 q 288 924 251 886 q 374 983 325 961 q 481 1006 422 1006 q 558 994 522 1006 q 622 960 594 983 q 665 903 649 938 q 681 822 681 868 q 667 747 681 779 q 633 688 653 714 q 589 640 613 661 q 545 597 565 618 q 511 554 525 576 q 497 504 497 532 q 513 456 497 476 q 550 415 528 435 q 599 376 572 396 q 649 331 626 356 q 686 276 671 307 q 701 201 701 244 q 684 116 701 156 q 635 47 667 76 q 563 1 604 18 q 471 -17 521 -17 q 369 1 419 -17 q 276 53 319 18 l 325 124 q 392 82 357 97 q 471 67 428 67 q 563 101 525 67 q 601 188 601 135 q 586 246 601 221 q 547 292 571 271 q 497 332 524 313 q 447 374 471 351 q 408 422 424 396 q 393 485 393 449 q 407 549 393 521 q 441 601 421 578 q 485 647 461 625 q 530 694 510 669 q 564 746 550 718 q 578 811 578 774 q 554 889 578 858 q 476 919 531 919 q 410 902 440 919 q 357 856 381 885 q 317 788 333 826 q 290 704 300 749 l 149 0 l 43 0 l 189 729 z "},"ť":{"ha":451,"x_min":83,"x_max":567,"o":"m 182 589 l 83 589 l 99 668 l 204 675 l 254 861 l 344 861 l 307 675 l 478 675 l 461 589 l 288 589 l 208 203 q 204 153 204 178 q 223 90 204 111 q 290 69 242 69 q 328 76 310 69 q 361 90 346 83 l 385 14 q 329 -7 361 3 q 257 -17 297 -17 q 182 -5 213 -17 q 132 27 151 7 q 104 74 113 47 q 96 133 96 101 q 98 172 96 154 q 103 208 100 189 l 182 589 m 436 761 l 492 1056 l 567 1056 l 551 976 l 490 761 l 436 761 z "},"ţ":{"ha":451,"x_min":76,"x_max":478,"o":"m 182 589 l 83 589 l 99 668 l 204 675 l 254 861 l 344 861 l 307 675 l 478 675 l 461 589 l 288 589 l 208 203 q 204 153 204 178 q 223 90 204 111 q 290 69 242 69 q 328 76 310 69 q 361 90 346 83 l 385 14 q 329 -7 361 3 q 257 -17 297 -17 q 182 -5 213 -17 q 132 27 151 7 q 104 74 113 47 q 96 133 96 101 q 98 172 96 154 q 103 208 100 189 l 182 589 m 208 4 l 281 4 l 228 -74 q 272 -102 253 -83 q 290 -153 290 -121 q 273 -211 290 -186 q 226 -253 256 -236 q 160 -281 197 -271 q 82 -296 122 -292 l 76 -247 q 169 -218 132 -237 q 207 -164 207 -199 q 190 -128 207 -140 q 133 -104 174 -115 l 208 4 z "},"ț":{"ha":451,"x_min":68,"x_max":478,"o":"m 182 589 l 83 589 l 99 668 l 204 675 l 254 861 l 344 861 l 307 675 l 478 675 l 461 589 l 288 589 l 208 203 q 204 153 204 178 q 223 90 204 111 q 290 69 242 69 q 328 76 310 69 q 361 90 346 83 l 385 14 q 329 -7 361 3 q 257 -17 297 -17 q 182 -5 213 -17 q 132 27 151 7 q 104 74 113 47 q 96 133 96 101 q 98 172 96 154 q 103 208 100 189 l 182 589 m 179 -62 q 253 -94 225 -74 q 282 -153 282 -115 q 265 -212 282 -187 q 218 -252 247 -236 q 151 -277 189 -268 q 74 -290 114 -286 l 68 -240 q 165 -212 129 -231 q 201 -161 201 -194 q 185 -127 201 -137 q 147 -110 169 -117 l 179 -62 z "},"ṭ":{"ha":451,"x_min":83,"x_max":478,"o":"m 182 589 l 83 589 l 99 668 l 204 675 l 254 861 l 344 861 l 307 675 l 478 675 l 461 589 l 288 589 l 208 203 q 204 153 204 178 q 223 90 204 111 q 290 69 242 69 q 328 76 310 69 q 361 90 346 83 l 385 14 q 329 -7 361 3 q 257 -17 297 -17 q 182 -5 213 -17 q 132 27 151 7 q 104 74 113 47 q 96 133 96 101 q 98 172 96 154 q 103 208 100 189 l 182 589 m 179 -285 q 131 -269 151 -285 q 111 -222 111 -253 q 135 -165 111 -187 q 192 -142 160 -142 q 240 -158 219 -142 q 260 -206 260 -175 q 235 -262 260 -240 q 179 -285 211 -285 z "},"ṯ":{"ha":451,"x_min":19,"x_max":478,"o":"m 182 589 l 83 589 l 99 668 l 204 675 l 254 861 l 344 861 l 307 675 l 478 675 l 461 589 l 288 589 l 208 203 q 204 153 204 178 q 223 90 204 111 q 290 69 242 69 q 328 76 310 69 q 361 90 346 83 l 385 14 q 329 -7 361 3 q 257 -17 297 -17 q 182 -5 213 -17 q 132 27 151 7 q 104 74 113 47 q 96 133 96 101 q 98 172 96 154 q 103 208 100 189 l 182 589 m 33 -154 l 360 -154 l 346 -228 l 19 -228 l 33 -154 z "},"ẗ":{"ha":451,"x_min":83,"x_max":506,"o":"m 182 589 l 83 589 l 99 668 l 204 675 l 254 861 l 344 861 l 307 675 l 478 675 l 461 589 l 288 589 l 208 203 q 204 153 204 178 q 223 90 204 111 q 290 69 242 69 q 328 76 310 69 q 361 90 346 83 l 385 14 q 329 -7 361 3 q 257 -17 297 -17 q 182 -5 213 -17 q 132 27 151 7 q 104 74 113 47 q 96 133 96 101 q 98 172 96 154 q 103 208 100 189 l 182 589 m 204 1007 q 165 1022 181 1007 q 149 1063 149 1036 q 169 1117 149 1094 q 219 1139 190 1139 q 260 1124 244 1139 q 276 1081 276 1108 q 255 1028 276 1049 q 204 1007 233 1007 m 435 1007 q 395 1022 411 1007 q 379 1063 379 1036 q 400 1117 379 1094 q 450 1139 421 1139 q 490 1124 475 1139 q 506 1081 506 1108 q 485 1028 506 1049 q 435 1007 464 1007 z "},"ù":{"ha":733,"x_min":78,"x_max":688,"o":"m 553 0 l 465 0 l 476 103 l 471 103 q 358 19 415 54 q 238 -17 300 -17 q 115 28 151 -17 q 78 151 78 74 q 80 196 78 175 q 89 244 82 217 l 175 675 l 282 675 l 197 258 q 189 214 192 231 q 186 179 186 197 q 210 101 186 128 q 286 75 233 75 q 375 104 326 75 q 486 197 424 133 l 582 675 l 688 675 l 553 0 m 343 989 l 447 989 l 529 793 l 451 793 l 343 989 z "},"ú":{"ha":733,"x_min":78,"x_max":688,"o":"m 553 0 l 465 0 l 476 103 l 471 103 q 358 19 415 54 q 238 -17 300 -17 q 115 28 151 -17 q 78 151 78 74 q 80 196 78 175 q 89 244 82 217 l 175 675 l 282 675 l 197 258 q 189 214 192 231 q 186 179 186 197 q 210 101 186 128 q 286 75 233 75 q 375 104 326 75 q 486 197 424 133 l 582 675 l 688 675 l 553 0 m 517 989 l 631 989 l 442 793 l 356 793 l 517 989 z "}}}
